<?xml version="1.0" encoding="UTF-8" standalone="no"?>
<!DOCTYPE svg PUBLIC "-//W3C//DTD SVG 1.1//EN"
 "http://www.w3.org/Graphics/SVG/1.1/DTD/svg11.dtd">
<!-- Generated by graphviz version 14.1.2 (20260124.0452)
 -->
<!-- Title: test Pages: 1 -->
<svg width="241pt" height="82pt"
 viewBox="0.00 0.00 241.00 82.00" xmlns="http://www.w3.org/2000/svg" xmlns:xlink="http://www.w3.org/1999/xlink">
<g id="graph0" class="graph" transform="scale(1 1) rotate(0) translate(4 78.25)">
<title>test</title>
<!-- Node1 -->
<g id="Node000001" class="node">
<title>Node1</title>
<g id="a_Node000001"><a xlink:title="Self&#45;test implementations.">
<polygon fill="#999999" stroke="#666666" points="32.5,-37.25 0,-37.25 0,-18 32.5,-18 32.5,-37.25"/>
<text xml:space="preserve" text-anchor="middle" x="16.25" y="-23.75" font-family="Helvetica,sans-Serif" font-size="10.00">test</text>
</a>
</g>
</g>
<!-- Node2 -->
<g id="Node000002" class="node">
<title>Node2</title>
<g id="a_Node000002"><a xlink:href="../../dc/d39/selection__sort__recursive_8c.html#a3f04d850b94a34dcaaed0e7bc7475241" target="_top" xlink:title="Selection Sort algorithm implemented using recursion.">
<polygon fill="white" stroke="#666666" points="141.5,-37.25 68.5,-37.25 68.5,-18 141.5,-18 141.5,-37.25"/>
<text xml:space="preserve" text-anchor="middle" x="105" y="-23.75" font-family="Helvetica,sans-Serif" font-size="10.00">selectionSort</text>
</a>
</g>
</g>
<!-- Node1&#45;&gt;Node2 -->
<g id="edge1_Node000001_Node000002" class="edge">
<title>Node1&#45;&gt;Node2</title>
<g id="a_edge1_Node000001_Node000002"><a xlink:title=" ">
<path fill="none" stroke="#63b8ff" d="M32.76,-27.62C39.6,-27.62 48.05,-27.62 56.71,-27.62"/>
<polygon fill="#63b8ff" stroke="#63b8ff" points="56.59,-31.13 66.59,-27.63 56.59,-24.13 56.59,-31.13"/>
</a>
</g>
</g>
<!-- Node2&#45;&gt;Node2 -->
<g id="edge4_Node000002_Node000002" class="edge">
<title>Node2&#45;&gt;Node2</title>
<g id="a_edge4_Node000002_Node000002"><a xlink:title=" ">
<path fill="none" stroke="#63b8ff" d="M91.11,-37.54C84.77,-46.15 89.4,-55.25 105,-55.25 113.53,-55.25 118.78,-52.53 120.75,-48.65"/>
<polygon fill="#63b8ff" stroke="#63b8ff" points="124.25,-48.32 119.14,-39.03 117.34,-49.47 124.25,-48.32"/>
</a>
</g>
</g>
<!-- Node3 -->
<g id="Node000003" class="node">
<title>Node3</title>
<g id="a_Node000003"><a xlink:href="../../dc/d39/selection__sort__recursive_8c.html#aa2bc8bdd2e8ce289a6b8ef528fd1a534" target="_top" xlink:title="Returns the index having minimum value using recursion.">
<polygon fill="white" stroke="#666666" points="233.25,-56.25 177.5,-56.25 177.5,-37 233.25,-37 233.25,-56.25"/>
<text xml:space="preserve" text-anchor="middle" x="205.38" y="-42.75" font-family="Helvetica,sans-Serif" font-size="10.00">findIndex</text>
</a>
</g>
</g>
<!-- Node2&#45;&gt;Node3 -->
<g id="edge2_Node000002_Node000003" class="edge">
<title>Node2&#45;&gt;Node3</title>
<g id="a_edge2_Node000002_Node000003"><a xlink:title=" ">
<path fill="none" stroke="#63b8ff" d="M141.79,-34.54C149.62,-36.05 157.93,-37.66 165.86,-39.19"/>
<polygon fill="#63b8ff" stroke="#63b8ff" points="165.12,-42.61 175.61,-41.07 166.45,-35.74 165.12,-42.61"/>
</a>
</g>
</g>
<!-- Node4 -->
<g id="Node000004" class="node">
<title>Node4</title>
<g id="a_Node000004"><a xlink:href="../../dc/d39/selection__sort__recursive_8c.html#aaf68497ab808b560dbf109da6435905a" target="_top" xlink:title="for assert for IO operations for dynamic memory allocation">
<polygon fill="white" stroke="#666666" points="225,-19.25 185.75,-19.25 185.75,0 225,0 225,-19.25"/>
<text xml:space="preserve" text-anchor="middle" x="205.38" y="-5.75" font-family="Helvetica,sans-Serif" font-size="10.00">swap</text>
</a>
</g>
</g>
<!-- Node2&#45;&gt;Node4 -->
<g id="edge5_Node000002_Node000004" class="edge">
<title>Node2&#45;&gt;Node4</title>
<g id="a_edge5_Node000002_Node000004"><a xlink:title=" ">
<path fill="none" stroke="#63b8ff" d="M141.79,-21.08C152.38,-19.14 163.85,-17.04 174.06,-15.17"/>
<polygon fill="#63b8ff" stroke="#63b8ff" points="174.62,-18.63 183.83,-13.39 173.36,-11.74 174.62,-18.63"/>
</a>
</g>
</g>
<!-- Node3&#45;&gt;Node3 -->
<g id="edge3_Node000003_Node000003" class="edge">
<title>Node3&#45;&gt;Node3</title>
<g id="a_edge3_Node000003_Node000003"><a xlink:title=" ">
<path fill="none" stroke="#63b8ff" d="M189.66,-56.54C182.49,-65.15 187.73,-74.25 205.38,-74.25 215.02,-74.25 220.96,-71.53 223.19,-67.65"/>
<polygon fill="#63b8ff" stroke="#63b8ff" points="226.67,-67.2 221.37,-58.03 219.79,-68.5 226.67,-67.2"/>
</a>
</g>
</g>
</g>
</svg>
