<?xml version="1.0" encoding="UTF-8" standalone="no"?>
<!DOCTYPE svg PUBLIC "-//W3C//DTD SVG 1.1//EN"
 "http://www.w3.org/Graphics/SVG/1.1/DTD/svg11.dtd">
<!-- Generated by graphviz version 14.1.2 (20260124.0452)
 -->
<!-- Title: selectionSort Pages: 1 -->
<svg width="173pt" height="82pt"
 viewBox="0.00 0.00 173.00 82.00" xmlns="http://www.w3.org/2000/svg" xmlns:xlink="http://www.w3.org/1999/xlink">
<g id="graph0" class="graph" transform="scale(1 1) rotate(0) translate(4 78.25)">
<title>selectionSort</title>
<!-- Node1 -->
<g id="Node000001" class="node">
<title>Node1</title>
<g id="a_Node000001"><a xlink:title="Selection Sort algorithm implemented using recursion.">
<polygon fill="#999999" stroke="#666666" points="73,-37.25 0,-37.25 0,-18 73,-18 73,-37.25"/>
<text xml:space="preserve" text-anchor="middle" x="36.5" y="-23.75" font-family="Helvetica,sans-Serif" font-size="10.00">selectionSort</text>
</a>
</g>
</g>
<!-- Node1&#45;&gt;Node1 -->
<g id="edge3_Node000001_Node000001" class="edge">
<title>Node1&#45;&gt;Node1</title>
<g id="a_edge3_Node000001_Node000001"><a xlink:title=" ">
<path fill="none" stroke="#63b8ff" d="M20.79,-37.54C13.62,-46.15 18.86,-55.25 36.5,-55.25 46.15,-55.25 52.09,-52.53 54.32,-48.65"/>
<polygon fill="#63b8ff" stroke="#63b8ff" points="57.79,-48.2 52.5,-39.03 50.92,-49.5 57.79,-48.2"/>
</a>
</g>
</g>
<!-- Node2 -->
<g id="Node000002" class="node">
<title>Node2</title>
<g id="a_Node000002"><a xlink:href="../../dc/d39/selection__sort__recursive_8c.html#aa2bc8bdd2e8ce289a6b8ef528fd1a534" target="_top" xlink:title="Returns the index having minimum value using recursion.">
<polygon fill="white" stroke="#666666" points="164.75,-56.25 109,-56.25 109,-37 164.75,-37 164.75,-56.25"/>
<text xml:space="preserve" text-anchor="middle" x="136.88" y="-42.75" font-family="Helvetica,sans-Serif" font-size="10.00">findIndex</text>
</a>
</g>
</g>
<!-- Node1&#45;&gt;Node2 -->
<g id="edge1_Node000001_Node000002" class="edge">
<title>Node1&#45;&gt;Node2</title>
<g id="a_edge1_Node000001_Node000002"><a xlink:title=" ">
<path fill="none" stroke="#63b8ff" d="M73.29,-34.54C81.12,-36.05 89.43,-37.66 97.36,-39.19"/>
<polygon fill="#63b8ff" stroke="#63b8ff" points="96.62,-42.61 107.11,-41.07 97.95,-35.74 96.62,-42.61"/>
</a>
</g>
</g>
<!-- Node3 -->
<g id="Node000003" class="node">
<title>Node3</title>
<g id="a_Node000003"><a xlink:href="../../dc/d39/selection__sort__recursive_8c.html#aaf68497ab808b560dbf109da6435905a" target="_top" xlink:title="for assert for IO operations for dynamic memory allocation">
<polygon fill="white" stroke="#666666" points="156.5,-19.25 117.25,-19.25 117.25,0 156.5,0 156.5,-19.25"/>
<text xml:space="preserve" text-anchor="middle" x="136.88" y="-5.75" font-family="Helvetica,sans-Serif" font-size="10.00">swap</text>
</a>
</g>
</g>
<!-- Node1&#45;&gt;Node3 -->
<g id="edge4_Node000001_Node000003" class="edge">
<title>Node1&#45;&gt;Node3</title>
<g id="a_edge4_Node000001_Node000003"><a xlink:title=" ">
<path fill="none" stroke="#63b8ff" d="M73.29,-21.08C83.88,-19.14 95.35,-17.04 105.56,-15.17"/>
<polygon fill="#63b8ff" stroke="#63b8ff" points="106.12,-18.63 115.33,-13.39 104.86,-11.74 106.12,-18.63"/>
</a>
</g>
</g>
<!-- Node2&#45;&gt;Node2 -->
<g id="edge2_Node000002_Node000002" class="edge">
<title>Node2&#45;&gt;Node2</title>
<g id="a_edge2_Node000002_Node000002"><a xlink:title=" ">
<path fill="none" stroke="#63b8ff" d="M121.16,-56.54C113.99,-65.15 119.23,-74.25 136.88,-74.25 146.52,-74.25 152.46,-71.53 154.69,-67.65"/>
<polygon fill="#63b8ff" stroke="#63b8ff" points="158.17,-67.2 152.87,-58.03 151.29,-68.5 158.17,-67.2"/>
</a>
</g>
</g>
</g>
</svg>
