<?xml version="1.0" encoding="UTF-8" standalone="no"?>
<!DOCTYPE svg PUBLIC "-//W3C//DTD SVG 1.1//EN"
 "http://www.w3.org/Graphics/SVG/1.1/DTD/svg11.dtd">
<!-- Generated by graphviz version 14.1.2 (20260124.0452)
 -->
<!-- Title: main Pages: 1 -->
<svg width="314pt" height="82pt"
 viewBox="0.00 0.00 314.00 82.00" xmlns="http://www.w3.org/2000/svg" xmlns:xlink="http://www.w3.org/1999/xlink">
<g id="graph0" class="graph" transform="scale(1 1) rotate(0) translate(4 78.25)">
<title>main</title>
<!-- Node1 -->
<g id="Node000001" class="node">
<title>Node1</title>
<g id="a_Node000001"><a xlink:title="Main function.">
<polygon fill="#999999" stroke="#666666" points="37,-37.25 0,-37.25 0,-18 37,-18 37,-37.25"/>
<text xml:space="preserve" text-anchor="middle" x="18.5" y="-23.75" font-family="Helvetica,sans-Serif" font-size="10.00">main</text>
</a>
</g>
</g>
<!-- Node2 -->
<g id="Node000002" class="node">
<title>Node2</title>
<g id="a_Node000002"><a xlink:href="../../dc/d39/selection__sort__recursive_8c.html#aa8dca7b867074164d5f45b0f3851269d" target="_top" xlink:title="Self&#45;test implementations.">
<polygon fill="white" stroke="#666666" points="105.5,-37.25 73,-37.25 73,-18 105.5,-18 105.5,-37.25"/>
<text xml:space="preserve" text-anchor="middle" x="89.25" y="-23.75" font-family="Helvetica,sans-Serif" font-size="10.00">test</text>
</a>
</g>
</g>
<!-- Node1&#45;&gt;Node2 -->
<g id="edge1_Node000001_Node000002" class="edge">
<title>Node1&#45;&gt;Node2</title>
<g id="a_edge1_Node000001_Node000002"><a xlink:title=" ">
<path fill="none" stroke="#63b8ff" d="M37.2,-27.62C44.58,-27.62 53.31,-27.62 61.45,-27.62"/>
<polygon fill="#63b8ff" stroke="#63b8ff" points="61.2,-31.13 71.2,-27.63 61.2,-24.13 61.2,-31.13"/>
</a>
</g>
</g>
<!-- Node3 -->
<g id="Node000003" class="node">
<title>Node3</title>
<g id="a_Node000003"><a xlink:href="../../dc/d39/selection__sort__recursive_8c.html#a3f04d850b94a34dcaaed0e7bc7475241" target="_top" xlink:title="Selection Sort algorithm implemented using recursion.">
<polygon fill="white" stroke="#666666" points="214.5,-37.25 141.5,-37.25 141.5,-18 214.5,-18 214.5,-37.25"/>
<text xml:space="preserve" text-anchor="middle" x="178" y="-23.75" font-family="Helvetica,sans-Serif" font-size="10.00">selectionSort</text>
</a>
</g>
</g>
<!-- Node2&#45;&gt;Node3 -->
<g id="edge2_Node000002_Node000003" class="edge">
<title>Node2&#45;&gt;Node3</title>
<g id="a_edge2_Node000002_Node000003"><a xlink:title=" ">
<path fill="none" stroke="#63b8ff" d="M105.76,-27.62C112.6,-27.62 121.05,-27.62 129.71,-27.62"/>
<polygon fill="#63b8ff" stroke="#63b8ff" points="129.59,-31.13 139.59,-27.63 129.59,-24.13 129.59,-31.13"/>
</a>
</g>
</g>
<!-- Node3&#45;&gt;Node3 -->
<g id="edge5_Node000003_Node000003" class="edge">
<title>Node3&#45;&gt;Node3</title>
<g id="a_edge5_Node000003_Node000003"><a xlink:title=" ">
<path fill="none" stroke="#63b8ff" d="M164.11,-37.54C157.77,-46.15 162.4,-55.25 178,-55.25 186.53,-55.25 191.78,-52.53 193.75,-48.65"/>
<polygon fill="#63b8ff" stroke="#63b8ff" points="197.25,-48.32 192.14,-39.03 190.34,-49.47 197.25,-48.32"/>
</a>
</g>
</g>
<!-- Node4 -->
<g id="Node000004" class="node">
<title>Node4</title>
<g id="a_Node000004"><a xlink:href="../../dc/d39/selection__sort__recursive_8c.html#aa2bc8bdd2e8ce289a6b8ef528fd1a534" target="_top" xlink:title="Returns the index having minimum value using recursion.">
<polygon fill="white" stroke="#666666" points="306.25,-56.25 250.5,-56.25 250.5,-37 306.25,-37 306.25,-56.25"/>
<text xml:space="preserve" text-anchor="middle" x="278.38" y="-42.75" font-family="Helvetica,sans-Serif" font-size="10.00">findIndex</text>
</a>
</g>
</g>
<!-- Node3&#45;&gt;Node4 -->
<g id="edge3_Node000003_Node000004" class="edge">
<title>Node3&#45;&gt;Node4</title>
<g id="a_edge3_Node000003_Node000004"><a xlink:title=" ">
<path fill="none" stroke="#63b8ff" d="M214.79,-34.54C222.62,-36.05 230.93,-37.66 238.86,-39.19"/>
<polygon fill="#63b8ff" stroke="#63b8ff" points="238.12,-42.61 248.61,-41.07 239.45,-35.74 238.12,-42.61"/>
</a>
</g>
</g>
<!-- Node5 -->
<g id="Node000005" class="node">
<title>Node5</title>
<g id="a_Node000005"><a xlink:href="../../dc/d39/selection__sort__recursive_8c.html#aaf68497ab808b560dbf109da6435905a" target="_top" xlink:title="for assert for IO operations for dynamic memory allocation">
<polygon fill="white" stroke="#666666" points="298,-19.25 258.75,-19.25 258.75,0 298,0 298,-19.25"/>
<text xml:space="preserve" text-anchor="middle" x="278.38" y="-5.75" font-family="Helvetica,sans-Serif" font-size="10.00">swap</text>
</a>
</g>
</g>
<!-- Node3&#45;&gt;Node5 -->
<g id="edge6_Node000003_Node000005" class="edge">
<title>Node3&#45;&gt;Node5</title>
<g id="a_edge6_Node000003_Node000005"><a xlink:title=" ">
<path fill="none" stroke="#63b8ff" d="M214.79,-21.08C225.38,-19.14 236.85,-17.04 247.06,-15.17"/>
<polygon fill="#63b8ff" stroke="#63b8ff" points="247.62,-18.63 256.83,-13.39 246.36,-11.74 247.62,-18.63"/>
</a>
</g>
</g>
<!-- Node4&#45;&gt;Node4 -->
<g id="edge4_Node000004_Node000004" class="edge">
<title>Node4&#45;&gt;Node4</title>
<g id="a_edge4_Node000004_Node000004"><a xlink:title=" ">
<path fill="none" stroke="#63b8ff" d="M262.66,-56.54C255.49,-65.15 260.73,-74.25 278.38,-74.25 288.02,-74.25 293.96,-71.53 296.19,-67.65"/>
<polygon fill="#63b8ff" stroke="#63b8ff" points="299.67,-67.2 294.37,-58.03 292.79,-68.5 299.67,-67.2"/>
</a>
</g>
</g>
</g>
</svg>
