<?xml version="1.0" encoding="UTF-8" standalone="no"?>
<!DOCTYPE svg PUBLIC "-//W3C//DTD SVG 1.1//EN"
 "http://www.w3.org/Graphics/SVG/1.1/DTD/svg11.dtd">
<!-- Generated by graphviz version 14.1.2 (20260124.0452)
 -->
<!-- Title: main Pages: 1 -->
<svg width="415pt" height="140pt"
 viewBox="0.00 0.00 415.00 140.00" xmlns="http://www.w3.org/2000/svg" xmlns:xlink="http://www.w3.org/1999/xlink">

<svg id="main" version="1.1" xmlns="http://www.w3.org/2000/svg" xmlns:xlink="http://www.w3.org/1999/xlink" xml:space="preserve">

<style type="text/css"><![CDATA[
.node, .edge {opacity: 0.7;}
.node.selected, .edge.selected {opacity: 1;}
.edge:hover path { stroke: red; }
.edge:hover polygon { stroke: red; fill: red; }
]]></style>
<script type="application/ecmascript" xlink:href="../../svg.min.js"/>
<svg id="graph" class="graph">
<g id="graph0" class="graph" transform="scale(1 1) rotate(0) translate(4 136.25)">
<title>main</title>
<!-- Node1 -->
<g id="Node000001" class="node">
<title>Node1</title>
<g id="a_Node000001"><a xlink:title="Main function.">
<polygon fill="#999999" stroke="#666666" points="37,-75.25 0,-75.25 0,-56 37,-56 37,-75.25"/>
<text xml:space="preserve" text-anchor="middle" x="18.5" y="-61.75" font-family="Helvetica,sans-Serif" font-size="10.00">main</text>
</a>
</g>
</g>
<!-- Node2 -->
<g id="Node000002" class="node">
<title>Node2</title>
<g id="a_Node000002"><a xlink:href="../../d2/d87/non__preemptive__priority__scheduling_8c.html#aa8dca7b867074164d5f45b0f3851269d" target="_top" xlink:title="Self&#45;test implementations.">
<polygon fill="white" stroke="#666666" points="105.5,-75.25 73,-75.25 73,-56 105.5,-56 105.5,-75.25"/>
<text xml:space="preserve" text-anchor="middle" x="89.25" y="-61.75" font-family="Helvetica,sans-Serif" font-size="10.00">test</text>
</a>
</g>
</g>
<!-- Node1&#45;&gt;Node2 -->
<g id="edge1_Node000001_Node000002" class="edge">
<title>Node1&#45;&gt;Node2</title>
<g id="a_edge1_Node000001_Node000002"><a xlink:title=" ">
<path fill="none" stroke="#63b8ff" d="M37.2,-65.62C44.58,-65.62 53.31,-65.62 61.45,-65.62"/>
<polygon fill="#63b8ff" stroke="#63b8ff" points="61.2,-69.13 71.2,-65.63 61.2,-62.13 61.2,-69.13"/>
</a>
</g>
</g>
<!-- Node3 -->
<g id="Node000003" class="node">
<title>Node3</title>
<g id="a_Node000003"><a xlink:href="../../d2/d87/non__preemptive__priority__scheduling_8c.html#abbb2446313782dd3ba9ff2a7ad0ce1df" target="_top" xlink:title="To calculate the average completion time of all the processes.">
<polygon fill="white" stroke="#666666" points="317.5,-94.25 249,-94.25 249,-75 317.5,-75 317.5,-94.25"/>
<text xml:space="preserve" text-anchor="middle" x="283.25" y="-80.75" font-family="Helvetica,sans-Serif" font-size="10.00">calculate_ct</text>
</a>
</g>
</g>
<!-- Node2&#45;&gt;Node3 -->
<g id="edge2_Node000002_Node000003" class="edge">
<title>Node2&#45;&gt;Node3</title>
<g id="a_edge2_Node000002_Node000003"><a xlink:title=" ">
<path fill="none" stroke="#63b8ff" d="M105.96,-67.18C134.37,-69.99 195.23,-76.01 237.44,-80.19"/>
<polygon fill="#63b8ff" stroke="#63b8ff" points="237.01,-83.66 247.3,-81.17 237.69,-76.7 237.01,-83.66"/>
</a>
</g>
</g>
<!-- Node5 -->
<g id="Node000005" class="node">
<title>Node5</title>
<g id="a_Node000005"><a xlink:href="../../d2/d87/non__preemptive__priority__scheduling_8c.html#a5d0943b2e0e1b48b9c3a575a7f262c36" target="_top" xlink:title="To insert a new process in the queue.">
<polygon fill="white" stroke="#666666" points="400.25,-132.25 360.25,-132.25 360.25,-113 400.25,-113 400.25,-132.25"/>
<text xml:space="preserve" text-anchor="middle" x="380.25" y="-118.75" font-family="Helvetica,sans-Serif" font-size="10.00">insert</text>
</a>
</g>
</g>
<!-- Node2&#45;&gt;Node5 -->
<g id="edge13_Node000002_Node000005" class="edge">
<title>Node2&#45;&gt;Node5</title>
<g id="a_edge13_Node000002_Node000005"><a xlink:title=" ">
<path fill="none" stroke="#63b8ff" d="M105.57,-73.44C115.56,-78.22 129.02,-84.08 141.5,-87.62 214.08,-108.23 302.76,-117.19 348.57,-120.67"/>
<polygon fill="#63b8ff" stroke="#63b8ff" points="348.05,-124.15 358.28,-121.37 348.55,-117.16 348.05,-124.15"/>
</a>
</g>
</g>
<!-- Node8 -->
<g id="Node000008" class="node">
<title>Node8</title>
<g id="a_Node000008"><a xlink:href="../../d2/d87/non__preemptive__priority__scheduling_8c.html#a458803d3c3926a6bcc4d51540f297756" target="_top" xlink:title="To calculate the average turn around time of all the processes.">
<polygon fill="white" stroke="#666666" points="213,-56.25 141.5,-56.25 141.5,-37 213,-37 213,-56.25"/>
<text xml:space="preserve" text-anchor="middle" x="177.25" y="-42.75" font-family="Helvetica,sans-Serif" font-size="10.00">calculate_tat</text>
</a>
</g>
</g>
<!-- Node2&#45;&gt;Node8 -->
<g id="edge7_Node000002_Node000008" class="edge">
<title>Node2&#45;&gt;Node8</title>
<g id="a_edge7_Node000002_Node000008"><a xlink:title=" ">
<path fill="none" stroke="#63b8ff" d="M105.63,-62.23C112.56,-60.7 121.15,-58.8 129.92,-56.86"/>
<polygon fill="#63b8ff" stroke="#63b8ff" points="130.54,-60.31 139.55,-54.73 129.03,-53.47 130.54,-60.31"/>
</a>
</g>
</g>
<!-- Node9 -->
<g id="Node000009" class="node">
<title>Node9</title>
<g id="a_Node000009"><a xlink:href="../../d2/d87/non__preemptive__priority__scheduling_8c.html#ae5e4de64ef6c5676d5013d90229a875c" target="_top" xlink:title="To calculate the average waiting time of all the processes.">
<polygon fill="white" stroke="#666666" points="212.62,-19.25 141.88,-19.25 141.88,0 212.62,0 212.62,-19.25"/>
<text xml:space="preserve" text-anchor="middle" x="177.25" y="-5.75" font-family="Helvetica,sans-Serif" font-size="10.00">calculate_wt</text>
</a>
</g>
</g>
<!-- Node2&#45;&gt;Node9 -->
<g id="edge10_Node000002_Node000009" class="edge">
<title>Node2&#45;&gt;Node9</title>
<g id="a_edge10_Node000002_Node000009"><a xlink:title=" ">
<path fill="none" stroke="#63b8ff" d="M102.49,-55.68C112.64,-47.65 127.59,-36.3 141.5,-27.62 142.9,-26.75 144.36,-25.88 145.84,-25.01"/>
<polygon fill="#63b8ff" stroke="#63b8ff" points="147.34,-28.18 154.41,-20.29 143.96,-22.05 147.34,-28.18"/>
</a>
</g>
</g>
<!-- Node4 -->
<g id="Node000004" class="node">
<title>Node4</title>
<g id="a_Node000004"><a xlink:href="../../d2/d87/non__preemptive__priority__scheduling_8c.html#a01b8ee561d8532a44d665c2c854e0d09" target="_top" xlink:title="To compare the priority of two processes based on their arrival time and priority.">
<polygon fill="white" stroke="#666666" points="407,-95.25 353.5,-95.25 353.5,-76 407,-76 407,-95.25"/>
<text xml:space="preserve" text-anchor="middle" x="380.25" y="-81.75" font-family="Helvetica,sans-Serif" font-size="10.00">compare</text>
</a>
</g>
</g>
<!-- Node3&#45;&gt;Node4 -->
<g id="edge3_Node000003_Node000004" class="edge">
<title>Node3&#45;&gt;Node4</title>
<g id="a_edge3_Node000003_Node000004"><a xlink:title=" ">
<path fill="none" stroke="#63b8ff" d="M317.74,-84.98C325.57,-85.06 333.95,-85.15 341.93,-85.23"/>
<polygon fill="#63b8ff" stroke="#63b8ff" points="341.67,-88.73 351.71,-85.34 341.74,-81.73 341.67,-88.73"/>
</a>
</g>
</g>
<!-- Node3&#45;&gt;Node5 -->
<g id="edge4_Node000003_Node000005" class="edge">
<title>Node3&#45;&gt;Node5</title>
<g id="a_edge4_Node000003_Node000005"><a xlink:title=" ">
<path fill="none" stroke="#63b8ff" d="M309.21,-94.61C321.46,-99.51 336.3,-105.45 349.17,-110.59"/>
<polygon fill="#63b8ff" stroke="#63b8ff" points="347.86,-113.84 358.45,-114.3 350.46,-107.34 347.86,-113.84"/>
</a>
</g>
</g>
<!-- Node6 -->
<g id="Node000006" class="node">
<title>Node6</title>
<g id="a_Node000006"><a xlink:href="../../d2/d87/non__preemptive__priority__scheduling_8c.html#a40e454ce0750e794007bf41a7102b3a9" target="_top" xlink:title="To length process queue.">
<polygon fill="white" stroke="#666666" points="405.12,-21.25 355.38,-21.25 355.38,-2 405.12,-2 405.12,-21.25"/>
<text xml:space="preserve" text-anchor="middle" x="380.25" y="-7.75" font-family="Helvetica,sans-Serif" font-size="10.00">l_length</text>
</a>
</g>
</g>
<!-- Node3&#45;&gt;Node6 -->
<g id="edge5_Node000003_Node000006" class="edge">
<title>Node3&#45;&gt;Node6</title>
<g id="a_edge5_Node000003_Node000006"><a xlink:title=" ">
<path fill="none" stroke="#63b8ff" d="M298.69,-74.61C304.6,-70.4 311.46,-65.39 317.5,-60.62 334.08,-47.55 336.83,-42.58 353.5,-29.62 354.04,-29.21 354.59,-28.79 355.14,-28.37"/>
<polygon fill="#63b8ff" stroke="#63b8ff" points="357.11,-31.26 363.13,-22.54 352.99,-25.6 357.11,-31.26"/>
</a>
</g>
</g>
<!-- Node7 -->
<g id="Node000007" class="node">
<title>Node7</title>
<g id="a_Node000007"><a xlink:href="../../d2/d87/non__preemptive__priority__scheduling_8c.html#a9bc34d3b138bd0153a942cf6a8b31533" target="_top" xlink:title="To update the completion time, turn around time and waiting time of the processes.">
<polygon fill="white" stroke="#666666" points="402.88,-58.25 357.62,-58.25 357.62,-39 402.88,-39 402.88,-58.25"/>
<text xml:space="preserve" text-anchor="middle" x="380.25" y="-44.75" font-family="Helvetica,sans-Serif" font-size="10.00">update</text>
</a>
</g>
</g>
<!-- Node3&#45;&gt;Node7 -->
<g id="edge6_Node000003_Node000007" class="edge">
<title>Node3&#45;&gt;Node7</title>
<g id="a_edge6_Node000003_Node000007"><a xlink:title=" ">
<path fill="none" stroke="#63b8ff" d="M310.97,-74.5C322.03,-70.31 334.96,-65.41 346.58,-61"/>
<polygon fill="#63b8ff" stroke="#63b8ff" points="347.69,-64.33 355.8,-57.51 345.21,-57.78 347.69,-64.33"/>
</a>
</g>
</g>
<!-- Node8&#45;&gt;Node3 -->
<g id="edge8_Node000008_Node000003" class="edge">
<title>Node8&#45;&gt;Node3</title>
<g id="a_edge8_Node000008_Node000003"><a xlink:title=" ">
<path fill="none" stroke="#63b8ff" d="M205.85,-56.71C217.58,-60.99 231.45,-66.06 244.13,-70.7"/>
<polygon fill="#63b8ff" stroke="#63b8ff" points="242.87,-73.96 253.46,-74.11 245.27,-67.39 242.87,-73.96"/>
</a>
</g>
</g>
<!-- Node8&#45;&gt;Node6 -->
<g id="edge9_Node000008_Node000006" class="edge">
<title>Node8&#45;&gt;Node6</title>
<g id="a_edge9_Node000008_Node000006"><a xlink:title=" ">
<path fill="none" stroke="#63b8ff" d="M213.24,-41.6C241.45,-37.43 282.12,-31.14 317.5,-24.62 326.02,-23.06 335.17,-21.22 343.74,-19.42"/>
<polygon fill="#63b8ff" stroke="#63b8ff" points="344.43,-22.85 353.48,-17.35 342.97,-16.01 344.43,-22.85"/>
</a>
</g>
</g>
<!-- Node9&#45;&gt;Node3 -->
<g id="edge11_Node000009_Node000003" class="edge">
<title>Node9&#45;&gt;Node3</title>
<g id="a_edge11_Node000009_Node000003"><a xlink:title=" ">
<path fill="none" stroke="#63b8ff" d="M199.24,-19.59C203.88,-22.04 208.69,-24.78 213,-27.62 230.95,-39.47 249.69,-55.13 263.14,-67.03"/>
<polygon fill="#63b8ff" stroke="#63b8ff" points="260.64,-69.49 270.41,-73.57 265.32,-64.28 260.64,-69.49"/>
</a>
</g>
</g>
<!-- Node9&#45;&gt;Node6 -->
<g id="edge12_Node000009_Node000006" class="edge">
<title>Node9&#45;&gt;Node6</title>
<g id="a_edge12_Node000009_Node000006"><a xlink:title=" ">
<path fill="none" stroke="#63b8ff" d="M212.8,-9.97C249.37,-10.33 306.78,-10.9 343.71,-11.27"/>
<polygon fill="#63b8ff" stroke="#63b8ff" points="343.38,-14.77 353.42,-11.37 343.45,-7.77 343.38,-14.77"/>
</a>
</g>
</g>
</g>
</svg>
</svg>

<style type='text/css'>
<![CDATA[
[data-mouse-over-selected='false'] { opacity: 0.7; }
[data-mouse-over-selected='true']  { opacity: 1.0; }
]]>
</style>
<script type="application/ecmascript"><![CDATA[
document.addEventListener('DOMContentLoaded', (event) => {
  highlightEdges();
  highlightAdjacentNodes();
});
]]></script>
</svg>
