<?xml version="1.0" encoding="UTF-8" standalone="no"?>
<!DOCTYPE svg PUBLIC "-//W3C//DTD SVG 1.1//EN"
 "http://www.w3.org/Graphics/SVG/1.1/DTD/svg11.dtd">
<!-- Generated by graphviz version 14.1.2 (20260124.0452)
 -->
<!-- Title: calculate_ct Pages: 1 -->
<svg width="166pt" height="138pt"
 viewBox="0.00 0.00 166.00 138.00" xmlns="http://www.w3.org/2000/svg" xmlns:xlink="http://www.w3.org/1999/xlink">
<g id="graph0" class="graph" transform="scale(1 1) rotate(0) translate(4 134.25)">
<title>calculate_ct</title>
<!-- Node1 -->
<g id="Node000001" class="node">
<title>Node1</title>
<g id="a_Node000001"><a xlink:title="To calculate the average completion time of all the processes.">
<polygon fill="#999999" stroke="#666666" points="68.5,-74.25 0,-74.25 0,-55 68.5,-55 68.5,-74.25"/>
<text xml:space="preserve" text-anchor="middle" x="34.25" y="-60.75" font-family="Helvetica,sans-Serif" font-size="10.00">calculate_ct</text>
</a>
</g>
</g>
<!-- Node2 -->
<g id="Node000002" class="node">
<title>Node2</title>
<g id="a_Node000002"><a xlink:href="../../d2/d87/non__preemptive__priority__scheduling_8c.html#a01b8ee561d8532a44d665c2c854e0d09" target="_top" xlink:title="To compare the priority of two processes based on their arrival time and priority.">
<polygon fill="white" stroke="#666666" points="158,-130.25 104.5,-130.25 104.5,-111 158,-111 158,-130.25"/>
<text xml:space="preserve" text-anchor="middle" x="131.25" y="-116.75" font-family="Helvetica,sans-Serif" font-size="10.00">compare</text>
</a>
</g>
</g>
<!-- Node1&#45;&gt;Node2 -->
<g id="edge1_Node000001_Node000002" class="edge">
<title>Node1&#45;&gt;Node2</title>
<g id="a_edge1_Node000001_Node000002"><a xlink:title=" ">
<path fill="none" stroke="#63b8ff" d="M52.23,-74.64C66.47,-83.03 87.03,-95.15 103.48,-104.84"/>
<polygon fill="#63b8ff" stroke="#63b8ff" points="101.4,-107.68 111.79,-109.74 104.95,-101.65 101.4,-107.68"/>
</a>
</g>
</g>
<!-- Node3 -->
<g id="Node000003" class="node">
<title>Node3</title>
<g id="a_Node000003"><a xlink:href="../../d2/d87/non__preemptive__priority__scheduling_8c.html#a5d0943b2e0e1b48b9c3a575a7f262c36" target="_top" xlink:title="To insert a new process in the queue.">
<polygon fill="white" stroke="#666666" points="151.25,-93.25 111.25,-93.25 111.25,-74 151.25,-74 151.25,-93.25"/>
<text xml:space="preserve" text-anchor="middle" x="131.25" y="-79.75" font-family="Helvetica,sans-Serif" font-size="10.00">insert</text>
</a>
</g>
</g>
<!-- Node1&#45;&gt;Node3 -->
<g id="edge2_Node000001_Node000003" class="edge">
<title>Node1&#45;&gt;Node3</title>
<g id="a_edge2_Node000001_Node000003"><a xlink:title=" ">
<path fill="none" stroke="#63b8ff" d="M68.74,-71.32C78.88,-73.35 89.95,-75.57 99.87,-77.55"/>
<polygon fill="#63b8ff" stroke="#63b8ff" points="98.89,-80.92 109.38,-79.45 100.26,-74.06 98.89,-80.92"/>
</a>
</g>
</g>
<!-- Node4 -->
<g id="Node000004" class="node">
<title>Node4</title>
<g id="a_Node000004"><a xlink:href="../../d2/d87/non__preemptive__priority__scheduling_8c.html#a40e454ce0750e794007bf41a7102b3a9" target="_top" xlink:title="To length process queue.">
<polygon fill="white" stroke="#666666" points="156.12,-56.25 106.38,-56.25 106.38,-37 156.12,-37 156.12,-56.25"/>
<text xml:space="preserve" text-anchor="middle" x="131.25" y="-42.75" font-family="Helvetica,sans-Serif" font-size="10.00">l_length</text>
</a>
</g>
</g>
<!-- Node1&#45;&gt;Node4 -->
<g id="edge3_Node000001_Node000004" class="edge">
<title>Node1&#45;&gt;Node4</title>
<g id="a_edge3_Node000001_Node000004"><a xlink:title=" ">
<path fill="none" stroke="#63b8ff" d="M68.74,-58.28C77.19,-56.68 86.29,-54.95 94.83,-53.34"/>
<polygon fill="#63b8ff" stroke="#63b8ff" points="95.35,-56.8 104.52,-51.5 94.05,-49.92 95.35,-56.8"/>
</a>
</g>
</g>
<!-- Node5 -->
<g id="Node000005" class="node">
<title>Node5</title>
<g id="a_Node000005"><a xlink:href="../../d2/d87/non__preemptive__priority__scheduling_8c.html#a9bc34d3b138bd0153a942cf6a8b31533" target="_top" xlink:title="To update the completion time, turn around time and waiting time of the processes.">
<polygon fill="white" stroke="#666666" points="153.88,-19.25 108.62,-19.25 108.62,0 153.88,0 153.88,-19.25"/>
<text xml:space="preserve" text-anchor="middle" x="131.25" y="-5.75" font-family="Helvetica,sans-Serif" font-size="10.00">update</text>
</a>
</g>
</g>
<!-- Node1&#45;&gt;Node5 -->
<g id="edge4_Node000001_Node000005" class="edge">
<title>Node1&#45;&gt;Node5</title>
<g id="a_edge4_Node000001_Node000005"><a xlink:title=" ">
<path fill="none" stroke="#63b8ff" d="M52.67,-54.54C66.87,-46.32 87.15,-34.58 103.42,-25.16"/>
<polygon fill="#63b8ff" stroke="#63b8ff" points="104.73,-28.45 111.63,-20.41 101.22,-22.39 104.73,-28.45"/>
</a>
</g>
</g>
</g>
</svg>
