<?xml version="1.0" encoding="UTF-8" standalone="no"?>
<!DOCTYPE svg PUBLIC "-//W3C//DTD SVG 1.1//EN"
 "http://www.w3.org/Graphics/SVG/1.1/DTD/svg11.dtd">
<!-- Generated by graphviz version 14.1.2 (20260124.0452)
 -->
<!-- Title: test Pages: 1 -->
<svg width="342pt" height="140pt"
 viewBox="0.00 0.00 342.00 140.00" xmlns="http://www.w3.org/2000/svg" xmlns:xlink="http://www.w3.org/1999/xlink">

<svg id="main" version="1.1" xmlns="http://www.w3.org/2000/svg" xmlns:xlink="http://www.w3.org/1999/xlink" xml:space="preserve">

<style type="text/css"><![CDATA[
.node, .edge {opacity: 0.7;}
.node.selected, .edge.selected {opacity: 1;}
.edge:hover path { stroke: red; }
.edge:hover polygon { stroke: red; fill: red; }
]]></style>
<script type="application/ecmascript" xlink:href="../../svg.min.js"/>
<svg id="graph" class="graph">
<g id="graph0" class="graph" transform="scale(1 1) rotate(0) translate(4 136.25)">
<title>test</title>
<!-- Node1 -->
<g id="Node000001" class="node">
<title>Node1</title>
<g id="a_Node000001"><a xlink:title="Self&#45;test implementations.">
<polygon fill="#999999" stroke="#666666" points="32.5,-75.25 0,-75.25 0,-56 32.5,-56 32.5,-75.25"/>
<text xml:space="preserve" text-anchor="middle" x="16.25" y="-61.75" font-family="Helvetica,sans-Serif" font-size="10.00">test</text>
</a>
</g>
</g>
<!-- Node2 -->
<g id="Node000002" class="node">
<title>Node2</title>
<g id="a_Node000002"><a xlink:href="../../d2/d87/non__preemptive__priority__scheduling_8c.html#abbb2446313782dd3ba9ff2a7ad0ce1df" target="_top" xlink:title="To calculate the average completion time of all the processes.">
<polygon fill="white" stroke="#666666" points="244.5,-94.25 176,-94.25 176,-75 244.5,-75 244.5,-94.25"/>
<text xml:space="preserve" text-anchor="middle" x="210.25" y="-80.75" font-family="Helvetica,sans-Serif" font-size="10.00">calculate_ct</text>
</a>
</g>
</g>
<!-- Node1&#45;&gt;Node2 -->
<g id="edge1_Node000001_Node000002" class="edge">
<title>Node1&#45;&gt;Node2</title>
<g id="a_edge1_Node000001_Node000002"><a xlink:title=" ">
<path fill="none" stroke="#63b8ff" d="M32.96,-67.18C61.37,-69.99 122.23,-76.01 164.44,-80.19"/>
<polygon fill="#63b8ff" stroke="#63b8ff" points="164.01,-83.66 174.3,-81.17 164.69,-76.7 164.01,-83.66"/>
</a>
</g>
</g>
<!-- Node4 -->
<g id="Node000004" class="node">
<title>Node4</title>
<g id="a_Node000004"><a xlink:href="../../d2/d87/non__preemptive__priority__scheduling_8c.html#a5d0943b2e0e1b48b9c3a575a7f262c36" target="_top" xlink:title="To insert a new process in the queue.">
<polygon fill="white" stroke="#666666" points="327.25,-132.25 287.25,-132.25 287.25,-113 327.25,-113 327.25,-132.25"/>
<text xml:space="preserve" text-anchor="middle" x="307.25" y="-118.75" font-family="Helvetica,sans-Serif" font-size="10.00">insert</text>
</a>
</g>
</g>
<!-- Node1&#45;&gt;Node4 -->
<g id="edge12_Node000001_Node000004" class="edge">
<title>Node1&#45;&gt;Node4</title>
<g id="a_edge12_Node000001_Node000004"><a xlink:title=" ">
<path fill="none" stroke="#63b8ff" d="M32.57,-73.44C42.56,-78.22 56.02,-84.08 68.5,-87.62 141.08,-108.23 229.76,-117.19 275.57,-120.67"/>
<polygon fill="#63b8ff" stroke="#63b8ff" points="275.05,-124.15 285.28,-121.37 275.55,-117.16 275.05,-124.15"/>
</a>
</g>
</g>
<!-- Node7 -->
<g id="Node000007" class="node">
<title>Node7</title>
<g id="a_Node000007"><a xlink:href="../../d2/d87/non__preemptive__priority__scheduling_8c.html#a458803d3c3926a6bcc4d51540f297756" target="_top" xlink:title="To calculate the average turn around time of all the processes.">
<polygon fill="white" stroke="#666666" points="140,-56.25 68.5,-56.25 68.5,-37 140,-37 140,-56.25"/>
<text xml:space="preserve" text-anchor="middle" x="104.25" y="-42.75" font-family="Helvetica,sans-Serif" font-size="10.00">calculate_tat</text>
</a>
</g>
</g>
<!-- Node1&#45;&gt;Node7 -->
<g id="edge6_Node000001_Node000007" class="edge">
<title>Node1&#45;&gt;Node7</title>
<g id="a_edge6_Node000001_Node000007"><a xlink:title=" ">
<path fill="none" stroke="#63b8ff" d="M32.63,-62.23C39.56,-60.7 48.15,-58.8 56.92,-56.86"/>
<polygon fill="#63b8ff" stroke="#63b8ff" points="57.54,-60.31 66.55,-54.73 56.03,-53.47 57.54,-60.31"/>
</a>
</g>
</g>
<!-- Node8 -->
<g id="Node000008" class="node">
<title>Node8</title>
<g id="a_Node000008"><a xlink:href="../../d2/d87/non__preemptive__priority__scheduling_8c.html#ae5e4de64ef6c5676d5013d90229a875c" target="_top" xlink:title="To calculate the average waiting time of all the processes.">
<polygon fill="white" stroke="#666666" points="139.62,-19.25 68.88,-19.25 68.88,0 139.62,0 139.62,-19.25"/>
<text xml:space="preserve" text-anchor="middle" x="104.25" y="-5.75" font-family="Helvetica,sans-Serif" font-size="10.00">calculate_wt</text>
</a>
</g>
</g>
<!-- Node1&#45;&gt;Node8 -->
<g id="edge9_Node000001_Node000008" class="edge">
<title>Node1&#45;&gt;Node8</title>
<g id="a_edge9_Node000001_Node000008"><a xlink:title=" ">
<path fill="none" stroke="#63b8ff" d="M29.49,-55.68C39.64,-47.65 54.59,-36.3 68.5,-27.62 69.9,-26.75 71.36,-25.88 72.84,-25.01"/>
<polygon fill="#63b8ff" stroke="#63b8ff" points="74.34,-28.18 81.41,-20.29 70.96,-22.05 74.34,-28.18"/>
</a>
</g>
</g>
<!-- Node3 -->
<g id="Node000003" class="node">
<title>Node3</title>
<g id="a_Node000003"><a xlink:href="../../d2/d87/non__preemptive__priority__scheduling_8c.html#a01b8ee561d8532a44d665c2c854e0d09" target="_top" xlink:title="To compare the priority of two processes based on their arrival time and priority.">
<polygon fill="white" stroke="#666666" points="334,-95.25 280.5,-95.25 280.5,-76 334,-76 334,-95.25"/>
<text xml:space="preserve" text-anchor="middle" x="307.25" y="-81.75" font-family="Helvetica,sans-Serif" font-size="10.00">compare</text>
</a>
</g>
</g>
<!-- Node2&#45;&gt;Node3 -->
<g id="edge2_Node000002_Node000003" class="edge">
<title>Node2&#45;&gt;Node3</title>
<g id="a_edge2_Node000002_Node000003"><a xlink:title=" ">
<path fill="none" stroke="#63b8ff" d="M244.74,-84.98C252.57,-85.06 260.95,-85.15 268.93,-85.23"/>
<polygon fill="#63b8ff" stroke="#63b8ff" points="268.67,-88.73 278.71,-85.34 268.74,-81.73 268.67,-88.73"/>
</a>
</g>
</g>
<!-- Node2&#45;&gt;Node4 -->
<g id="edge3_Node000002_Node000004" class="edge">
<title>Node2&#45;&gt;Node4</title>
<g id="a_edge3_Node000002_Node000004"><a xlink:title=" ">
<path fill="none" stroke="#63b8ff" d="M236.21,-94.61C248.46,-99.51 263.3,-105.45 276.17,-110.59"/>
<polygon fill="#63b8ff" stroke="#63b8ff" points="274.86,-113.84 285.45,-114.3 277.46,-107.34 274.86,-113.84"/>
</a>
</g>
</g>
<!-- Node5 -->
<g id="Node000005" class="node">
<title>Node5</title>
<g id="a_Node000005"><a xlink:href="../../d2/d87/non__preemptive__priority__scheduling_8c.html#a40e454ce0750e794007bf41a7102b3a9" target="_top" xlink:title="To length process queue.">
<polygon fill="white" stroke="#666666" points="332.12,-21.25 282.38,-21.25 282.38,-2 332.12,-2 332.12,-21.25"/>
<text xml:space="preserve" text-anchor="middle" x="307.25" y="-7.75" font-family="Helvetica,sans-Serif" font-size="10.00">l_length</text>
</a>
</g>
</g>
<!-- Node2&#45;&gt;Node5 -->
<g id="edge4_Node000002_Node000005" class="edge">
<title>Node2&#45;&gt;Node5</title>
<g id="a_edge4_Node000002_Node000005"><a xlink:title=" ">
<path fill="none" stroke="#63b8ff" d="M225.69,-74.61C231.6,-70.4 238.46,-65.39 244.5,-60.62 261.08,-47.55 263.83,-42.58 280.5,-29.62 281.04,-29.21 281.59,-28.79 282.14,-28.37"/>
<polygon fill="#63b8ff" stroke="#63b8ff" points="284.11,-31.26 290.13,-22.54 279.99,-25.6 284.11,-31.26"/>
</a>
</g>
</g>
<!-- Node6 -->
<g id="Node000006" class="node">
<title>Node6</title>
<g id="a_Node000006"><a xlink:href="../../d2/d87/non__preemptive__priority__scheduling_8c.html#a9bc34d3b138bd0153a942cf6a8b31533" target="_top" xlink:title="To update the completion time, turn around time and waiting time of the processes.">
<polygon fill="white" stroke="#666666" points="329.88,-58.25 284.62,-58.25 284.62,-39 329.88,-39 329.88,-58.25"/>
<text xml:space="preserve" text-anchor="middle" x="307.25" y="-44.75" font-family="Helvetica,sans-Serif" font-size="10.00">update</text>
</a>
</g>
</g>
<!-- Node2&#45;&gt;Node6 -->
<g id="edge5_Node000002_Node000006" class="edge">
<title>Node2&#45;&gt;Node6</title>
<g id="a_edge5_Node000002_Node000006"><a xlink:title=" ">
<path fill="none" stroke="#63b8ff" d="M237.97,-74.5C249.03,-70.31 261.96,-65.41 273.58,-61"/>
<polygon fill="#63b8ff" stroke="#63b8ff" points="274.69,-64.33 282.8,-57.51 272.21,-57.78 274.69,-64.33"/>
</a>
</g>
</g>
<!-- Node7&#45;&gt;Node2 -->
<g id="edge7_Node000007_Node000002" class="edge">
<title>Node7&#45;&gt;Node2</title>
<g id="a_edge7_Node000007_Node000002"><a xlink:title=" ">
<path fill="none" stroke="#63b8ff" d="M132.85,-56.71C144.58,-60.99 158.45,-66.06 171.13,-70.7"/>
<polygon fill="#63b8ff" stroke="#63b8ff" points="169.87,-73.96 180.46,-74.11 172.27,-67.39 169.87,-73.96"/>
</a>
</g>
</g>
<!-- Node7&#45;&gt;Node5 -->
<g id="edge8_Node000007_Node000005" class="edge">
<title>Node7&#45;&gt;Node5</title>
<g id="a_edge8_Node000007_Node000005"><a xlink:title=" ">
<path fill="none" stroke="#63b8ff" d="M140.24,-41.6C168.45,-37.43 209.12,-31.14 244.5,-24.62 253.02,-23.06 262.17,-21.22 270.74,-19.42"/>
<polygon fill="#63b8ff" stroke="#63b8ff" points="271.43,-22.85 280.48,-17.35 269.97,-16.01 271.43,-22.85"/>
</a>
</g>
</g>
<!-- Node8&#45;&gt;Node2 -->
<g id="edge10_Node000008_Node000002" class="edge">
<title>Node8&#45;&gt;Node2</title>
<g id="a_edge10_Node000008_Node000002"><a xlink:title=" ">
<path fill="none" stroke="#63b8ff" d="M126.24,-19.59C130.88,-22.04 135.69,-24.78 140,-27.62 157.95,-39.47 176.69,-55.13 190.14,-67.03"/>
<polygon fill="#63b8ff" stroke="#63b8ff" points="187.64,-69.49 197.41,-73.57 192.32,-64.28 187.64,-69.49"/>
</a>
</g>
</g>
<!-- Node8&#45;&gt;Node5 -->
<g id="edge11_Node000008_Node000005" class="edge">
<title>Node8&#45;&gt;Node5</title>
<g id="a_edge11_Node000008_Node000005"><a xlink:title=" ">
<path fill="none" stroke="#63b8ff" d="M139.8,-9.97C176.37,-10.33 233.78,-10.9 270.71,-11.27"/>
<polygon fill="#63b8ff" stroke="#63b8ff" points="270.38,-14.77 280.42,-11.37 270.45,-7.77 270.38,-14.77"/>
</a>
</g>
</g>
</g>
</svg>
</svg>

<style type='text/css'>
<![CDATA[
[data-mouse-over-selected='false'] { opacity: 0.7; }
[data-mouse-over-selected='true']  { opacity: 1.0; }
]]>
</style>
<script type="application/ecmascript"><![CDATA[
document.addEventListener('DOMContentLoaded', (event) => {
  highlightEdges();
  highlightAdjacentNodes();
});
]]></script>
</svg>
