<?xml version="1.0" encoding="UTF-8" standalone="no"?>
<!DOCTYPE svg PUBLIC "-//W3C//DTD SVG 1.1//EN"
 "http://www.w3.org/Graphics/SVG/1.1/DTD/svg11.dtd">
<!-- Generated by graphviz version 14.1.2 (20260124.0452)
 -->
<!-- Title: calculate_tat Pages: 1 -->
<svg width="274pt" height="138pt"
 viewBox="0.00 0.00 274.00 138.00" xmlns="http://www.w3.org/2000/svg" xmlns:xlink="http://www.w3.org/1999/xlink">
<g id="graph0" class="graph" transform="scale(1 1) rotate(0) translate(4 134.25)">
<title>calculate_tat</title>
<!-- Node1 -->
<g id="Node000001" class="node">
<title>Node1</title>
<g id="a_Node000001"><a xlink:title="To calculate the average turn around time of all the processes.">
<polygon fill="#999999" stroke="#666666" points="71.5,-38.25 0,-38.25 0,-19 71.5,-19 71.5,-38.25"/>
<text xml:space="preserve" text-anchor="middle" x="35.75" y="-24.75" font-family="Helvetica,sans-Serif" font-size="10.00">calculate_tat</text>
</a>
</g>
</g>
<!-- Node2 -->
<g id="Node000002" class="node">
<title>Node2</title>
<g id="a_Node000002"><a xlink:href="../../d2/d87/non__preemptive__priority__scheduling_8c.html#abbb2446313782dd3ba9ff2a7ad0ce1df" target="_top" xlink:title="To calculate the average completion time of all the processes.">
<polygon fill="white" stroke="#666666" points="176,-57.25 107.5,-57.25 107.5,-38 176,-38 176,-57.25"/>
<text xml:space="preserve" text-anchor="middle" x="141.75" y="-43.75" font-family="Helvetica,sans-Serif" font-size="10.00">calculate_ct</text>
</a>
</g>
</g>
<!-- Node1&#45;&gt;Node2 -->
<g id="edge1_Node000001_Node000002" class="edge">
<title>Node1&#45;&gt;Node2</title>
<g id="a_edge1_Node000001_Node000002"><a xlink:title=" ">
<path fill="none" stroke="#63b8ff" d="M71.96,-35.06C79.73,-36.48 88.06,-38 96.15,-39.48"/>
<polygon fill="#63b8ff" stroke="#63b8ff" points="95.38,-42.89 105.85,-41.25 96.64,-36.01 95.38,-42.89"/>
</a>
</g>
</g>
<!-- Node5 -->
<g id="Node000005" class="node">
<title>Node5</title>
<g id="a_Node000005"><a xlink:href="../../d2/d87/non__preemptive__priority__scheduling_8c.html#a40e454ce0750e794007bf41a7102b3a9" target="_top" xlink:title="To length process queue.">
<polygon fill="white" stroke="#666666" points="263.62,-19.25 213.88,-19.25 213.88,0 263.62,0 263.62,-19.25"/>
<text xml:space="preserve" text-anchor="middle" x="238.75" y="-5.75" font-family="Helvetica,sans-Serif" font-size="10.00">l_length</text>
</a>
</g>
</g>
<!-- Node1&#45;&gt;Node5 -->
<g id="edge6_Node000001_Node000005" class="edge">
<title>Node1&#45;&gt;Node5</title>
<g id="a_edge6_Node000001_Node000005"><a xlink:title=" ">
<path fill="none" stroke="#63b8ff" d="M71.76,-25.32C108.4,-21.85 165.61,-16.44 202.38,-12.97"/>
<polygon fill="#63b8ff" stroke="#63b8ff" points="202.42,-16.48 212.04,-12.06 201.76,-9.51 202.42,-16.48"/>
</a>
</g>
</g>
<!-- Node3 -->
<g id="Node000003" class="node">
<title>Node3</title>
<g id="a_Node000003"><a xlink:href="../../d2/d87/non__preemptive__priority__scheduling_8c.html#a01b8ee561d8532a44d665c2c854e0d09" target="_top" xlink:title="To compare the priority of two processes based on their arrival time and priority.">
<polygon fill="white" stroke="#666666" points="265.5,-130.25 212,-130.25 212,-111 265.5,-111 265.5,-130.25"/>
<text xml:space="preserve" text-anchor="middle" x="238.75" y="-116.75" font-family="Helvetica,sans-Serif" font-size="10.00">compare</text>
</a>
</g>
</g>
<!-- Node2&#45;&gt;Node3 -->
<g id="edge2_Node000002_Node000003" class="edge">
<title>Node2&#45;&gt;Node3</title>
<g id="a_edge2_Node000002_Node000003"><a xlink:title=" ">
<path fill="none" stroke="#63b8ff" d="M154.83,-57.59C168.52,-68.79 191.57,-87.39 212,-102.62 212.67,-103.13 213.36,-103.63 214.05,-104.14"/>
<polygon fill="#63b8ff" stroke="#63b8ff" points="211.8,-106.84 221.97,-109.81 215.87,-101.14 211.8,-106.84"/>
</a>
</g>
</g>
<!-- Node4 -->
<g id="Node000004" class="node">
<title>Node4</title>
<g id="a_Node000004"><a xlink:href="../../d2/d87/non__preemptive__priority__scheduling_8c.html#a5d0943b2e0e1b48b9c3a575a7f262c36" target="_top" xlink:title="To insert a new process in the queue.">
<polygon fill="white" stroke="#666666" points="258.75,-93.25 218.75,-93.25 218.75,-74 258.75,-74 258.75,-93.25"/>
<text xml:space="preserve" text-anchor="middle" x="238.75" y="-79.75" font-family="Helvetica,sans-Serif" font-size="10.00">insert</text>
</a>
</g>
</g>
<!-- Node2&#45;&gt;Node4 -->
<g id="edge3_Node000002_Node000004" class="edge">
<title>Node2&#45;&gt;Node4</title>
<g id="a_edge3_Node000002_Node000004"><a xlink:title=" ">
<path fill="none" stroke="#63b8ff" d="M169.47,-57.75C181.4,-62.27 195.51,-67.62 207.8,-72.28"/>
<polygon fill="#63b8ff" stroke="#63b8ff" points="206.45,-75.51 217.04,-75.78 208.93,-68.96 206.45,-75.51"/>
</a>
</g>
</g>
<!-- Node2&#45;&gt;Node5 -->
<g id="edge4_Node000002_Node000005" class="edge">
<title>Node2&#45;&gt;Node5</title>
<g id="a_edge4_Node000002_Node000005"><a xlink:title=" ">
<path fill="none" stroke="#63b8ff" d="M167.71,-37.64C178.57,-33.3 191.47,-28.14 203.23,-23.43"/>
<polygon fill="#63b8ff" stroke="#63b8ff" points="204.22,-26.81 212.21,-19.84 201.62,-20.31 204.22,-26.81"/>
</a>
</g>
</g>
<!-- Node6 -->
<g id="Node000006" class="node">
<title>Node6</title>
<g id="a_Node000006"><a xlink:href="../../d2/d87/non__preemptive__priority__scheduling_8c.html#a9bc34d3b138bd0153a942cf6a8b31533" target="_top" xlink:title="To update the completion time, turn around time and waiting time of the processes.">
<polygon fill="white" stroke="#666666" points="261.38,-56.25 216.12,-56.25 216.12,-37 261.38,-37 261.38,-56.25"/>
<text xml:space="preserve" text-anchor="middle" x="238.75" y="-42.75" font-family="Helvetica,sans-Serif" font-size="10.00">update</text>
</a>
</g>
</g>
<!-- Node2&#45;&gt;Node6 -->
<g id="edge5_Node000002_Node000006" class="edge">
<title>Node2&#45;&gt;Node6</title>
<g id="a_edge5_Node000002_Node000006"><a xlink:title=" ">
<path fill="none" stroke="#63b8ff" d="M176.24,-47.27C185.38,-47.18 195.28,-47.07 204.41,-46.98"/>
<polygon fill="#63b8ff" stroke="#63b8ff" points="204.36,-50.48 214.32,-46.87 204.29,-43.48 204.36,-50.48"/>
</a>
</g>
</g>
</g>
</svg>
