<?xml version="1.0" encoding="UTF-8" standalone="no"?>
<!DOCTYPE svg PUBLIC "-//W3C//DTD SVG 1.1//EN"
 "http://www.w3.org/Graphics/SVG/1.1/DTD/svg11.dtd">
<!-- Generated by graphviz version 14.1.2 (20260124.0452)
 -->
<!-- Title: calculate_wt Pages: 1 -->
<svg width="273pt" height="138pt"
 viewBox="0.00 0.00 273.00 138.00" xmlns="http://www.w3.org/2000/svg" xmlns:xlink="http://www.w3.org/1999/xlink">
<g id="graph0" class="graph" transform="scale(1 1) rotate(0) translate(4 134.25)">
<title>calculate_wt</title>
<!-- Node1 -->
<g id="Node000001" class="node">
<title>Node1</title>
<g id="a_Node000001"><a xlink:title="To calculate the average waiting time of all the processes.">
<polygon fill="#999999" stroke="#666666" points="70.75,-38.25 0,-38.25 0,-19 70.75,-19 70.75,-38.25"/>
<text xml:space="preserve" text-anchor="middle" x="35.38" y="-24.75" font-family="Helvetica,sans-Serif" font-size="10.00">calculate_wt</text>
</a>
</g>
</g>
<!-- Node2 -->
<g id="Node000002" class="node">
<title>Node2</title>
<g id="a_Node000002"><a xlink:href="../../d2/d87/non__preemptive__priority__scheduling_8c.html#abbb2446313782dd3ba9ff2a7ad0ce1df" target="_top" xlink:title="To calculate the average completion time of all the processes.">
<polygon fill="white" stroke="#666666" points="175.25,-57.25 106.75,-57.25 106.75,-38 175.25,-38 175.25,-57.25"/>
<text xml:space="preserve" text-anchor="middle" x="141" y="-43.75" font-family="Helvetica,sans-Serif" font-size="10.00">calculate_ct</text>
</a>
</g>
</g>
<!-- Node1&#45;&gt;Node2 -->
<g id="edge1_Node000001_Node000002" class="edge">
<title>Node1&#45;&gt;Node2</title>
<g id="a_edge1_Node000001_Node000002"><a xlink:title=" ">
<path fill="none" stroke="#63b8ff" d="M71.17,-35C78.92,-36.43 87.25,-37.95 95.33,-39.44"/>
<polygon fill="#63b8ff" stroke="#63b8ff" points="94.57,-42.85 105.04,-41.21 95.83,-35.97 94.57,-42.85"/>
</a>
</g>
</g>
<!-- Node5 -->
<g id="Node000005" class="node">
<title>Node5</title>
<g id="a_Node000005"><a xlink:href="../../d2/d87/non__preemptive__priority__scheduling_8c.html#a40e454ce0750e794007bf41a7102b3a9" target="_top" xlink:title="To length process queue.">
<polygon fill="white" stroke="#666666" points="262.88,-19.25 213.12,-19.25 213.12,0 262.88,0 262.88,-19.25"/>
<text xml:space="preserve" text-anchor="middle" x="238" y="-5.75" font-family="Helvetica,sans-Serif" font-size="10.00">l_length</text>
</a>
</g>
</g>
<!-- Node1&#45;&gt;Node5 -->
<g id="edge6_Node000001_Node000005" class="edge">
<title>Node1&#45;&gt;Node5</title>
<g id="a_edge6_Node000001_Node000005"><a xlink:title=" ">
<path fill="none" stroke="#63b8ff" d="M70.86,-25.36C107.36,-21.9 164.66,-16.48 201.53,-12.98"/>
<polygon fill="#63b8ff" stroke="#63b8ff" points="201.59,-16.49 211.22,-12.07 200.93,-9.53 201.59,-16.49"/>
</a>
</g>
</g>
<!-- Node3 -->
<g id="Node000003" class="node">
<title>Node3</title>
<g id="a_Node000003"><a xlink:href="../../d2/d87/non__preemptive__priority__scheduling_8c.html#a01b8ee561d8532a44d665c2c854e0d09" target="_top" xlink:title="To compare the priority of two processes based on their arrival time and priority.">
<polygon fill="white" stroke="#666666" points="264.75,-130.25 211.25,-130.25 211.25,-111 264.75,-111 264.75,-130.25"/>
<text xml:space="preserve" text-anchor="middle" x="238" y="-116.75" font-family="Helvetica,sans-Serif" font-size="10.00">compare</text>
</a>
</g>
</g>
<!-- Node2&#45;&gt;Node3 -->
<g id="edge2_Node000002_Node000003" class="edge">
<title>Node2&#45;&gt;Node3</title>
<g id="a_edge2_Node000002_Node000003"><a xlink:title=" ">
<path fill="none" stroke="#63b8ff" d="M154.08,-57.59C167.77,-68.79 190.82,-87.39 211.25,-102.62 211.92,-103.13 212.61,-103.63 213.3,-104.14"/>
<polygon fill="#63b8ff" stroke="#63b8ff" points="211.05,-106.84 221.22,-109.81 215.12,-101.14 211.05,-106.84"/>
</a>
</g>
</g>
<!-- Node4 -->
<g id="Node000004" class="node">
<title>Node4</title>
<g id="a_Node000004"><a xlink:href="../../d2/d87/non__preemptive__priority__scheduling_8c.html#a5d0943b2e0e1b48b9c3a575a7f262c36" target="_top" xlink:title="To insert a new process in the queue.">
<polygon fill="white" stroke="#666666" points="258,-93.25 218,-93.25 218,-74 258,-74 258,-93.25"/>
<text xml:space="preserve" text-anchor="middle" x="238" y="-79.75" font-family="Helvetica,sans-Serif" font-size="10.00">insert</text>
</a>
</g>
</g>
<!-- Node2&#45;&gt;Node4 -->
<g id="edge3_Node000002_Node000004" class="edge">
<title>Node2&#45;&gt;Node4</title>
<g id="a_edge3_Node000002_Node000004"><a xlink:title=" ">
<path fill="none" stroke="#63b8ff" d="M168.72,-57.75C180.65,-62.27 194.76,-67.62 207.05,-72.28"/>
<polygon fill="#63b8ff" stroke="#63b8ff" points="205.7,-75.51 216.29,-75.78 208.18,-68.96 205.7,-75.51"/>
</a>
</g>
</g>
<!-- Node2&#45;&gt;Node5 -->
<g id="edge4_Node000002_Node000005" class="edge">
<title>Node2&#45;&gt;Node5</title>
<g id="a_edge4_Node000002_Node000005"><a xlink:title=" ">
<path fill="none" stroke="#63b8ff" d="M166.96,-37.64C177.82,-33.3 190.72,-28.14 202.48,-23.43"/>
<polygon fill="#63b8ff" stroke="#63b8ff" points="203.47,-26.81 211.46,-19.84 200.87,-20.31 203.47,-26.81"/>
</a>
</g>
</g>
<!-- Node6 -->
<g id="Node000006" class="node">
<title>Node6</title>
<g id="a_Node000006"><a xlink:href="../../d2/d87/non__preemptive__priority__scheduling_8c.html#a9bc34d3b138bd0153a942cf6a8b31533" target="_top" xlink:title="To update the completion time, turn around time and waiting time of the processes.">
<polygon fill="white" stroke="#666666" points="260.62,-56.25 215.38,-56.25 215.38,-37 260.62,-37 260.62,-56.25"/>
<text xml:space="preserve" text-anchor="middle" x="238" y="-42.75" font-family="Helvetica,sans-Serif" font-size="10.00">update</text>
</a>
</g>
</g>
<!-- Node2&#45;&gt;Node6 -->
<g id="edge5_Node000002_Node000006" class="edge">
<title>Node2&#45;&gt;Node6</title>
<g id="a_edge5_Node000002_Node000006"><a xlink:title=" ">
<path fill="none" stroke="#63b8ff" d="M175.49,-47.27C184.63,-47.18 194.53,-47.07 203.66,-46.98"/>
<polygon fill="#63b8ff" stroke="#63b8ff" points="203.61,-50.48 213.57,-46.87 203.54,-43.48 203.61,-50.48"/>
</a>
</g>
</g>
</g>
</svg>
