<?xml version="1.0" encoding="UTF-8" standalone="no"?>
<!DOCTYPE svg PUBLIC "-//W3C//DTD SVG 1.1//EN"
 "http://www.w3.org/Graphics/SVG/1.1/DTD/svg11.dtd">
<!-- Generated by graphviz version 14.1.2 (20260124.0452)
 -->
<!-- Title: main Pages: 1 -->
<svg width="336pt" height="119pt"
 viewBox="0.00 0.00 336.00 119.00" xmlns="http://www.w3.org/2000/svg" xmlns:xlink="http://www.w3.org/1999/xlink">
<g id="graph0" class="graph" transform="scale(1 1) rotate(0) translate(4 115.25)">
<title>main</title>
<!-- Node1 -->
<g id="Node000001" class="node">
<title>Node1</title>
<g id="a_Node000001"><a xlink:title="Main function.">
<polygon fill="#999999" stroke="#666666" points="37,-56.25 0,-56.25 0,-37 37,-37 37,-56.25"/>
<text xml:space="preserve" text-anchor="middle" x="18.5" y="-42.75" font-family="Helvetica,sans-Serif" font-size="10.00">main</text>
</a>
</g>
</g>
<!-- Node2 -->
<g id="Node000002" class="node">
<title>Node2</title>
<g id="a_Node000002"><a xlink:href="../../d5/df4/group__sudoku.html#ga702ff4f95dde780c7d04fcdd1021b6c1" target="_top" xlink:title="Print the matrix to stdout.">
<polygon fill="white" stroke="#666666" points="110,-111.25 75.25,-111.25 75.25,-92 110,-92 110,-111.25"/>
<text xml:space="preserve" text-anchor="middle" x="92.62" y="-97.75" font-family="Helvetica,sans-Serif" font-size="10.00">print</text>
</a>
</g>
</g>
<!-- Node1&#45;&gt;Node2 -->
<g id="edge1_Node000001_Node000002" class="edge">
<title>Node1&#45;&gt;Node2</title>
<g id="a_edge1_Node000001_Node000002"><a xlink:title=" ">
<path fill="none" stroke="#63b8ff" d="M32.73,-56.71C43,-64.54 57.46,-75.57 69.49,-84.74"/>
<polygon fill="#63b8ff" stroke="#63b8ff" points="67.2,-87.4 77.28,-90.68 71.45,-81.84 67.2,-87.4"/>
</a>
</g>
</g>
<!-- Node3 -->
<g id="Node000003" class="node">
<title>Node3</title>
<g id="a_Node000003"><a xlink:href="../../d5/df4/group__sudoku.html#gadfe0ed5085b4775d8fa00b434cc0fdfc" target="_top" xlink:title="Function to solve a partially filled sudoku matrix.">
<polygon fill="white" stroke="#666666" points="112.25,-56.25 73,-56.25 73,-37 112.25,-37 112.25,-56.25"/>
<text xml:space="preserve" text-anchor="middle" x="92.62" y="-42.75" font-family="Helvetica,sans-Serif" font-size="10.00">solve</text>
</a>
</g>
</g>
<!-- Node1&#45;&gt;Node3 -->
<g id="edge2_Node000001_Node000003" class="edge">
<title>Node1&#45;&gt;Node3</title>
<g id="a_edge2_Node000001_Node000003"><a xlink:title=" ">
<path fill="none" stroke="#63b8ff" d="M37.33,-46.62C44.56,-46.62 53.12,-46.62 61.28,-46.62"/>
<polygon fill="#63b8ff" stroke="#63b8ff" points="61.23,-50.13 71.23,-46.63 61.23,-43.13 61.23,-50.13"/>
</a>
</g>
</g>
<!-- Node9 -->
<g id="Node000009" class="node">
<title>Node9</title>
<g id="a_Node000009"><a xlink:href="../../de/dcf/rot13_8c.html#aa8dca7b867074164d5f45b0f3851269d" target="_top" xlink:title="Self&#45;test implementations.">
<polygon fill="white" stroke="#666666" points="108.88,-19.25 76.38,-19.25 76.38,0 108.88,0 108.88,-19.25"/>
<text xml:space="preserve" text-anchor="middle" x="92.62" y="-5.75" font-family="Helvetica,sans-Serif" font-size="10.00">test</text>
</a>
</g>
</g>
<!-- Node1&#45;&gt;Node9 -->
<g id="edge9_Node000001_Node000009" class="edge">
<title>Node1&#45;&gt;Node9</title>
<g id="a_edge9_Node000001_Node000009"><a xlink:title=" ">
<path fill="none" stroke="#63b8ff" d="M37.33,-37.48C45.94,-33.06 56.42,-27.68 65.88,-22.83"/>
<polygon fill="#63b8ff" stroke="#63b8ff" points="67.31,-26.03 74.61,-18.35 64.12,-19.8 67.31,-26.03"/>
</a>
</g>
</g>
<!-- Node3&#45;&gt;Node3 -->
<g id="edge8_Node000003_Node000003" class="edge">
<title>Node3&#45;&gt;Node3</title>
<g id="a_edge8_Node000003_Node000003"><a xlink:title=" ">
<path fill="none" stroke="#63b8ff" d="M81.02,-56.54C75.73,-65.15 79.6,-74.25 92.62,-74.25 99.75,-74.25 104.14,-71.53 105.78,-67.65"/>
<polygon fill="#63b8ff" stroke="#63b8ff" points="109.29,-67.46 104.44,-58.04 102.36,-68.43 109.29,-67.46"/>
</a>
</g>
</g>
<!-- Node4 -->
<g id="Node000004" class="node">
<title>Node4</title>
<g id="a_Node000004"><a xlink:href="../../d5/df4/group__sudoku.html#ga62e94fc39f116e2c81daed8f5437431b" target="_top" xlink:title="Find and get the location for next empty cell.">
<polygon fill="white" stroke="#666666" points="246,-93.25 148.25,-93.25 148.25,-74 246,-74 246,-93.25"/>
<text xml:space="preserve" text-anchor="middle" x="197.12" y="-79.75" font-family="Helvetica,sans-Serif" font-size="10.00">get_next_unknown</text>
</a>
</g>
</g>
<!-- Node3&#45;&gt;Node4 -->
<g id="edge3_Node000003_Node000004" class="edge">
<title>Node3&#45;&gt;Node4</title>
<g id="a_edge3_Node000003_Node000004"><a xlink:title=" ">
<path fill="none" stroke="#63b8ff" d="M112.43,-53.41C125.1,-57.99 142.28,-64.19 157.78,-69.78"/>
<polygon fill="#63b8ff" stroke="#63b8ff" points="156.15,-72.91 166.74,-73.02 158.52,-66.33 156.15,-72.91"/>
</a>
</g>
</g>
<!-- Node5 -->
<g id="Node000005" class="node">
<title>Node5</title>
<g id="a_Node000005"><a xlink:href="../../d5/df4/group__sudoku.html#ga3a0ec150ac9d0cb6b28279d36d95d72f" target="_top" xlink:title="Check if element v is valid to place at (x,y) location.">
<polygon fill="white" stroke="#666666" points="212.25,-56.25 182,-56.25 182,-37 212.25,-37 212.25,-56.25"/>
<text xml:space="preserve" text-anchor="middle" x="197.12" y="-42.75" font-family="Helvetica,sans-Serif" font-size="10.00">OK</text>
</a>
</g>
</g>
<!-- Node3&#45;&gt;Node5 -->
<g id="edge4_Node000003_Node000005" class="edge">
<title>Node3&#45;&gt;Node5</title>
<g id="a_edge4_Node000003_Node000005"><a xlink:title=" ">
<path fill="none" stroke="#63b8ff" d="M112.43,-46.62C128.67,-46.62 152.31,-46.62 170.33,-46.62"/>
<polygon fill="#63b8ff" stroke="#63b8ff" points="170.23,-50.13 180.23,-46.63 170.23,-43.13 170.23,-50.13"/>
</a>
</g>
</g>
<!-- Node6 -->
<g id="Node000006" class="node">
<title>Node6</title>
<g id="a_Node000006"><a xlink:href="../../d5/df4/group__sudoku.html#ga1cd43df3f4187845ce186042fe53e6f1" target="_top" xlink:title="Check if a 3x3 box is valid.">
<polygon fill="white" stroke="#666666" points="328,-93.25 282,-93.25 282,-74 328,-74 328,-93.25"/>
<text xml:space="preserve" text-anchor="middle" x="305" y="-79.75" font-family="Helvetica,sans-Serif" font-size="10.00">OKbox</text>
</a>
</g>
</g>
<!-- Node5&#45;&gt;Node6 -->
<g id="edge5_Node000005_Node000006" class="edge">
<title>Node5&#45;&gt;Node6</title>
<g id="a_edge5_Node000005_Node000006"><a xlink:title=" ">
<path fill="none" stroke="#63b8ff" d="M212.4,-51.61C227.38,-56.85 251.44,-65.26 271.15,-72.14"/>
<polygon fill="#63b8ff" stroke="#63b8ff" points="269.83,-75.39 280.42,-75.38 272.14,-68.78 269.83,-75.39"/>
</a>
</g>
</g>
<!-- Node7 -->
<g id="Node000007" class="node">
<title>Node7</title>
<g id="a_Node000007"><a xlink:href="../../d5/df4/group__sudoku.html#ga6503128d4f5ce0a0826f72f73f9e0b2a" target="_top" xlink:title="Check if y^th column is valid.">
<polygon fill="white" stroke="#666666" points="326.5,-56.25 283.5,-56.25 283.5,-37 326.5,-37 326.5,-56.25"/>
<text xml:space="preserve" text-anchor="middle" x="305" y="-42.75" font-family="Helvetica,sans-Serif" font-size="10.00">OKcol</text>
</a>
</g>
</g>
<!-- Node5&#45;&gt;Node7 -->
<g id="edge6_Node000005_Node000007" class="edge">
<title>Node5&#45;&gt;Node7</title>
<g id="a_edge6_Node000005_Node000007"><a xlink:title=" ">
<path fill="none" stroke="#63b8ff" d="M212.4,-46.62C227.53,-46.62 251.9,-46.62 271.71,-46.62"/>
<polygon fill="#63b8ff" stroke="#63b8ff" points="271.52,-50.13 281.52,-46.63 271.52,-43.13 271.52,-50.13"/>
</a>
</g>
</g>
<!-- Node8 -->
<g id="Node000008" class="node">
<title>Node8</title>
<g id="a_Node000008"><a xlink:href="../../d5/df4/group__sudoku.html#ga85d25d3b40017436f264a103685e4c55" target="_top" xlink:title="Check if x^th row is valid.">
<polygon fill="white" stroke="#666666" points="328,-19.25 282,-19.25 282,0 328,0 328,-19.25"/>
<text xml:space="preserve" text-anchor="middle" x="305" y="-5.75" font-family="Helvetica,sans-Serif" font-size="10.00">OKrow</text>
</a>
</g>
</g>
<!-- Node5&#45;&gt;Node8 -->
<g id="edge7_Node000005_Node000008" class="edge">
<title>Node5&#45;&gt;Node8</title>
<g id="a_edge7_Node000005_Node000008"><a xlink:title=" ">
<path fill="none" stroke="#63b8ff" d="M212.4,-41.64C227.38,-36.4 251.44,-27.99 271.15,-21.11"/>
<polygon fill="#63b8ff" stroke="#63b8ff" points="272.14,-24.47 280.42,-17.87 269.83,-17.86 272.14,-24.47"/>
</a>
</g>
</g>
<!-- Node10 -->
<g id="Node000010" class="node">
<title>Node10</title>
<g id="a_Node000010"><a xlink:href="../../de/dcf/rot13_8c.html#aff3bdb59af9eabba91420f23eb01718c" target="_top" xlink:title="for IO operations">
<polygon fill="white" stroke="#666666" points="216,-19.25 178.25,-19.25 178.25,0 216,0 216,-19.25"/>
<text xml:space="preserve" text-anchor="middle" x="197.12" y="-5.75" font-family="Helvetica,sans-Serif" font-size="10.00">rot13</text>
</a>
</g>
</g>
<!-- Node9&#45;&gt;Node10 -->
<g id="edge10_Node000009_Node000010" class="edge">
<title>Node9&#45;&gt;Node10</title>
<g id="a_edge10_Node000009_Node000010"><a xlink:title=" ">
<path fill="none" stroke="#63b8ff" d="M109.19,-9.62C124.35,-9.62 147.78,-9.62 166.5,-9.62"/>
<polygon fill="#63b8ff" stroke="#63b8ff" points="166.47,-13.13 176.47,-9.63 166.47,-6.13 166.47,-13.13"/>
</a>
</g>
</g>
</g>
</svg>
