<?xml version="1.0" encoding="UTF-8" standalone="no"?>
<!DOCTYPE svg PUBLIC "-//W3C//DTD SVG 1.1//EN"
 "http://www.w3.org/Graphics/SVG/1.1/DTD/svg11.dtd">
<!-- Generated by graphviz version 14.1.2 (20260124.0452)
 -->
<!-- Title: NFA Pages: 1 -->
<svg width="151pt" height="186pt"
 viewBox="0.00 0.00 151.00 186.00" xmlns="http://www.w3.org/2000/svg" xmlns:xlink="http://www.w3.org/1999/xlink">
<g id="graph0" class="graph" transform="scale(1 1) rotate(0) translate(4 181.5)">
<title>NFA</title>
<!-- Node1 -->
<g id="Node000001" class="node">
<title>Node1</title>
<g id="a_Node000001"><a xlink:title="Definition for the NFA itself.">
<polygon fill="#999999" stroke="#666666" points="36.25,-19.25 0,-19.25 0,0 36.25,0 36.25,-19.25"/>
<text xml:space="preserve" text-anchor="middle" x="18.12" y="-5.75" font-family="Helvetica,sans-Serif" font-size="10.00">NFA</text>
</a>
</g>
</g>
<!-- Node1&#45;&gt;Node1 -->
<g id="edge5_Node000001_Node000001" class="edge">
<title>Node1&#45;&gt;Node1</title>
<g id="a_edge5_Node000001_Node000001"><a xlink:title=" ">
<path fill="none" stroke="#9a32cd" stroke-dasharray="5,2" d="M48.02,-15.55C51.78,-14.5 54.25,-12.53 54.25,-9.62 54.25,-4.31 45.98,-2.12 36.71,-3.03"/>
<polygon fill="#9a32cd" stroke="#9a32cd" points="48,-12.04 38.22,-16.13 48.41,-19.03 48,-12.04"/>
</a>
</g>
<text xml:space="preserve" text-anchor="start" x="57.25" y="-5.75" font-family="Helvetica,sans-Serif" font-size="10.00" fill="grey">subs</text>
</g>
<!-- Node2 -->
<g id="Node000002" class="node">
<title>Node2</title>
<g id="a_Node000002"><a xlink:href="../../d4/d97/struct_n_f_a_state.html" target="_top" xlink:title="Definition for a NFA state.">
<polygon fill="white" stroke="#666666" points="89.88,-177.5 30.37,-177.5 30.37,-158.25 89.88,-158.25 89.88,-177.5"/>
<text xml:space="preserve" text-anchor="middle" x="60.12" y="-164" font-family="Helvetica,sans-Serif" font-size="10.00">NFAState</text>
</a>
</g>
</g>
<!-- Node2&#45;&gt;Node1 -->
<g id="edge1_Node000001_Node000002" class="edge">
<title>Node2&#45;&gt;Node1</title>
<g id="a_edge1_Node000001_Node000002"><a xlink:title=" ">
<path fill="none" stroke="#9a32cd" stroke-dasharray="5,2" d="M42.01,-150.27C30.89,-138.78 17.66,-122.48 11.62,-105 1.28,-75.04 10.23,-36.61 15.26,-19.51"/>
<polygon fill="#9a32cd" stroke="#9a32cd" points="39.27,-152.49 48.86,-156.98 44.17,-147.49 39.27,-152.49"/>
</a>
</g>
<text xml:space="preserve" text-anchor="start" x="14.62" y="-92.5" font-family="Helvetica,sans-Serif" font-size="10.00" fill="grey">currentStates</text>
<text xml:space="preserve" text-anchor="start" x="14.62" y="-77.25" font-family="Helvetica,sans-Serif" font-size="10.00" fill="grey">statePool</text>
</g>
<!-- Node3 -->
<g id="Node000003" class="node">
<title>Node3</title>
<g id="a_Node000003"><a xlink:href="../../d9/dd9/structtrans_rule.html" target="_top" xlink:title="Definition for a NFA state transition rule.">
<polygon fill="white" stroke="#666666" points="143.12,-98.38 85.12,-98.38 85.12,-79.12 143.12,-79.12 143.12,-98.38"/>
<text xml:space="preserve" text-anchor="middle" x="114.12" y="-84.88" font-family="Helvetica,sans-Serif" font-size="10.00">transRule</text>
</a>
</g>
</g>
<!-- Node2&#45;&gt;Node3 -->
<g id="edge3_Node000003_Node000002" class="edge">
<title>Node2&#45;&gt;Node3</title>
<g id="a_edge3_Node000003_Node000002"><a xlink:title=" ">
<path fill="none" stroke="#9a32cd" stroke-dasharray="5,2" d="M54.27,-146.64C53.13,-138.8 53.34,-130.04 57.38,-123 63.79,-111.8 75.6,-104.01 86.79,-98.8"/>
<polygon fill="#9a32cd" stroke="#9a32cd" points="50.84,-147.36 56.46,-156.34 57.67,-145.81 50.84,-147.36"/>
</a>
</g>
<text xml:space="preserve" text-anchor="start" x="60.38" y="-127.75" font-family="Helvetica,sans-Serif" font-size="10.00" fill="grey">target</text>
</g>
<!-- Node3&#45;&gt;Node1 -->
<g id="edge4_Node000001_Node000003" class="edge">
<title>Node3&#45;&gt;Node1</title>
<g id="a_edge4_Node000001_Node000003"><a xlink:title=" ">
<path fill="none" stroke="#9a32cd" stroke-dasharray="5,2" d="M94.35,-71.86C74.69,-56.07 45.23,-32.4 29.3,-19.61"/>
<polygon fill="#9a32cd" stroke="#9a32cd" points="91.94,-74.42 101.93,-77.95 96.33,-68.96 91.94,-74.42"/>
</a>
</g>
<text xml:space="preserve" text-anchor="start" x="74.87" y="-42" font-family="Helvetica,sans-Serif" font-size="10.00" fill="grey">rulePool</text>
</g>
<!-- Node3&#45;&gt;Node2 -->
<g id="edge2_Node000002_Node000003" class="edge">
<title>Node3&#45;&gt;Node2</title>
<g id="a_edge2_Node000002_Node000003"><a xlink:title=" ">
<path fill="none" stroke="#9a32cd" stroke-dasharray="5,2" d="M108.01,-109.38C104.35,-119.23 99.06,-131.01 92.12,-140.25 87.01,-147.07 79.81,-153.26 73.53,-157.95"/>
<polygon fill="#9a32cd" stroke="#9a32cd" points="111.27,-110.64 111.16,-100.05 104.64,-108.4 111.27,-110.64"/>
</a>
</g>
<text xml:space="preserve" text-anchor="start" x="105.09" y="-127.75" font-family="Helvetica,sans-Serif" font-size="10.00" fill="grey">rules</text>
</g>
</g>
</svg>
