<?xml version="1.0" encoding="UTF-8" standalone="no"?>
<!DOCTYPE svg PUBLIC "-//W3C//DTD SVG 1.1//EN"
 "http://www.w3.org/Graphics/SVG/1.1/DTD/svg11.dtd">
<!-- Generated by graphviz version 14.1.2 (20260124.0452)
 -->
<!-- Title: Graph Pages: 1 -->
<svg width="168pt" height="235pt"
 viewBox="0.00 0.00 168.00 235.00" xmlns="http://www.w3.org/2000/svg" xmlns:xlink="http://www.w3.org/1999/xlink">
<g id="graph0" class="graph" transform="scale(1 1) rotate(0) translate(4 231)">
<title>Graph</title>
<!-- Node1 -->
<g id="Node000001" class="node">
<title>Node1</title>
<g id="a_Node000001"><a xlink:title=" ">
<polygon fill="#999999" stroke="#666666" points="67.38,-19.25 25.12,-19.25 25.12,0 67.38,0 67.38,-19.25"/>
<text xml:space="preserve" text-anchor="middle" x="46.25" y="-5.75" font-family="Helvetica,sans-Serif" font-size="10.00">Graph</text>
</a>
</g>
</g>
<!-- Node2 -->
<g id="Node000002" class="node">
<title>Node2</title>
<g id="a_Node000002"><a xlink:href="../../d5/db4/struct_edge.html" target="_top" xlink:title=" ">
<polygon fill="white" stroke="#bfbfbf" points="38.5,-167 0,-167 0,-147.75 38.5,-147.75 38.5,-167"/>
<text xml:space="preserve" text-anchor="middle" x="19.25" y="-153.5" font-family="Helvetica,sans-Serif" font-size="10.00">Edge</text>
</a>
</g>
</g>
<!-- Node2&#45;&gt;Node1 -->
<g id="edge1_Node000001_Node000002" class="edge">
<title>Node2&#45;&gt;Node1</title>
<g id="a_edge1_Node000001_Node000002"><a xlink:title=" ">
<path fill="none" stroke="#9a32cd" stroke-dasharray="5,2" d="M14.92,-136.21C10.65,-111.76 6.53,-69.8 20,-37.25 22.88,-30.29 28.54,-24.17 33.87,-19.56"/>
<polygon fill="#9a32cd" stroke="#9a32cd" points="11.43,-136.62 16.78,-145.77 18.3,-135.28 11.43,-136.62"/>
</a>
</g>
<text xml:space="preserve" text-anchor="start" x="23" y="-57.25" font-family="Helvetica,sans-Serif" font-size="10.00" fill="grey">edge</text>
<text xml:space="preserve" text-anchor="start" x="23" y="-42" font-family="Helvetica,sans-Serif" font-size="10.00" fill="grey">edges</text>
</g>
<!-- Node3 -->
<g id="Node000003" class="node">
<title>Node3</title>
<g id="a_Node000003"><a xlink:href="../../d5/da1/structnode.html" target="_top" xlink:title="Node, the basic data structure in the tree.">
<polygon fill="white" stroke="#666666" points="93.75,-167 56.75,-167 56.75,-147.75 93.75,-147.75 93.75,-167"/>
<text xml:space="preserve" text-anchor="middle" x="75.25" y="-153.5" font-family="Helvetica,sans-Serif" font-size="10.00">node</text>
</a>
</g>
</g>
<!-- Node3&#45;&gt;Node1 -->
<g id="edge2_Node000001_Node000003" class="edge">
<title>Node3&#45;&gt;Node1</title>
<g id="a_edge2_Node000001_Node000003"><a xlink:title=" ">
<path fill="none" stroke="#9a32cd" stroke-dasharray="5,2" d="M71.59,-136.39C67.2,-112.7 59.52,-72.03 52.25,-37.25 51.01,-31.31 49.51,-24.66 48.32,-19.49"/>
<polygon fill="#9a32cd" stroke="#9a32cd" points="68.08,-136.7 73.34,-145.9 74.97,-135.43 68.08,-136.7"/>
</a>
</g>
<text xml:space="preserve" text-anchor="start" x="61.23" y="-49.62" font-family="Helvetica,sans-Serif" font-size="10.00" fill="grey">adjLists</text>
</g>
<!-- Node3&#45;&gt;Node3 -->
<g id="edge3_Node000003_Node000003" class="edge">
<title>Node3&#45;&gt;Node3</title>
<g id="a_edge3_Node000003_Node000003"><a xlink:title=" ">
<path fill="none" stroke="#9a32cd" stroke-dasharray="5,2" d="M89.86,-174.55C100.76,-180.55 111.75,-174.82 111.75,-157.38 111.75,-135.26 94.1,-131.98 81.35,-147.53"/>
<polygon fill="#9a32cd" stroke="#9a32cd" points="92.36,-172.08 82.5,-168.21 87.8,-177.39 92.36,-172.08"/>
</a>
</g>
<text xml:space="preserve" text-anchor="start" x="114.75" y="-214.5" font-family="Helvetica,sans-Serif" font-size="10.00" fill="grey">left</text>
<text xml:space="preserve" text-anchor="start" x="114.75" y="-199.25" font-family="Helvetica,sans-Serif" font-size="10.00" fill="grey">leftNode</text>
<text xml:space="preserve" text-anchor="start" x="114.75" y="-184" font-family="Helvetica,sans-Serif" font-size="10.00" fill="grey">link</text>
<text xml:space="preserve" text-anchor="start" x="114.75" y="-168.75" font-family="Helvetica,sans-Serif" font-size="10.00" fill="grey">next</text>
<text xml:space="preserve" text-anchor="start" x="114.75" y="-153.5" font-family="Helvetica,sans-Serif" font-size="10.00" fill="grey">par</text>
<text xml:space="preserve" text-anchor="start" x="114.75" y="-138.25" font-family="Helvetica,sans-Serif" font-size="10.00" fill="grey">pre</text>
<text xml:space="preserve" text-anchor="start" x="114.75" y="-123" font-family="Helvetica,sans-Serif" font-size="10.00" fill="grey">prev</text>
<text xml:space="preserve" text-anchor="start" x="114.75" y="-107.75" font-family="Helvetica,sans-Serif" font-size="10.00" fill="grey">right</text>
<text xml:space="preserve" text-anchor="start" x="114.75" y="-92.5" font-family="Helvetica,sans-Serif" font-size="10.00" fill="grey">rightNode</text>
</g>
</g>
</svg>
