<?xml version="1.0" encoding="UTF-8" standalone="no"?>
<!DOCTYPE svg PUBLIC "-//W3C//DTD SVG 1.1//EN"
 "http://www.w3.org/Graphics/SVG/1.1/DTD/svg11.dtd">
<!-- Generated by graphviz version 14.1.2 (20260124.0452)
 -->
<!-- Title: StockSpanner Pages: 1 -->
<svg width="128pt" height="115pt"
 viewBox="0.00 0.00 128.00 115.00" xmlns="http://www.w3.org/2000/svg" xmlns:xlink="http://www.w3.org/1999/xlink">
<g id="graph0" class="graph" transform="scale(1 1) rotate(0) translate(4 111)">
<title>StockSpanner</title>
<!-- Node1 -->
<g id="Node000001" class="node">
<title>Node1</title>
<g id="a_Node000001"><a xlink:title=" ">
<polygon fill="#999999" stroke="#666666" points="77.5,-19.25 0,-19.25 0,0 77.5,0 77.5,-19.25"/>
<text xml:space="preserve" text-anchor="middle" x="38.75" y="-5.75" font-family="Helvetica,sans-Serif" font-size="10.00">StockSpanner</text>
</a>
</g>
</g>
<!-- Node2 -->
<g id="Node000002" class="node">
<title>Node2</title>
<g id="a_Node000002"><a xlink:href="../../d4/d11/structstack.html" target="_top" xlink:title=" ">
<polygon fill="white" stroke="#bfbfbf" points="58.75,-107 18.75,-107 18.75,-87.75 58.75,-87.75 58.75,-107"/>
<text xml:space="preserve" text-anchor="middle" x="38.75" y="-93.5" font-family="Helvetica,sans-Serif" font-size="10.00">stack</text>
</a>
</g>
</g>
<!-- Node2&#45;&gt;Node1 -->
<g id="edge1_Node000001_Node000002" class="edge">
<title>Node2&#45;&gt;Node1</title>
<g id="a_edge1_Node000001_Node000002"><a xlink:title=" ">
<path fill="none" stroke="#9a32cd" stroke-dasharray="5,2" d="M38.75,-76.04C38.75,-58.11 38.75,-32.83 38.75,-19.56"/>
<polygon fill="#9a32cd" stroke="#9a32cd" points="35.25,-76.01 38.75,-86.01 42.25,-76.01 35.25,-76.01"/>
</a>
</g>
<text xml:space="preserve" text-anchor="start" x="41.75" y="-57.25" font-family="Helvetica,sans-Serif" font-size="10.00" fill="grey">sentry</text>
<text xml:space="preserve" text-anchor="start" x="41.75" y="-42" font-family="Helvetica,sans-Serif" font-size="10.00" fill="grey">stackPointer</text>
</g>
<!-- Node2&#45;&gt;Node2 -->
<g id="edge2_Node000002_Node000002" class="edge">
<title>Node2&#45;&gt;Node2</title>
<g id="a_edge2_Node000002_Node000002"><a xlink:title=" ">
<path fill="none" stroke="#9a32cd" stroke-dasharray="5,2" d="M70.51,-104.44C74.29,-103.15 76.75,-100.8 76.75,-97.38 76.75,-91.12 68.51,-88.43 59.08,-89.31"/>
<polygon fill="#9a32cd" stroke="#9a32cd" points="70.24,-100.95 60.59,-105.31 70.85,-107.92 70.24,-100.95"/>
</a>
</g>
<text xml:space="preserve" text-anchor="start" x="79.75" y="-93.5" font-family="Helvetica,sans-Serif" font-size="10.00" fill="grey">previous</text>
</g>
</g>
</svg>
