<?xml version="1.0" encoding="UTF-8" standalone="no"?>
<!DOCTYPE svg PUBLIC "-//W3C//DTD SVG 1.1//EN"
 "http://www.w3.org/Graphics/SVG/1.1/DTD/svg11.dtd">
<!-- Generated by graphviz version 14.1.2 (20260124.0452)
 -->
<!-- Title: transRule Pages: 1 -->
<svg width="72pt" height="100pt"
 viewBox="0.00 0.00 72.00 100.00" xmlns="http://www.w3.org/2000/svg" xmlns:xlink="http://www.w3.org/1999/xlink">

<svg id="main" version="1.1" xmlns="http://www.w3.org/2000/svg" xmlns:xlink="http://www.w3.org/1999/xlink" xml:space="preserve">

<style type="text/css"><![CDATA[
.node, .edge {opacity: 0.7;}
.node.selected, .edge.selected {opacity: 1;}
.edge:hover path { stroke: red; }
.edge:hover polygon { stroke: red; fill: red; }
]]></style>
<script type="application/ecmascript" xlink:href="../../svg.min.js"/>
<svg id="graph" class="graph">
<g id="graph0" class="graph" transform="scale(1 1) rotate(0) translate(4 95.75)">
<title>transRule</title>
<!-- Node1 -->
<g id="Node000001" class="node">
<title>Node1</title>
<g id="a_Node000001"><a xlink:title="Definition for a NFA state transition rule.">
<polygon fill="#999999" stroke="#666666" points="59.27,-91.75 1.27,-91.75 1.27,-72.5 59.27,-72.5 59.27,-91.75"/>
<text xml:space="preserve" text-anchor="middle" x="30.27" y="-78.25" font-family="Helvetica,sans-Serif" font-size="10.00">transRule</text>
</a>
</g>
</g>
<!-- Node2 -->
<g id="Node000002" class="node">
<title>Node2</title>
<g id="a_Node000002"><a xlink:href="../../d4/d97/struct_n_f_a_state.html" target="_top" xlink:title="Definition for a NFA state.">
<polygon fill="white" stroke="#666666" points="60.02,-19.25 0.52,-19.25 0.52,0 60.02,0 60.02,-19.25"/>
<text xml:space="preserve" text-anchor="middle" x="30.27" y="-5.75" font-family="Helvetica,sans-Serif" font-size="10.00">NFAState</text>
</a>
</g>
</g>
<!-- Node1&#45;&gt;Node2 -->
<g id="edge2_Node000002_Node000001" class="edge">
<title>Node1&#45;&gt;Node2</title>
<g id="a_edge2_Node000002_Node000001"><a xlink:title=" ">
<path fill="none" stroke="#9a32cd" stroke-dasharray="5,2" d="M8.55,-64.24C6,-61.28 3.77,-58.01 2.27,-54.5 -0.76,-47.45 -0.76,-44.3 2.27,-37.25 5.28,-30.22 11.16,-24.17 16.76,-19.63"/>
<polygon fill="#9a32cd" stroke="#9a32cd" points="6.03,-66.68 15.67,-71.08 10.88,-61.63 6.03,-66.68"/>
</a>
</g>
<text xml:space="preserve" text-anchor="start" x="5.27" y="-42" font-family="Helvetica,sans-Serif" font-size="10.00" fill="grey">rules</text>
</g>
<!-- Node2&#45;&gt;Node1 -->
<g id="edge1_Node000001_Node000002" class="edge">
<title>Node2&#45;&gt;Node1</title>
<g id="a_edge1_Node000001_Node000002"><a xlink:title=" ">
<path fill="none" stroke="#9a32cd" stroke-dasharray="5,2" d="M32.77,-30.67C32.97,-32.89 33.15,-35.11 33.27,-37.25 33.7,-44.9 33.7,-46.85 33.27,-54.5 32.93,-60.44 32.18,-67.1 31.52,-72.27"/>
<polygon fill="#9a32cd" stroke="#9a32cd" points="36.28,-30.53 31.69,-20.98 29.32,-31.31 36.28,-30.53"/>
</a>
</g>
<text xml:space="preserve" text-anchor="start" x="36.59" y="-42" font-family="Helvetica,sans-Serif" font-size="10.00" fill="grey">target</text>
</g>
</g>
</svg>
</svg>

<style type='text/css'>
<![CDATA[
[data-mouse-over-selected='false'] { opacity: 0.7; }
[data-mouse-over-selected='true']  { opacity: 1.0; }
]]>
</style>
<script type="application/ecmascript"><![CDATA[
document.addEventListener('DOMContentLoaded', (event) => {
  highlightEdges();
  highlightAdjacentNodes();
});
]]></script>
</svg>
