<?xml version="1.0" encoding="UTF-8" standalone="no"?>
<!DOCTYPE svg PUBLIC "-//W3C//DTD SVG 1.1//EN"
 "http://www.w3.org/Graphics/SVG/1.1/DTD/svg11.dtd">
<!-- Generated by graphviz version 14.1.2 (20260124.0452)
 -->
<!-- Title: main Pages: 1 -->
<svg width="286pt" height="175pt"
 viewBox="0.00 0.00 286.00 175.00" xmlns="http://www.w3.org/2000/svg" xmlns:xlink="http://www.w3.org/1999/xlink">
<g id="graph0" class="graph" transform="scale(1 1) rotate(0) translate(4 171.25)">
<title>main</title>
<!-- Node1 -->
<g id="Node000001" class="node">
<title>Node1</title>
<g id="a_Node000001"><a xlink:title="Main function.">
<polygon fill="#999999" stroke="#666666" points="37,-93.25 0,-93.25 0,-74 37,-74 37,-93.25"/>
<text xml:space="preserve" text-anchor="middle" x="18.5" y="-79.75" font-family="Helvetica,sans-Serif" font-size="10.00">main</text>
</a>
</g>
</g>
<!-- Node2 -->
<g id="Node000002" class="node">
<title>Node2</title>
<g id="a_Node000002"><a xlink:href="../../da/d96/infix__to__postfix2_8c.html#ae363a3863a8bfbf40e7a95c2b9dbe71b" target="_top" xlink:title="Function to convert infix expression to postfix expression.">
<polygon fill="white" stroke="#666666" points="189.75,-93.25 141.5,-93.25 141.5,-74 189.75,-74 189.75,-93.25"/>
<text xml:space="preserve" text-anchor="middle" x="165.62" y="-79.75" font-family="Helvetica,sans-Serif" font-size="10.00">convert</text>
</a>
</g>
</g>
<!-- Node1&#45;&gt;Node2 -->
<g id="edge1_Node000001_Node000002" class="edge">
<title>Node1&#45;&gt;Node2</title>
<g id="a_edge1_Node000001_Node000002"><a xlink:title=" ">
<path fill="none" stroke="#63b8ff" d="M37.3,-83.62C60.25,-83.62 100.67,-83.62 129.82,-83.62"/>
<polygon fill="#63b8ff" stroke="#63b8ff" points="129.64,-87.13 139.64,-83.63 129.64,-80.13 129.64,-87.13"/>
</a>
</g>
</g>
<!-- Node8 -->
<g id="Node000008" class="node">
<title>Node8</title>
<g id="a_Node000008"><a xlink:href="../../da/d96/infix__to__postfix2_8c.html#aa8dca7b867074164d5f45b0f3851269d" target="_top" xlink:title="Self&#45;test implementations.">
<polygon fill="white" stroke="#666666" points="105.5,-74.25 73,-74.25 73,-55 105.5,-55 105.5,-74.25"/>
<text xml:space="preserve" text-anchor="middle" x="89.25" y="-60.75" font-family="Helvetica,sans-Serif" font-size="10.00">test</text>
</a>
</g>
</g>
<!-- Node1&#45;&gt;Node8 -->
<g id="edge7_Node000001_Node000008" class="edge">
<title>Node1&#45;&gt;Node8</title>
<g id="a_edge7_Node000001_Node000008"><a xlink:title=" ">
<path fill="none" stroke="#63b8ff" d="M37.2,-78.73C44.67,-76.67 53.52,-74.22 61.73,-71.95"/>
<polygon fill="#63b8ff" stroke="#63b8ff" points="62.55,-75.36 71.25,-69.32 60.68,-68.61 62.55,-75.36"/>
</a>
</g>
</g>
<!-- Node3 -->
<g id="Node000003" class="node">
<title>Node3</title>
<g id="a_Node000003"><a xlink:href="../../da/d96/infix__to__postfix2_8c.html#a653c98c68c558505b75b04c44b7c838e" target="_top" xlink:title="Function to check whether the stack is empty or not.">
<polygon fill="white" stroke="#666666" points="277.75,-167.25 225.75,-167.25 225.75,-148 277.75,-148 277.75,-167.25"/>
<text xml:space="preserve" text-anchor="middle" x="251.75" y="-153.75" font-family="Helvetica,sans-Serif" font-size="10.00">isEmpty</text>
</a>
</g>
</g>
<!-- Node2&#45;&gt;Node3 -->
<g id="edge2_Node000002_Node000003" class="edge">
<title>Node2&#45;&gt;Node3</title>
<g id="a_edge2_Node000002_Node000003"><a xlink:title=" ">
<path fill="none" stroke="#63b8ff" d="M176.29,-93.56C187.7,-105.1 207.45,-124.49 225.75,-139.62 226.27,-140.05 226.79,-140.48 227.32,-140.91"/>
<polygon fill="#63b8ff" stroke="#63b8ff" points="224.94,-143.49 235.02,-146.75 229.17,-137.92 224.94,-143.49"/>
</a>
</g>
</g>
<!-- Node4 -->
<g id="Node000004" class="node">
<title>Node4</title>
<g id="a_Node000004"><a xlink:href="../../da/d96/infix__to__postfix2_8c.html#a312e7f6c761a199c1369fbe651e084f0" target="_top" xlink:title="Function to pop from the stack.">
<polygon fill="white" stroke="#666666" points="267.62,-130.25 235.88,-130.25 235.88,-111 267.62,-111 267.62,-130.25"/>
<text xml:space="preserve" text-anchor="middle" x="251.75" y="-116.75" font-family="Helvetica,sans-Serif" font-size="10.00">pop</text>
</a>
</g>
</g>
<!-- Node2&#45;&gt;Node4 -->
<g id="edge3_Node000002_Node000004" class="edge">
<title>Node2&#45;&gt;Node4</title>
<g id="a_edge3_Node000002_Node000004"><a xlink:title=" ">
<path fill="none" stroke="#63b8ff" d="M189.61,-93.74C200.56,-98.55 213.69,-104.33 224.97,-109.29"/>
<polygon fill="#63b8ff" stroke="#63b8ff" points="223.54,-112.48 234.11,-113.3 226.36,-106.07 223.54,-112.48"/>
</a>
</g>
</g>
<!-- Node5 -->
<g id="Node000005" class="node">
<title>Node5</title>
<g id="a_Node000005"><a xlink:href="../../da/d96/infix__to__postfix2_8c.html#a02d1bf0ff997efc46ba6fd0ec7952952" target="_top" xlink:title="Function to check priority of operators.">
<polygon fill="white" stroke="#666666" points="274.38,-93.25 229.12,-93.25 229.12,-74 274.38,-74 274.38,-93.25"/>
<text xml:space="preserve" text-anchor="middle" x="251.75" y="-79.75" font-family="Helvetica,sans-Serif" font-size="10.00">priority</text>
</a>
</g>
</g>
<!-- Node2&#45;&gt;Node5 -->
<g id="edge4_Node000002_Node000005" class="edge">
<title>Node2&#45;&gt;Node5</title>
<g id="a_edge4_Node000002_Node000005"><a xlink:title=" ">
<path fill="none" stroke="#63b8ff" d="M190.06,-83.62C198.6,-83.62 208.44,-83.62 217.66,-83.62"/>
<polygon fill="#63b8ff" stroke="#63b8ff" points="217.37,-87.13 227.37,-83.63 217.37,-80.13 217.37,-87.13"/>
</a>
</g>
</g>
<!-- Node6 -->
<g id="Node000006" class="node">
<title>Node6</title>
<g id="a_Node000006"><a xlink:href="../../da/d96/infix__to__postfix2_8c.html#a90e051f23f741be4f8ca86c270d66489" target="_top" xlink:title="Function to push on the stack.">
<polygon fill="white" stroke="#666666" points="270.25,-56.25 233.25,-56.25 233.25,-37 270.25,-37 270.25,-56.25"/>
<text xml:space="preserve" text-anchor="middle" x="251.75" y="-42.75" font-family="Helvetica,sans-Serif" font-size="10.00">push</text>
</a>
</g>
</g>
<!-- Node2&#45;&gt;Node6 -->
<g id="edge5_Node000002_Node000006" class="edge">
<title>Node2&#45;&gt;Node6</title>
<g id="a_edge5_Node000002_Node000006"><a xlink:title=" ">
<path fill="none" stroke="#63b8ff" d="M189.61,-73.51C199.72,-69.07 211.7,-63.8 222.36,-59.11"/>
<polygon fill="#63b8ff" stroke="#63b8ff" points="223.73,-62.33 231.47,-55.1 220.91,-55.93 223.73,-62.33"/>
</a>
</g>
</g>
<!-- Node7 -->
<g id="Node000007" class="node">
<title>Node7</title>
<g id="a_Node000007"><a xlink:href="../../da/d96/infix__to__postfix2_8c.html#a2d1c13296ce9c42bb5dd7d834e2802bf" target="_top" xlink:title="Function to get top of the stack.">
<polygon fill="white" stroke="#666666" points="267.62,-19.25 235.88,-19.25 235.88,0 267.62,0 267.62,-19.25"/>
<text xml:space="preserve" text-anchor="middle" x="251.75" y="-5.75" font-family="Helvetica,sans-Serif" font-size="10.00">Top</text>
</a>
</g>
</g>
<!-- Node2&#45;&gt;Node7 -->
<g id="edge6_Node000002_Node000007" class="edge">
<title>Node2&#45;&gt;Node7</title>
<g id="a_edge6_Node000002_Node000007"><a xlink:title=" ">
<path fill="none" stroke="#63b8ff" d="M176.29,-73.69C187.7,-62.15 207.45,-42.76 225.75,-27.62 226.27,-27.2 226.79,-26.77 227.32,-26.34"/>
<polygon fill="#63b8ff" stroke="#63b8ff" points="229.17,-29.33 235.02,-20.5 224.94,-23.76 229.17,-29.33"/>
</a>
</g>
</g>
<!-- Node8&#45;&gt;Node2 -->
<g id="edge8_Node000008_Node000002" class="edge">
<title>Node8&#45;&gt;Node2</title>
<g id="a_edge8_Node000008_Node000002"><a xlink:title=" ">
<path fill="none" stroke="#63b8ff" d="M105.66,-68.56C112.76,-70.38 121.5,-72.61 130.05,-74.79"/>
<polygon fill="#63b8ff" stroke="#63b8ff" points="129.01,-78.14 139.56,-77.22 130.74,-71.36 129.01,-78.14"/>
</a>
</g>
</g>
</g>
</svg>
