<?xml version="1.0" encoding="UTF-8" standalone="no"?>
<!DOCTYPE svg PUBLIC "-//W3C//DTD SVG 1.1//EN"
 "http://www.w3.org/Graphics/SVG/1.1/DTD/svg11.dtd">
<!-- Generated by graphviz version 14.1.2 (20260124.0452)
 -->
<!-- Title: test Pages: 1 -->
<svg width="213pt" height="175pt"
 viewBox="0.00 0.00 213.00 175.00" xmlns="http://www.w3.org/2000/svg" xmlns:xlink="http://www.w3.org/1999/xlink">

<svg id="main" version="1.1" xmlns="http://www.w3.org/2000/svg" xmlns:xlink="http://www.w3.org/1999/xlink" xml:space="preserve">

<style type="text/css"><![CDATA[
.node, .edge {opacity: 0.7;}
.node.selected, .edge.selected {opacity: 1;}
.edge:hover path { stroke: red; }
.edge:hover polygon { stroke: red; fill: red; }
]]></style>
<script type="application/ecmascript" xlink:href="../../svg.min.js"/>
<svg id="graph" class="graph">
<g id="graph0" class="graph" transform="scale(1 1) rotate(0) translate(4 171.25)">
<title>test</title>
<!-- Node1 -->
<g id="Node000001" class="node">
<title>Node1</title>
<g id="a_Node000001"><a xlink:title="Self&#45;test implementations.">
<polygon fill="#999999" stroke="#666666" points="32.5,-93.25 0,-93.25 0,-74 32.5,-74 32.5,-93.25"/>
<text xml:space="preserve" text-anchor="middle" x="16.25" y="-79.75" font-family="Helvetica,sans-Serif" font-size="10.00">test</text>
</a>
</g>
</g>
<!-- Node2 -->
<g id="Node000002" class="node">
<title>Node2</title>
<g id="a_Node000002"><a xlink:href="../../da/d96/infix__to__postfix2_8c.html#ae363a3863a8bfbf40e7a95c2b9dbe71b" target="_top" xlink:title="Function to convert infix expression to postfix expression.">
<polygon fill="white" stroke="#666666" points="116.75,-93.25 68.5,-93.25 68.5,-74 116.75,-74 116.75,-93.25"/>
<text xml:space="preserve" text-anchor="middle" x="92.62" y="-79.75" font-family="Helvetica,sans-Serif" font-size="10.00">convert</text>
</a>
</g>
</g>
<!-- Node1&#45;&gt;Node2 -->
<g id="edge1_Node000001_Node000002" class="edge">
<title>Node1&#45;&gt;Node2</title>
<g id="a_edge1_Node000001_Node000002"><a xlink:title=" ">
<path fill="none" stroke="#63b8ff" d="M32.66,-83.62C39.68,-83.62 48.3,-83.62 56.76,-83.62"/>
<polygon fill="#63b8ff" stroke="#63b8ff" points="56.51,-87.13 66.51,-83.63 56.51,-80.13 56.51,-87.13"/>
</a>
</g>
</g>
<!-- Node3 -->
<g id="Node000003" class="node">
<title>Node3</title>
<g id="a_Node000003"><a xlink:href="../../da/d96/infix__to__postfix2_8c.html#a653c98c68c558505b75b04c44b7c838e" target="_top" xlink:title="Function to check whether the stack is empty or not.">
<polygon fill="white" stroke="#666666" points="204.75,-167.25 152.75,-167.25 152.75,-148 204.75,-148 204.75,-167.25"/>
<text xml:space="preserve" text-anchor="middle" x="178.75" y="-153.75" font-family="Helvetica,sans-Serif" font-size="10.00">isEmpty</text>
</a>
</g>
</g>
<!-- Node2&#45;&gt;Node3 -->
<g id="edge2_Node000002_Node000003" class="edge">
<title>Node2&#45;&gt;Node3</title>
<g id="a_edge2_Node000002_Node000003"><a xlink:title=" ">
<path fill="none" stroke="#63b8ff" d="M103.29,-93.56C114.7,-105.1 134.45,-124.49 152.75,-139.62 153.27,-140.05 153.79,-140.48 154.32,-140.91"/>
<polygon fill="#63b8ff" stroke="#63b8ff" points="151.94,-143.49 162.02,-146.75 156.17,-137.92 151.94,-143.49"/>
</a>
</g>
</g>
<!-- Node4 -->
<g id="Node000004" class="node">
<title>Node4</title>
<g id="a_Node000004"><a xlink:href="../../da/d96/infix__to__postfix2_8c.html#a312e7f6c761a199c1369fbe651e084f0" target="_top" xlink:title="Function to pop from the stack.">
<polygon fill="white" stroke="#666666" points="194.62,-130.25 162.88,-130.25 162.88,-111 194.62,-111 194.62,-130.25"/>
<text xml:space="preserve" text-anchor="middle" x="178.75" y="-116.75" font-family="Helvetica,sans-Serif" font-size="10.00">pop</text>
</a>
</g>
</g>
<!-- Node2&#45;&gt;Node4 -->
<g id="edge3_Node000002_Node000004" class="edge">
<title>Node2&#45;&gt;Node4</title>
<g id="a_edge3_Node000002_Node000004"><a xlink:title=" ">
<path fill="none" stroke="#63b8ff" d="M116.61,-93.74C127.56,-98.55 140.69,-104.33 151.97,-109.29"/>
<polygon fill="#63b8ff" stroke="#63b8ff" points="150.54,-112.48 161.11,-113.3 153.36,-106.07 150.54,-112.48"/>
</a>
</g>
</g>
<!-- Node5 -->
<g id="Node000005" class="node">
<title>Node5</title>
<g id="a_Node000005"><a xlink:href="../../da/d96/infix__to__postfix2_8c.html#a02d1bf0ff997efc46ba6fd0ec7952952" target="_top" xlink:title="Function to check priority of operators.">
<polygon fill="white" stroke="#666666" points="201.38,-93.25 156.12,-93.25 156.12,-74 201.38,-74 201.38,-93.25"/>
<text xml:space="preserve" text-anchor="middle" x="178.75" y="-79.75" font-family="Helvetica,sans-Serif" font-size="10.00">priority</text>
</a>
</g>
</g>
<!-- Node2&#45;&gt;Node5 -->
<g id="edge4_Node000002_Node000005" class="edge">
<title>Node2&#45;&gt;Node5</title>
<g id="a_edge4_Node000002_Node000005"><a xlink:title=" ">
<path fill="none" stroke="#63b8ff" d="M117.06,-83.62C125.6,-83.62 135.44,-83.62 144.66,-83.62"/>
<polygon fill="#63b8ff" stroke="#63b8ff" points="144.37,-87.13 154.37,-83.63 144.37,-80.13 144.37,-87.13"/>
</a>
</g>
</g>
<!-- Node6 -->
<g id="Node000006" class="node">
<title>Node6</title>
<g id="a_Node000006"><a xlink:href="../../da/d96/infix__to__postfix2_8c.html#a90e051f23f741be4f8ca86c270d66489" target="_top" xlink:title="Function to push on the stack.">
<polygon fill="white" stroke="#666666" points="197.25,-56.25 160.25,-56.25 160.25,-37 197.25,-37 197.25,-56.25"/>
<text xml:space="preserve" text-anchor="middle" x="178.75" y="-42.75" font-family="Helvetica,sans-Serif" font-size="10.00">push</text>
</a>
</g>
</g>
<!-- Node2&#45;&gt;Node6 -->
<g id="edge5_Node000002_Node000006" class="edge">
<title>Node2&#45;&gt;Node6</title>
<g id="a_edge5_Node000002_Node000006"><a xlink:title=" ">
<path fill="none" stroke="#63b8ff" d="M116.61,-73.51C126.72,-69.07 138.7,-63.8 149.36,-59.11"/>
<polygon fill="#63b8ff" stroke="#63b8ff" points="150.73,-62.33 158.47,-55.1 147.91,-55.93 150.73,-62.33"/>
</a>
</g>
</g>
<!-- Node7 -->
<g id="Node000007" class="node">
<title>Node7</title>
<g id="a_Node000007"><a xlink:href="../../da/d96/infix__to__postfix2_8c.html#a2d1c13296ce9c42bb5dd7d834e2802bf" target="_top" xlink:title="Function to get top of the stack.">
<polygon fill="white" stroke="#666666" points="194.62,-19.25 162.88,-19.25 162.88,0 194.62,0 194.62,-19.25"/>
<text xml:space="preserve" text-anchor="middle" x="178.75" y="-5.75" font-family="Helvetica,sans-Serif" font-size="10.00">Top</text>
</a>
</g>
</g>
<!-- Node2&#45;&gt;Node7 -->
<g id="edge6_Node000002_Node000007" class="edge">
<title>Node2&#45;&gt;Node7</title>
<g id="a_edge6_Node000002_Node000007"><a xlink:title=" ">
<path fill="none" stroke="#63b8ff" d="M103.29,-73.69C114.7,-62.15 134.45,-42.76 152.75,-27.62 153.27,-27.2 153.79,-26.77 154.32,-26.34"/>
<polygon fill="#63b8ff" stroke="#63b8ff" points="156.17,-29.33 162.02,-20.5 151.94,-23.76 156.17,-29.33"/>
</a>
</g>
</g>
</g>
</svg>
</svg>

<style type='text/css'>
<![CDATA[
[data-mouse-over-selected='false'] { opacity: 0.7; }
[data-mouse-over-selected='true']  { opacity: 1.0; }
]]>
</style>
<script type="application/ecmascript"><![CDATA[
document.addEventListener('DOMContentLoaded', (event) => {
  highlightEdges();
  highlightAdjacentNodes();
});
]]></script>
</svg>
