<?xml version="1.0" encoding="UTF-8" standalone="no"?>
<!DOCTYPE svg PUBLIC "-//W3C//DTD SVG 1.1//EN"
 "http://www.w3.org/Graphics/SVG/1.1/DTD/svg11.dtd">
<!-- Generated by graphviz version 14.1.2 (20260124.0452)
 -->
<!-- Title: convert Pages: 1 -->
<svg width="144pt" height="175pt"
 viewBox="0.00 0.00 144.00 175.00" xmlns="http://www.w3.org/2000/svg" xmlns:xlink="http://www.w3.org/1999/xlink">
<g id="graph0" class="graph" transform="scale(1 1) rotate(0) translate(4 171.25)">
<title>convert</title>
<!-- Node1 -->
<g id="Node000001" class="node">
<title>Node1</title>
<g id="a_Node000001"><a xlink:title="Function to convert infix expression to postfix expression.">
<polygon fill="#999999" stroke="#666666" points="48.25,-93.25 0,-93.25 0,-74 48.25,-74 48.25,-93.25"/>
<text xml:space="preserve" text-anchor="middle" x="24.12" y="-79.75" font-family="Helvetica,sans-Serif" font-size="10.00">convert</text>
</a>
</g>
</g>
<!-- Node2 -->
<g id="Node000002" class="node">
<title>Node2</title>
<g id="a_Node000002"><a xlink:href="../../da/d96/infix__to__postfix2_8c.html#a653c98c68c558505b75b04c44b7c838e" target="_top" xlink:title="Function to check whether the stack is empty or not.">
<polygon fill="white" stroke="#666666" points="136.25,-167.25 84.25,-167.25 84.25,-148 136.25,-148 136.25,-167.25"/>
<text xml:space="preserve" text-anchor="middle" x="110.25" y="-153.75" font-family="Helvetica,sans-Serif" font-size="10.00">isEmpty</text>
</a>
</g>
</g>
<!-- Node1&#45;&gt;Node2 -->
<g id="edge1_Node000001_Node000002" class="edge">
<title>Node1&#45;&gt;Node2</title>
<g id="a_edge1_Node000001_Node000002"><a xlink:title=" ">
<path fill="none" stroke="#63b8ff" d="M34.79,-93.56C46.2,-105.1 65.95,-124.49 84.25,-139.62 84.77,-140.05 85.29,-140.48 85.82,-140.91"/>
<polygon fill="#63b8ff" stroke="#63b8ff" points="83.44,-143.49 93.52,-146.75 87.67,-137.92 83.44,-143.49"/>
</a>
</g>
</g>
<!-- Node3 -->
<g id="Node000003" class="node">
<title>Node3</title>
<g id="a_Node000003"><a xlink:href="../../da/d96/infix__to__postfix2_8c.html#a312e7f6c761a199c1369fbe651e084f0" target="_top" xlink:title="Function to pop from the stack.">
<polygon fill="white" stroke="#666666" points="126.12,-130.25 94.38,-130.25 94.38,-111 126.12,-111 126.12,-130.25"/>
<text xml:space="preserve" text-anchor="middle" x="110.25" y="-116.75" font-family="Helvetica,sans-Serif" font-size="10.00">pop</text>
</a>
</g>
</g>
<!-- Node1&#45;&gt;Node3 -->
<g id="edge2_Node000001_Node000003" class="edge">
<title>Node1&#45;&gt;Node3</title>
<g id="a_edge2_Node000001_Node000003"><a xlink:title=" ">
<path fill="none" stroke="#63b8ff" d="M48.11,-93.74C59.06,-98.55 72.19,-104.33 83.47,-109.29"/>
<polygon fill="#63b8ff" stroke="#63b8ff" points="82.04,-112.48 92.61,-113.3 84.86,-106.07 82.04,-112.48"/>
</a>
</g>
</g>
<!-- Node4 -->
<g id="Node000004" class="node">
<title>Node4</title>
<g id="a_Node000004"><a xlink:href="../../da/d96/infix__to__postfix2_8c.html#a02d1bf0ff997efc46ba6fd0ec7952952" target="_top" xlink:title="Function to check priority of operators.">
<polygon fill="white" stroke="#666666" points="132.88,-93.25 87.62,-93.25 87.62,-74 132.88,-74 132.88,-93.25"/>
<text xml:space="preserve" text-anchor="middle" x="110.25" y="-79.75" font-family="Helvetica,sans-Serif" font-size="10.00">priority</text>
</a>
</g>
</g>
<!-- Node1&#45;&gt;Node4 -->
<g id="edge3_Node000001_Node000004" class="edge">
<title>Node1&#45;&gt;Node4</title>
<g id="a_edge3_Node000001_Node000004"><a xlink:title=" ">
<path fill="none" stroke="#63b8ff" d="M48.56,-83.62C57.1,-83.62 66.94,-83.62 76.16,-83.62"/>
<polygon fill="#63b8ff" stroke="#63b8ff" points="75.87,-87.13 85.87,-83.63 75.87,-80.13 75.87,-87.13"/>
</a>
</g>
</g>
<!-- Node5 -->
<g id="Node000005" class="node">
<title>Node5</title>
<g id="a_Node000005"><a xlink:href="../../da/d96/infix__to__postfix2_8c.html#a90e051f23f741be4f8ca86c270d66489" target="_top" xlink:title="Function to push on the stack.">
<polygon fill="white" stroke="#666666" points="128.75,-56.25 91.75,-56.25 91.75,-37 128.75,-37 128.75,-56.25"/>
<text xml:space="preserve" text-anchor="middle" x="110.25" y="-42.75" font-family="Helvetica,sans-Serif" font-size="10.00">push</text>
</a>
</g>
</g>
<!-- Node1&#45;&gt;Node5 -->
<g id="edge4_Node000001_Node000005" class="edge">
<title>Node1&#45;&gt;Node5</title>
<g id="a_edge4_Node000001_Node000005"><a xlink:title=" ">
<path fill="none" stroke="#63b8ff" d="M48.11,-73.51C58.22,-69.07 70.2,-63.8 80.86,-59.11"/>
<polygon fill="#63b8ff" stroke="#63b8ff" points="82.23,-62.33 89.97,-55.1 79.41,-55.93 82.23,-62.33"/>
</a>
</g>
</g>
<!-- Node6 -->
<g id="Node000006" class="node">
<title>Node6</title>
<g id="a_Node000006"><a xlink:href="../../da/d96/infix__to__postfix2_8c.html#a2d1c13296ce9c42bb5dd7d834e2802bf" target="_top" xlink:title="Function to get top of the stack.">
<polygon fill="white" stroke="#666666" points="126.12,-19.25 94.38,-19.25 94.38,0 126.12,0 126.12,-19.25"/>
<text xml:space="preserve" text-anchor="middle" x="110.25" y="-5.75" font-family="Helvetica,sans-Serif" font-size="10.00">Top</text>
</a>
</g>
</g>
<!-- Node1&#45;&gt;Node6 -->
<g id="edge5_Node000001_Node000006" class="edge">
<title>Node1&#45;&gt;Node6</title>
<g id="a_edge5_Node000001_Node000006"><a xlink:title=" ">
<path fill="none" stroke="#63b8ff" d="M34.79,-73.69C46.2,-62.15 65.95,-42.76 84.25,-27.62 84.77,-27.2 85.29,-26.77 85.82,-26.34"/>
<polygon fill="#63b8ff" stroke="#63b8ff" points="87.67,-29.33 93.52,-20.5 83.44,-23.76 87.67,-29.33"/>
</a>
</g>
</g>
</g>
</svg>
