<?xml version="1.0" encoding="UTF-8" standalone="no"?>
<!DOCTYPE svg PUBLIC "-//W3C//DTD SVG 1.1//EN"
 "http://www.w3.org/Graphics/SVG/1.1/DTD/svg11.dtd">
<!-- Generated by graphviz version 14.1.2 (20260124.0452)
 -->
<!-- Title: main Pages: 1 -->
<svg width="225pt" height="64pt"
 viewBox="0.00 0.00 225.00 64.00" xmlns="http://www.w3.org/2000/svg" xmlns:xlink="http://www.w3.org/1999/xlink">

<svg id="main" version="1.1" xmlns="http://www.w3.org/2000/svg" xmlns:xlink="http://www.w3.org/1999/xlink" xml:space="preserve">

<style type="text/css"><![CDATA[
.node, .edge {opacity: 0.7;}
.node.selected, .edge.selected {opacity: 1;}
.edge:hover path { stroke: red; }
.edge:hover polygon { stroke: red; fill: red; }
]]></style>
<script type="application/ecmascript" xlink:href="../../svg.min.js"/>
<svg id="graph" class="graph">
<g id="graph0" class="graph" transform="scale(1 1) rotate(0) translate(4 60.25)">
<title>main</title>
<!-- Node1 -->
<g id="Node000001" class="node">
<title>Node1</title>
<g id="a_Node000001"><a xlink:title="Main function.">
<polygon fill="#999999" stroke="#666666" points="37,-37.25 0,-37.25 0,-18 37,-18 37,-37.25"/>
<text xml:space="preserve" text-anchor="middle" x="18.5" y="-23.75" font-family="Helvetica,sans-Serif" font-size="10.00">main</text>
</a>
</g>
</g>
<!-- Node2 -->
<g id="Node000002" class="node">
<title>Node2</title>
<g id="a_Node000002"><a xlink:href="../../d5/d4c/group__sorting.html#gab99b8a397bdd0bf2903d66c22ba4ba43" target="_top" xlink:title="Merge sort algorithm implementation.">
<polygon fill="white" stroke="#666666" points="137.75,-37.25 73,-37.25 73,-18 137.75,-18 137.75,-37.25"/>
<text xml:space="preserve" text-anchor="middle" x="105.38" y="-23.75" font-family="Helvetica,sans-Serif" font-size="10.00">merge_sort</text>
</a>
</g>
</g>
<!-- Node1&#45;&gt;Node2 -->
<g id="edge1_Node000001_Node000002" class="edge">
<title>Node1&#45;&gt;Node2</title>
<g id="a_edge1_Node000001_Node000002"><a xlink:title=" ">
<path fill="none" stroke="#63b8ff" d="M37.5,-27.62C44.53,-27.62 52.91,-27.62 61.32,-27.62"/>
<polygon fill="#63b8ff" stroke="#63b8ff" points="61.17,-31.13 71.17,-27.63 61.17,-24.13 61.17,-31.13"/>
</a>
</g>
</g>
<!-- Node2&#45;&gt;Node2 -->
<g id="edge3_Node000002_Node000002" class="edge">
<title>Node2&#45;&gt;Node2</title>
<g id="a_edge3_Node000002_Node000002"><a xlink:title=" ">
<path fill="none" stroke="#63b8ff" d="M91.77,-37.54C85.57,-46.15 90.1,-55.25 105.38,-55.25 113.73,-55.25 118.87,-52.53 120.8,-48.65"/>
<polygon fill="#63b8ff" stroke="#63b8ff" points="124.29,-48.33 119.22,-39.03 117.38,-49.47 124.29,-48.33"/>
</a>
</g>
</g>
<!-- Node3 -->
<g id="Node000003" class="node">
<title>Node3</title>
<g id="a_Node000003"><a xlink:href="../../d5/d4c/group__sorting.html#ga8dc3ec66cb3350313fdb34bfd1674729" target="_top" xlink:title="Perform merge of segments.">
<polygon fill="white" stroke="#666666" points="216.75,-56.25 173.75,-56.25 173.75,-37 216.75,-37 216.75,-56.25"/>
<text xml:space="preserve" text-anchor="middle" x="195.25" y="-42.75" font-family="Helvetica,sans-Serif" font-size="10.00">merge</text>
</a>
</g>
</g>
<!-- Node2&#45;&gt;Node3 -->
<g id="edge2_Node000002_Node000003" class="edge">
<title>Node2&#45;&gt;Node3</title>
<g id="a_edge2_Node000002_Node000003"><a xlink:title=" ">
<path fill="none" stroke="#63b8ff" d="M138.1,-34.48C145.96,-36.18 154.39,-38.01 162.26,-39.71"/>
<polygon fill="#63b8ff" stroke="#63b8ff" points="161.28,-43.08 171.79,-41.77 162.76,-36.23 161.28,-43.08"/>
</a>
</g>
</g>
<!-- Node4 -->
<g id="Node000004" class="node">
<title>Node4</title>
<g id="a_Node000004"><a xlink:href="../../d5/d4c/group__sorting.html#ga4b9708d87be7a409eff20e5e7e8b43c8" target="_top" xlink:title="Swap two integer variables.">
<polygon fill="white" stroke="#666666" points="214.88,-19.25 175.62,-19.25 175.62,0 214.88,0 214.88,-19.25"/>
<text xml:space="preserve" text-anchor="middle" x="195.25" y="-5.75" font-family="Helvetica,sans-Serif" font-size="10.00">swap</text>
</a>
</g>
</g>
<!-- Node2&#45;&gt;Node4 -->
<g id="edge4_Node000002_Node000004" class="edge">
<title>Node2&#45;&gt;Node4</title>
<g id="a_edge4_Node000002_Node000004"><a xlink:title=" ">
<path fill="none" stroke="#63b8ff" d="M138.1,-21.13C146.59,-19.39 155.73,-17.51 164.13,-15.79"/>
<polygon fill="#63b8ff" stroke="#63b8ff" points="164.78,-19.23 173.88,-13.8 163.38,-12.38 164.78,-19.23"/>
</a>
</g>
</g>
</g>
</svg>
</svg>

<style type='text/css'>
<![CDATA[
[data-mouse-over-selected='false'] { opacity: 0.7; }
[data-mouse-over-selected='true']  { opacity: 1.0; }
]]>
</style>
<script type="application/ecmascript"><![CDATA[
document.addEventListener('DOMContentLoaded', (event) => {
  highlightEdges();
  highlightAdjacentNodes();
});
]]></script>
</svg>
