<?xml version="1.0" encoding="UTF-8" standalone="no"?>
<!DOCTYPE svg PUBLIC "-//W3C//DTD SVG 1.1//EN"
 "http://www.w3.org/Graphics/SVG/1.1/DTD/svg11.dtd">
<!-- Generated by graphviz version 14.1.2 (20260124.0452)
 -->
<!-- Title: main Pages: 1 -->
<svg width="294pt" height="156pt"
 viewBox="0.00 0.00 294.00 156.00" xmlns="http://www.w3.org/2000/svg" xmlns:xlink="http://www.w3.org/1999/xlink">
<g id="graph0" class="graph" transform="scale(1 1) rotate(0) translate(4 152.25)">
<title>main</title>
<!-- Node1 -->
<g id="Node000001" class="node">
<title>Node1</title>
<g id="a_Node000001"><a xlink:title="Main function.">
<polygon fill="#999999" stroke="#666666" points="37,-101.25 0,-101.25 0,-82 37,-82 37,-101.25"/>
<text xml:space="preserve" text-anchor="middle" x="18.5" y="-87.75" font-family="Helvetica,sans-Serif" font-size="10.00">main</text>
</a>
</g>
</g>
<!-- Node2 -->
<g id="Node000002" class="node">
<title>Node2</title>
<g id="a_Node000002"><a xlink:href="../../dd/d29/doubly__linked__list_8c.html#afa2b50f4716fc3b42221a72e676e1422" target="_top" xlink:title="Example function.">
<polygon fill="white" stroke="#666666" points="125.75,-101.25 73,-101.25 73,-82 125.75,-82 125.75,-101.25"/>
<text xml:space="preserve" text-anchor="middle" x="99.38" y="-87.75" font-family="Helvetica,sans-Serif" font-size="10.00">example</text>
</a>
</g>
</g>
<!-- Node1&#45;&gt;Node2 -->
<g id="edge1_Node000001_Node000002" class="edge">
<title>Node1&#45;&gt;Node2</title>
<g id="a_edge1_Node000001_Node000002"><a xlink:title=" ">
<path fill="none" stroke="#63b8ff" d="M37.4,-91.62C44.5,-91.62 52.95,-91.62 61.27,-91.62"/>
<polygon fill="#63b8ff" stroke="#63b8ff" points="61.26,-95.13 71.26,-91.63 61.26,-88.13 61.26,-95.13"/>
</a>
</g>
</g>
<!-- Node3 -->
<g id="Node000003" class="node">
<title>Node3</title>
<g id="a_Node000003"><a xlink:href="../../dd/d29/doubly__linked__list_8c.html#a37890fb794cb2c436ffcc643c30ec57f" target="_top" xlink:title="Create list function, a new list containing one node will be created.">
<polygon fill="white" stroke="#666666" points="286,-148.25 243,-148.25 243,-129 286,-129 286,-148.25"/>
<text xml:space="preserve" text-anchor="middle" x="264.5" y="-134.75" font-family="Helvetica,sans-Serif" font-size="10.00">create</text>
</a>
</g>
</g>
<!-- Node2&#45;&gt;Node3 -->
<g id="edge2_Node000002_Node000003" class="edge">
<title>Node2&#45;&gt;Node3</title>
<g id="a_edge2_Node000002_Node000003"><a xlink:title=" ">
<path fill="none" stroke="#63b8ff" d="M109.18,-101.49C120.17,-112.98 140.14,-131.3 161.75,-138.62 184.13,-146.21 210.9,-145.87 231.36,-143.81"/>
<polygon fill="#63b8ff" stroke="#63b8ff" points="231.59,-147.31 241.1,-142.63 230.75,-140.36 231.59,-147.31"/>
</a>
</g>
</g>
<!-- Node4 -->
<g id="Node000004" class="node">
<title>Node4</title>
<g id="a_Node000004"><a xlink:href="../../dd/d29/doubly__linked__list_8c.html#a04ac29c396dc8335a5827927183c9918" target="_top" xlink:title="Insertion by position into the list function.">
<polygon fill="white" stroke="#666666" points="204.38,-129.25 164.38,-129.25 164.38,-110 204.38,-110 204.38,-129.25"/>
<text xml:space="preserve" text-anchor="middle" x="184.38" y="-115.75" font-family="Helvetica,sans-Serif" font-size="10.00">insert</text>
</a>
</g>
</g>
<!-- Node2&#45;&gt;Node4 -->
<g id="edge3_Node000002_Node000004" class="edge">
<title>Node2&#45;&gt;Node4</title>
<g id="a_edge3_Node000002_Node000004"><a xlink:title=" ">
<path fill="none" stroke="#63b8ff" d="M126.18,-100.33C134.75,-103.22 144.36,-106.46 153.22,-109.45"/>
<polygon fill="#63b8ff" stroke="#63b8ff" points="151.89,-112.7 162.48,-112.58 154.12,-106.06 151.89,-112.7"/>
</a>
</g>
</g>
<!-- Node5 -->
<g id="Node000005" class="node">
<title>Node5</title>
<g id="a_Node000005"><a xlink:href="../../dd/d29/doubly__linked__list_8c.html#a1fadec32fc369a8dcfbcd766e166efa0" target="_top" xlink:title="Print list function.">
<polygon fill="white" stroke="#666666" points="201.75,-74.25 167,-74.25 167,-55 201.75,-55 201.75,-74.25"/>
<text xml:space="preserve" text-anchor="middle" x="184.38" y="-60.75" font-family="Helvetica,sans-Serif" font-size="10.00">print</text>
</a>
</g>
</g>
<!-- Node2&#45;&gt;Node5 -->
<g id="edge5_Node000002_Node000005" class="edge">
<title>Node2&#45;&gt;Node5</title>
<g id="a_edge5_Node000002_Node000005"><a xlink:title=" ">
<path fill="none" stroke="#63b8ff" d="M126.18,-83.23C135.59,-80.17 146.25,-76.7 155.81,-73.59"/>
<polygon fill="#63b8ff" stroke="#63b8ff" points="156.88,-76.92 165.31,-70.5 154.71,-70.27 156.88,-76.92"/>
</a>
</g>
</g>
<!-- Node6 -->
<g id="Node000006" class="node">
<title>Node6</title>
<g id="a_Node000006"><a xlink:href="../../dd/d29/doubly__linked__list_8c.html#aedd04074dbc6af0de89051f97209311b" target="_top" xlink:title="Search value into the list function.">
<polygon fill="white" stroke="#666666" points="207,-19.25 161.75,-19.25 161.75,0 207,0 207,-19.25"/>
<text xml:space="preserve" text-anchor="middle" x="184.38" y="-5.75" font-family="Helvetica,sans-Serif" font-size="10.00">search</text>
</a>
</g>
</g>
<!-- Node2&#45;&gt;Node6 -->
<g id="edge7_Node000002_Node000006" class="edge">
<title>Node2&#45;&gt;Node6</title>
<g id="a_edge7_Node000002_Node000006"><a xlink:title=" ">
<path fill="none" stroke="#63b8ff" d="M110.55,-81.57C124.19,-68.1 148.62,-43.96 165.4,-27.39"/>
<polygon fill="#63b8ff" stroke="#63b8ff" points="167.64,-30.09 172.3,-20.57 162.72,-25.11 167.64,-30.09"/>
</a>
</g>
</g>
<!-- Node4&#45;&gt;Node3 -->
<g id="edge4_Node000004_Node000003" class="edge">
<title>Node4&#45;&gt;Node3</title>
<g id="a_edge4_Node000004_Node000003"><a xlink:title=" ">
<path fill="none" stroke="#63b8ff" d="M204.69,-124.32C212.82,-126.3 222.5,-128.65 231.64,-130.88"/>
<polygon fill="#63b8ff" stroke="#63b8ff" points="230.75,-134.26 241.3,-133.23 232.41,-127.46 230.75,-134.26"/>
</a>
</g>
</g>
<!-- Node5&#45;&gt;Node5 -->
<g id="edge6_Node000005_Node000005" class="edge">
<title>Node5&#45;&gt;Node5</title>
<g id="a_edge6_Node000005_Node000005"><a xlink:title=" ">
<path fill="none" stroke="#63b8ff" d="M171.83,-74.54C166.11,-83.15 170.29,-92.25 184.38,-92.25 192.08,-92.25 196.82,-89.53 198.6,-85.65"/>
<polygon fill="#63b8ff" stroke="#63b8ff" points="202.1,-85.4 197.14,-76.03 195.18,-86.45 202.1,-85.4"/>
</a>
</g>
</g>
<!-- Node6&#45;&gt;Node6 -->
<g id="edge8_Node000006_Node000006" class="edge">
<title>Node6&#45;&gt;Node6</title>
<g id="a_edge8_Node000006_Node000006"><a xlink:title=" ">
<path fill="none" stroke="#63b8ff" d="M171.83,-19.54C166.11,-28.15 170.29,-37.25 184.38,-37.25 192.08,-37.25 196.82,-34.53 198.6,-30.65"/>
<polygon fill="#63b8ff" stroke="#63b8ff" points="202.1,-30.4 197.14,-21.03 195.18,-31.45 202.1,-30.4"/>
</a>
</g>
</g>
</g>
</svg>
