<?xml version="1.0" encoding="UTF-8" standalone="no"?>
<!DOCTYPE svg PUBLIC "-//W3C//DTD SVG 1.1//EN"
 "http://www.w3.org/Graphics/SVG/1.1/DTD/svg11.dtd">
<!-- Generated by graphviz version 14.1.2 (20260124.0452)
 -->
<!-- Title: example Pages: 1 -->
<svg width="221pt" height="156pt"
 viewBox="0.00 0.00 221.00 156.00" xmlns="http://www.w3.org/2000/svg" xmlns:xlink="http://www.w3.org/1999/xlink">
<g id="graph0" class="graph" transform="scale(1 1) rotate(0) translate(4 152.25)">
<title>example</title>
<!-- Node1 -->
<g id="Node000001" class="node">
<title>Node1</title>
<g id="a_Node000001"><a xlink:title="Example function.">
<polygon fill="#999999" stroke="#666666" points="52.75,-101.25 0,-101.25 0,-82 52.75,-82 52.75,-101.25"/>
<text xml:space="preserve" text-anchor="middle" x="26.38" y="-87.75" font-family="Helvetica,sans-Serif" font-size="10.00">example</text>
</a>
</g>
</g>
<!-- Node2 -->
<g id="Node000002" class="node">
<title>Node2</title>
<g id="a_Node000002"><a xlink:href="../../dd/d29/doubly__linked__list_8c.html#a37890fb794cb2c436ffcc643c30ec57f" target="_top" xlink:title="Create list function, a new list containing one node will be created.">
<polygon fill="white" stroke="#666666" points="213,-148.25 170,-148.25 170,-129 213,-129 213,-148.25"/>
<text xml:space="preserve" text-anchor="middle" x="191.5" y="-134.75" font-family="Helvetica,sans-Serif" font-size="10.00">create</text>
</a>
</g>
</g>
<!-- Node1&#45;&gt;Node2 -->
<g id="edge1_Node000001_Node000002" class="edge">
<title>Node1&#45;&gt;Node2</title>
<g id="a_edge1_Node000001_Node000002"><a xlink:title=" ">
<path fill="none" stroke="#63b8ff" d="M36.18,-101.49C47.17,-112.98 67.14,-131.3 88.75,-138.62 111.13,-146.21 137.9,-145.87 158.36,-143.81"/>
<polygon fill="#63b8ff" stroke="#63b8ff" points="158.59,-147.31 168.1,-142.63 157.75,-140.36 158.59,-147.31"/>
</a>
</g>
</g>
<!-- Node3 -->
<g id="Node000003" class="node">
<title>Node3</title>
<g id="a_Node000003"><a xlink:href="../../dd/d29/doubly__linked__list_8c.html#a04ac29c396dc8335a5827927183c9918" target="_top" xlink:title="Insertion by position into the list function.">
<polygon fill="white" stroke="#666666" points="131.38,-129.25 91.38,-129.25 91.38,-110 131.38,-110 131.38,-129.25"/>
<text xml:space="preserve" text-anchor="middle" x="111.38" y="-115.75" font-family="Helvetica,sans-Serif" font-size="10.00">insert</text>
</a>
</g>
</g>
<!-- Node1&#45;&gt;Node3 -->
<g id="edge2_Node000001_Node000003" class="edge">
<title>Node1&#45;&gt;Node3</title>
<g id="a_edge2_Node000001_Node000003"><a xlink:title=" ">
<path fill="none" stroke="#63b8ff" d="M53.18,-100.33C61.75,-103.22 71.36,-106.46 80.22,-109.45"/>
<polygon fill="#63b8ff" stroke="#63b8ff" points="78.89,-112.7 89.48,-112.58 81.12,-106.06 78.89,-112.7"/>
</a>
</g>
</g>
<!-- Node4 -->
<g id="Node000004" class="node">
<title>Node4</title>
<g id="a_Node000004"><a xlink:href="../../dd/d29/doubly__linked__list_8c.html#a1fadec32fc369a8dcfbcd766e166efa0" target="_top" xlink:title="Print list function.">
<polygon fill="white" stroke="#666666" points="128.75,-74.25 94,-74.25 94,-55 128.75,-55 128.75,-74.25"/>
<text xml:space="preserve" text-anchor="middle" x="111.38" y="-60.75" font-family="Helvetica,sans-Serif" font-size="10.00">print</text>
</a>
</g>
</g>
<!-- Node1&#45;&gt;Node4 -->
<g id="edge4_Node000001_Node000004" class="edge">
<title>Node1&#45;&gt;Node4</title>
<g id="a_edge4_Node000001_Node000004"><a xlink:title=" ">
<path fill="none" stroke="#63b8ff" d="M53.18,-83.23C62.59,-80.17 73.25,-76.7 82.81,-73.59"/>
<polygon fill="#63b8ff" stroke="#63b8ff" points="83.88,-76.92 92.31,-70.5 81.71,-70.27 83.88,-76.92"/>
</a>
</g>
</g>
<!-- Node5 -->
<g id="Node000005" class="node">
<title>Node5</title>
<g id="a_Node000005"><a xlink:href="../../dd/d29/doubly__linked__list_8c.html#aedd04074dbc6af0de89051f97209311b" target="_top" xlink:title="Search value into the list function.">
<polygon fill="white" stroke="#666666" points="134,-19.25 88.75,-19.25 88.75,0 134,0 134,-19.25"/>
<text xml:space="preserve" text-anchor="middle" x="111.38" y="-5.75" font-family="Helvetica,sans-Serif" font-size="10.00">search</text>
</a>
</g>
</g>
<!-- Node1&#45;&gt;Node5 -->
<g id="edge6_Node000001_Node000005" class="edge">
<title>Node1&#45;&gt;Node5</title>
<g id="a_edge6_Node000001_Node000005"><a xlink:title=" ">
<path fill="none" stroke="#63b8ff" d="M37.55,-81.57C51.19,-68.1 75.62,-43.96 92.4,-27.39"/>
<polygon fill="#63b8ff" stroke="#63b8ff" points="94.64,-30.09 99.3,-20.57 89.72,-25.11 94.64,-30.09"/>
</a>
</g>
</g>
<!-- Node3&#45;&gt;Node2 -->
<g id="edge3_Node000003_Node000002" class="edge">
<title>Node3&#45;&gt;Node2</title>
<g id="a_edge3_Node000003_Node000002"><a xlink:title=" ">
<path fill="none" stroke="#63b8ff" d="M131.69,-124.32C139.82,-126.3 149.5,-128.65 158.64,-130.88"/>
<polygon fill="#63b8ff" stroke="#63b8ff" points="157.75,-134.26 168.3,-133.23 159.41,-127.46 157.75,-134.26"/>
</a>
</g>
</g>
<!-- Node4&#45;&gt;Node4 -->
<g id="edge5_Node000004_Node000004" class="edge">
<title>Node4&#45;&gt;Node4</title>
<g id="a_edge5_Node000004_Node000004"><a xlink:title=" ">
<path fill="none" stroke="#63b8ff" d="M98.83,-74.54C93.11,-83.15 97.29,-92.25 111.38,-92.25 119.08,-92.25 123.82,-89.53 125.6,-85.65"/>
<polygon fill="#63b8ff" stroke="#63b8ff" points="129.1,-85.4 124.14,-76.03 122.18,-86.45 129.1,-85.4"/>
</a>
</g>
</g>
<!-- Node5&#45;&gt;Node5 -->
<g id="edge7_Node000005_Node000005" class="edge">
<title>Node5&#45;&gt;Node5</title>
<g id="a_edge7_Node000005_Node000005"><a xlink:title=" ">
<path fill="none" stroke="#63b8ff" d="M98.83,-19.54C93.11,-28.15 97.29,-37.25 111.38,-37.25 119.08,-37.25 123.82,-34.53 125.6,-30.65"/>
<polygon fill="#63b8ff" stroke="#63b8ff" points="129.1,-30.4 124.14,-21.03 122.18,-31.45 129.1,-30.4"/>
</a>
</g>
</g>
</g>
</svg>
