<?xml version="1.0" encoding="UTF-8" standalone="no"?>
<!DOCTYPE svg PUBLIC "-//W3C//DTD SVG 1.1//EN"
 "http://www.w3.org/Graphics/SVG/1.1/DTD/svg11.dtd">
<!-- Generated by graphviz version 14.1.2 (20260124.0452)
 -->
<!-- Title: test Pages: 1 -->
<svg width="265pt" height="249pt"
 viewBox="0.00 0.00 265.00 249.00" xmlns="http://www.w3.org/2000/svg" xmlns:xlink="http://www.w3.org/1999/xlink">
<g id="graph0" class="graph" transform="scale(1 1) rotate(0) translate(4 245.25)">
<title>test</title>
<!-- Node1 -->
<g id="Node000001" class="node">
<title>Node1</title>
<g id="a_Node000001"><a xlink:title="Self&#45;test implementations.">
<polygon fill="#999999" stroke="#666666" points="32.5,-130.25 0,-130.25 0,-111 32.5,-111 32.5,-130.25"/>
<text xml:space="preserve" text-anchor="middle" x="16.25" y="-116.75" font-family="Helvetica,sans-Serif" font-size="10.00">test</text>
</a>
</g>
</g>
<!-- Node2 -->
<g id="Node000002" class="node">
<title>Node2</title>
<g id="a_Node000002"><a xlink:href="../../d5/d24/dynamic__stack_8c.html#ab628a00140af56945b3f514cef0b3da0" target="_top" xlink:title="Create a Stack object.">
<polygon fill="white" stroke="#666666" points="145.25,-241.25 73,-241.25 73,-222 145.25,-222 145.25,-241.25"/>
<text xml:space="preserve" text-anchor="middle" x="109.12" y="-227.75" font-family="Helvetica,sans-Serif" font-size="10.00">create_stack</text>
</a>
</g>
</g>
<!-- Node1&#45;&gt;Node2 -->
<g id="edge1_Node000001_Node000002" class="edge">
<title>Node1&#45;&gt;Node2</title>
<g id="a_edge1_Node000001_Node000002"><a xlink:title=" ">
<path fill="none" stroke="#63b8ff" d="M20.39,-130.65C26.68,-149.29 42.52,-189.58 68.5,-213.62 69.12,-214.2 69.77,-214.76 70.43,-215.31"/>
<polygon fill="#63b8ff" stroke="#63b8ff" points="68.33,-218.11 78.6,-220.71 72.19,-212.27 68.33,-218.11"/>
</a>
</g>
</g>
<!-- Node3 -->
<g id="Node000003" class="node">
<title>Node3</title>
<g id="a_Node000003"><a xlink:href="../../d5/d24/dynamic__stack_8c.html#a0eebbddad64a35d337093293466e26a1" target="_top" xlink:title="The function is used to check whether the stack is empty or not and return true or false accordingly.">
<polygon fill="white" stroke="#666666" points="134.38,-204.25 83.88,-204.25 83.88,-185 134.38,-185 134.38,-204.25"/>
<text xml:space="preserve" text-anchor="middle" x="109.12" y="-190.75" font-family="Helvetica,sans-Serif" font-size="10.00">isempty</text>
</a>
</g>
</g>
<!-- Node1&#45;&gt;Node3 -->
<g id="edge2_Node000001_Node000003" class="edge">
<title>Node1&#45;&gt;Node3</title>
<g id="a_edge2_Node000001_Node000003"><a xlink:title=" ">
<path fill="none" stroke="#63b8ff" d="M24.26,-130.45C33.33,-142.61 50.16,-163.31 68.5,-176.62 70.06,-177.75 71.69,-178.84 73.38,-179.87"/>
<polygon fill="#63b8ff" stroke="#63b8ff" points="71.58,-182.88 82.05,-184.53 74.9,-176.71 71.58,-182.88"/>
</a>
</g>
</g>
<!-- Node4 -->
<g id="Node000004" class="node">
<title>Node4</title>
<g id="a_Node000004"><a xlink:href="../../d5/d24/dynamic__stack_8c.html#a68471e91db2e62acd584744c24a09a4f" target="_top" xlink:title="To retrieve or fetch the first element of the Stack or the element present at the top of the Stack.">
<polygon fill="white" stroke="#666666" points="127.62,-167.25 90.62,-167.25 90.62,-148 127.62,-148 127.62,-167.25"/>
<text xml:space="preserve" text-anchor="middle" x="109.12" y="-153.75" font-family="Helvetica,sans-Serif" font-size="10.00">peek</text>
</a>
</g>
</g>
<!-- Node1&#45;&gt;Node4 -->
<g id="edge3_Node000001_Node000004" class="edge">
<title>Node1&#45;&gt;Node4</title>
<g id="a_edge3_Node000001_Node000004"><a xlink:title=" ">
<path fill="none" stroke="#63b8ff" d="M32.67,-126.9C45.46,-132.11 64,-139.66 79.51,-145.97"/>
<polygon fill="#63b8ff" stroke="#63b8ff" points="78.15,-149.2 88.73,-149.73 80.79,-142.72 78.15,-149.2"/>
</a>
</g>
</g>
<!-- Node5 -->
<g id="Node000005" class="node">
<title>Node5</title>
<g id="a_Node000005"><a xlink:href="../../da/d96/infix__to__postfix2_8c.html#a312e7f6c761a199c1369fbe651e084f0" target="_top" xlink:title="Function to pop from the stack.">
<polygon fill="white" stroke="#666666" points="125,-130.25 93.25,-130.25 93.25,-111 125,-111 125,-130.25"/>
<text xml:space="preserve" text-anchor="middle" x="109.12" y="-116.75" font-family="Helvetica,sans-Serif" font-size="10.00">pop</text>
</a>
</g>
</g>
<!-- Node1&#45;&gt;Node5 -->
<g id="edge4_Node000001_Node000005" class="edge">
<title>Node1&#45;&gt;Node5</title>
<g id="a_edge4_Node000001_Node000005"><a xlink:title=" ">
<path fill="none" stroke="#63b8ff" d="M32.67,-120.62C46.06,-120.62 65.76,-120.62 81.67,-120.62"/>
<polygon fill="#63b8ff" stroke="#63b8ff" points="81.42,-124.13 91.42,-120.63 81.42,-117.13 81.42,-124.13"/>
</a>
</g>
</g>
<!-- Node6 -->
<g id="Node000006" class="node">
<title>Node6</title>
<g id="a_Node000006"><a xlink:href="../../d5/d24/dynamic__stack_8c.html#aff3ec5aac14cef11d2666c0de4ba9b6e" target="_top" xlink:title="The push function pushes the element onto the stack.">
<polygon fill="white" stroke="#666666" points="127.62,-93.25 90.62,-93.25 90.62,-74 127.62,-74 127.62,-93.25"/>
<text xml:space="preserve" text-anchor="middle" x="109.12" y="-79.75" font-family="Helvetica,sans-Serif" font-size="10.00">push</text>
</a>
</g>
</g>
<!-- Node1&#45;&gt;Node6 -->
<g id="edge5_Node000001_Node000006" class="edge">
<title>Node1&#45;&gt;Node6</title>
<g id="a_edge5_Node000001_Node000006"><a xlink:title=" ">
<path fill="none" stroke="#63b8ff" d="M32.67,-114.35C45.46,-109.14 64,-101.59 79.51,-95.28"/>
<polygon fill="#63b8ff" stroke="#63b8ff" points="80.79,-98.53 88.73,-91.52 78.15,-92.05 80.79,-98.53"/>
</a>
</g>
</g>
<!-- Node8 -->
<g id="Node000008" class="node">
<title>Node8</title>
<g id="a_Node000008"><a xlink:href="../../d5/d24/dynamic__stack_8c.html#a9fe3f4e1147dd49a0ad4ca8f0228827d" target="_top" xlink:title="To display the current capacity of the stack.">
<polygon fill="white" stroke="#666666" points="149.75,-56.25 68.5,-56.25 68.5,-37 149.75,-37 149.75,-56.25"/>
<text xml:space="preserve" text-anchor="middle" x="109.12" y="-42.75" font-family="Helvetica,sans-Serif" font-size="10.00">show_capacity</text>
</a>
</g>
</g>
<!-- Node1&#45;&gt;Node8 -->
<g id="edge7_Node000001_Node000008" class="edge">
<title>Node1&#45;&gt;Node8</title>
<g id="a_edge7_Node000001_Node000008"><a xlink:title=" ">
<path fill="none" stroke="#63b8ff" d="M24.26,-110.8C33.33,-98.64 50.16,-77.94 68.5,-64.62 69.67,-63.78 70.89,-62.95 72.13,-62.16"/>
<polygon fill="#63b8ff" stroke="#63b8ff" points="73.76,-65.26 80.81,-57.34 70.36,-59.14 73.76,-65.26"/>
</a>
</g>
</g>
<!-- Node9 -->
<g id="Node000009" class="node">
<title>Node9</title>
<g id="a_Node000009"><a xlink:href="../../d5/d24/dynamic__stack_8c.html#ad46c93f9aac8431f73dc5e3a4413097e" target="_top" xlink:title="Used to get the size of the Stack or the number of elements present in the Stack.">
<polygon fill="white" stroke="#666666" points="140.75,-19.25 77.5,-19.25 77.5,0 140.75,0 140.75,-19.25"/>
<text xml:space="preserve" text-anchor="middle" x="109.12" y="-5.75" font-family="Helvetica,sans-Serif" font-size="10.00">stack_size</text>
</a>
</g>
</g>
<!-- Node1&#45;&gt;Node9 -->
<g id="edge8_Node000001_Node000009" class="edge">
<title>Node1&#45;&gt;Node9</title>
<g id="a_edge8_Node000001_Node000009"><a xlink:title=" ">
<path fill="none" stroke="#63b8ff" d="M20.39,-110.6C26.68,-91.96 42.52,-51.67 68.5,-27.62 69.12,-27.05 69.77,-26.49 70.43,-25.94"/>
<polygon fill="#63b8ff" stroke="#63b8ff" points="72.19,-28.98 78.6,-20.54 68.33,-23.14 72.19,-28.98"/>
</a>
</g>
</g>
<!-- Node7 -->
<g id="Node000007" class="node">
<title>Node7</title>
<g id="a_Node000007"><a xlink:href="../../d5/d24/dynamic__stack_8c.html#ac01c5d1d1000ed68b5ff093c5ff36854" target="_top" xlink:title="As this is stack implementation using dynamic array this function will expand the size of the stack b...">
<polygon fill="white" stroke="#666666" points="257.25,-93.25 185.75,-93.25 185.75,-74 257.25,-74 257.25,-93.25"/>
<text xml:space="preserve" text-anchor="middle" x="221.5" y="-79.75" font-family="Helvetica,sans-Serif" font-size="10.00">double_array</text>
</a>
</g>
</g>
<!-- Node6&#45;&gt;Node7 -->
<g id="edge6_Node000006_Node000007" class="edge">
<title>Node6&#45;&gt;Node7</title>
<g id="a_edge6_Node000006_Node000007"><a xlink:title=" ">
<path fill="none" stroke="#63b8ff" d="M127.86,-83.62C140.43,-83.62 157.92,-83.62 174.32,-83.62"/>
<polygon fill="#63b8ff" stroke="#63b8ff" points="173.91,-87.13 183.91,-83.63 173.91,-80.13 173.91,-87.13"/>
</a>
</g>
</g>
</g>
</svg>
