<?xml version="1.0" encoding="UTF-8" standalone="no"?>
<!DOCTYPE svg PUBLIC "-//W3C//DTD SVG 1.1//EN"
 "http://www.w3.org/Graphics/SVG/1.1/DTD/svg11.dtd">
<!-- Generated by graphviz version 14.1.2 (20260124.0452)
 -->
<!-- Title: main Pages: 1 -->
<svg width="338pt" height="249pt"
 viewBox="0.00 0.00 338.00 249.00" xmlns="http://www.w3.org/2000/svg" xmlns:xlink="http://www.w3.org/1999/xlink">
<g id="graph0" class="graph" transform="scale(1 1) rotate(0) translate(4 245.25)">
<title>main</title>
<!-- Node1 -->
<g id="Node000001" class="node">
<title>Node1</title>
<g id="a_Node000001"><a xlink:title="Main function.">
<polygon fill="#999999" stroke="#666666" points="37,-130.25 0,-130.25 0,-111 37,-111 37,-130.25"/>
<text xml:space="preserve" text-anchor="middle" x="18.5" y="-116.75" font-family="Helvetica,sans-Serif" font-size="10.00">main</text>
</a>
</g>
</g>
<!-- Node2 -->
<g id="Node000002" class="node">
<title>Node2</title>
<g id="a_Node000002"><a xlink:href="../../d5/d24/dynamic__stack_8c.html#aa8dca7b867074164d5f45b0f3851269d" target="_top" xlink:title="Self&#45;test implementations.">
<polygon fill="white" stroke="#666666" points="105.5,-130.25 73,-130.25 73,-111 105.5,-111 105.5,-130.25"/>
<text xml:space="preserve" text-anchor="middle" x="89.25" y="-116.75" font-family="Helvetica,sans-Serif" font-size="10.00">test</text>
</a>
</g>
</g>
<!-- Node1&#45;&gt;Node2 -->
<g id="edge1_Node000001_Node000002" class="edge">
<title>Node1&#45;&gt;Node2</title>
<g id="a_edge1_Node000001_Node000002"><a xlink:title=" ">
<path fill="none" stroke="#63b8ff" d="M37.2,-120.62C44.58,-120.62 53.31,-120.62 61.45,-120.62"/>
<polygon fill="#63b8ff" stroke="#63b8ff" points="61.2,-124.13 71.2,-120.63 61.2,-117.13 61.2,-124.13"/>
</a>
</g>
</g>
<!-- Node3 -->
<g id="Node000003" class="node">
<title>Node3</title>
<g id="a_Node000003"><a xlink:href="../../d5/d24/dynamic__stack_8c.html#ab628a00140af56945b3f514cef0b3da0" target="_top" xlink:title="Create a Stack object.">
<polygon fill="white" stroke="#666666" points="218.25,-241.25 146,-241.25 146,-222 218.25,-222 218.25,-241.25"/>
<text xml:space="preserve" text-anchor="middle" x="182.12" y="-227.75" font-family="Helvetica,sans-Serif" font-size="10.00">create_stack</text>
</a>
</g>
</g>
<!-- Node2&#45;&gt;Node3 -->
<g id="edge2_Node000002_Node000003" class="edge">
<title>Node2&#45;&gt;Node3</title>
<g id="a_edge2_Node000002_Node000003"><a xlink:title=" ">
<path fill="none" stroke="#63b8ff" d="M93.39,-130.65C99.68,-149.29 115.52,-189.58 141.5,-213.62 142.12,-214.2 142.77,-214.76 143.43,-215.31"/>
<polygon fill="#63b8ff" stroke="#63b8ff" points="141.33,-218.11 151.6,-220.71 145.19,-212.27 141.33,-218.11"/>
</a>
</g>
</g>
<!-- Node4 -->
<g id="Node000004" class="node">
<title>Node4</title>
<g id="a_Node000004"><a xlink:href="../../d5/d24/dynamic__stack_8c.html#a0eebbddad64a35d337093293466e26a1" target="_top" xlink:title="The function is used to check whether the stack is empty or not and return true or false accordingly.">
<polygon fill="white" stroke="#666666" points="207.38,-204.25 156.88,-204.25 156.88,-185 207.38,-185 207.38,-204.25"/>
<text xml:space="preserve" text-anchor="middle" x="182.12" y="-190.75" font-family="Helvetica,sans-Serif" font-size="10.00">isempty</text>
</a>
</g>
</g>
<!-- Node2&#45;&gt;Node4 -->
<g id="edge3_Node000002_Node000004" class="edge">
<title>Node2&#45;&gt;Node4</title>
<g id="a_edge3_Node000002_Node000004"><a xlink:title=" ">
<path fill="none" stroke="#63b8ff" d="M97.26,-130.45C106.33,-142.61 123.16,-163.31 141.5,-176.62 143.06,-177.75 144.69,-178.84 146.38,-179.87"/>
<polygon fill="#63b8ff" stroke="#63b8ff" points="144.58,-182.88 155.05,-184.53 147.9,-176.71 144.58,-182.88"/>
</a>
</g>
</g>
<!-- Node5 -->
<g id="Node000005" class="node">
<title>Node5</title>
<g id="a_Node000005"><a xlink:href="../../d5/d24/dynamic__stack_8c.html#a68471e91db2e62acd584744c24a09a4f" target="_top" xlink:title="To retrieve or fetch the first element of the Stack or the element present at the top of the Stack.">
<polygon fill="white" stroke="#666666" points="200.62,-167.25 163.62,-167.25 163.62,-148 200.62,-148 200.62,-167.25"/>
<text xml:space="preserve" text-anchor="middle" x="182.12" y="-153.75" font-family="Helvetica,sans-Serif" font-size="10.00">peek</text>
</a>
</g>
</g>
<!-- Node2&#45;&gt;Node5 -->
<g id="edge4_Node000002_Node000005" class="edge">
<title>Node2&#45;&gt;Node5</title>
<g id="a_edge4_Node000002_Node000005"><a xlink:title=" ">
<path fill="none" stroke="#63b8ff" d="M105.67,-126.9C118.46,-132.11 137,-139.66 152.51,-145.97"/>
<polygon fill="#63b8ff" stroke="#63b8ff" points="151.15,-149.2 161.73,-149.73 153.79,-142.72 151.15,-149.2"/>
</a>
</g>
</g>
<!-- Node6 -->
<g id="Node000006" class="node">
<title>Node6</title>
<g id="a_Node000006"><a xlink:href="../../da/d96/infix__to__postfix2_8c.html#a312e7f6c761a199c1369fbe651e084f0" target="_top" xlink:title="Function to pop from the stack.">
<polygon fill="white" stroke="#666666" points="198,-130.25 166.25,-130.25 166.25,-111 198,-111 198,-130.25"/>
<text xml:space="preserve" text-anchor="middle" x="182.12" y="-116.75" font-family="Helvetica,sans-Serif" font-size="10.00">pop</text>
</a>
</g>
</g>
<!-- Node2&#45;&gt;Node6 -->
<g id="edge5_Node000002_Node000006" class="edge">
<title>Node2&#45;&gt;Node6</title>
<g id="a_edge5_Node000002_Node000006"><a xlink:title=" ">
<path fill="none" stroke="#63b8ff" d="M105.67,-120.62C119.06,-120.62 138.76,-120.62 154.67,-120.62"/>
<polygon fill="#63b8ff" stroke="#63b8ff" points="154.42,-124.13 164.42,-120.63 154.42,-117.13 154.42,-124.13"/>
</a>
</g>
</g>
<!-- Node7 -->
<g id="Node000007" class="node">
<title>Node7</title>
<g id="a_Node000007"><a xlink:href="../../d5/d24/dynamic__stack_8c.html#aff3ec5aac14cef11d2666c0de4ba9b6e" target="_top" xlink:title="The push function pushes the element onto the stack.">
<polygon fill="white" stroke="#666666" points="200.62,-93.25 163.62,-93.25 163.62,-74 200.62,-74 200.62,-93.25"/>
<text xml:space="preserve" text-anchor="middle" x="182.12" y="-79.75" font-family="Helvetica,sans-Serif" font-size="10.00">push</text>
</a>
</g>
</g>
<!-- Node2&#45;&gt;Node7 -->
<g id="edge6_Node000002_Node000007" class="edge">
<title>Node2&#45;&gt;Node7</title>
<g id="a_edge6_Node000002_Node000007"><a xlink:title=" ">
<path fill="none" stroke="#63b8ff" d="M105.67,-114.35C118.46,-109.14 137,-101.59 152.51,-95.28"/>
<polygon fill="#63b8ff" stroke="#63b8ff" points="153.79,-98.53 161.73,-91.52 151.15,-92.05 153.79,-98.53"/>
</a>
</g>
</g>
<!-- Node9 -->
<g id="Node000009" class="node">
<title>Node9</title>
<g id="a_Node000009"><a xlink:href="../../d5/d24/dynamic__stack_8c.html#a9fe3f4e1147dd49a0ad4ca8f0228827d" target="_top" xlink:title="To display the current capacity of the stack.">
<polygon fill="white" stroke="#666666" points="222.75,-56.25 141.5,-56.25 141.5,-37 222.75,-37 222.75,-56.25"/>
<text xml:space="preserve" text-anchor="middle" x="182.12" y="-42.75" font-family="Helvetica,sans-Serif" font-size="10.00">show_capacity</text>
</a>
</g>
</g>
<!-- Node2&#45;&gt;Node9 -->
<g id="edge8_Node000002_Node000009" class="edge">
<title>Node2&#45;&gt;Node9</title>
<g id="a_edge8_Node000002_Node000009"><a xlink:title=" ">
<path fill="none" stroke="#63b8ff" d="M97.26,-110.8C106.33,-98.64 123.16,-77.94 141.5,-64.62 142.67,-63.78 143.89,-62.95 145.13,-62.16"/>
<polygon fill="#63b8ff" stroke="#63b8ff" points="146.76,-65.26 153.81,-57.34 143.36,-59.14 146.76,-65.26"/>
</a>
</g>
</g>
<!-- Node10 -->
<g id="Node000010" class="node">
<title>Node10</title>
<g id="a_Node000010"><a xlink:href="../../d5/d24/dynamic__stack_8c.html#ad46c93f9aac8431f73dc5e3a4413097e" target="_top" xlink:title="Used to get the size of the Stack or the number of elements present in the Stack.">
<polygon fill="white" stroke="#666666" points="213.75,-19.25 150.5,-19.25 150.5,0 213.75,0 213.75,-19.25"/>
<text xml:space="preserve" text-anchor="middle" x="182.12" y="-5.75" font-family="Helvetica,sans-Serif" font-size="10.00">stack_size</text>
</a>
</g>
</g>
<!-- Node2&#45;&gt;Node10 -->
<g id="edge9_Node000002_Node000010" class="edge">
<title>Node2&#45;&gt;Node10</title>
<g id="a_edge9_Node000002_Node000010"><a xlink:title=" ">
<path fill="none" stroke="#63b8ff" d="M93.39,-110.6C99.68,-91.96 115.52,-51.67 141.5,-27.62 142.12,-27.05 142.77,-26.49 143.43,-25.94"/>
<polygon fill="#63b8ff" stroke="#63b8ff" points="145.19,-28.98 151.6,-20.54 141.33,-23.14 145.19,-28.98"/>
</a>
</g>
</g>
<!-- Node8 -->
<g id="Node000008" class="node">
<title>Node8</title>
<g id="a_Node000008"><a xlink:href="../../d5/d24/dynamic__stack_8c.html#ac01c5d1d1000ed68b5ff093c5ff36854" target="_top" xlink:title="As this is stack implementation using dynamic array this function will expand the size of the stack b...">
<polygon fill="white" stroke="#666666" points="330.25,-93.25 258.75,-93.25 258.75,-74 330.25,-74 330.25,-93.25"/>
<text xml:space="preserve" text-anchor="middle" x="294.5" y="-79.75" font-family="Helvetica,sans-Serif" font-size="10.00">double_array</text>
</a>
</g>
</g>
<!-- Node7&#45;&gt;Node8 -->
<g id="edge7_Node000007_Node000008" class="edge">
<title>Node7&#45;&gt;Node8</title>
<g id="a_edge7_Node000007_Node000008"><a xlink:title=" ">
<path fill="none" stroke="#63b8ff" d="M200.86,-83.62C213.43,-83.62 230.92,-83.62 247.32,-83.62"/>
<polygon fill="#63b8ff" stroke="#63b8ff" points="246.91,-87.13 256.91,-83.63 246.91,-80.13 246.91,-87.13"/>
</a>
</g>
</g>
</g>
</svg>
