<?xml version="1.0" encoding="UTF-8" standalone="no"?>
<!DOCTYPE svg PUBLIC "-//W3C//DTD SVG 1.1//EN"
 "http://www.w3.org/Graphics/SVG/1.1/DTD/svg11.dtd">
<!-- Generated by graphviz version 14.1.2 (20260124.0452)
 -->
<!-- Title: merge_sort Pages: 1 -->
<svg width="152pt" height="64pt"
 viewBox="0.00 0.00 152.00 64.00" xmlns="http://www.w3.org/2000/svg" xmlns:xlink="http://www.w3.org/1999/xlink">
<g id="graph0" class="graph" transform="scale(1 1) rotate(0) translate(4 60.25)">
<title>merge_sort</title>
<!-- Node1 -->
<g id="Node000001" class="node">
<title>Node1</title>
<g id="a_Node000001"><a xlink:title="Merge sort algorithm implementation.">
<polygon fill="#999999" stroke="#666666" points="64.75,-37.25 0,-37.25 0,-18 64.75,-18 64.75,-37.25"/>
<text xml:space="preserve" text-anchor="middle" x="32.38" y="-23.75" font-family="Helvetica,sans-Serif" font-size="10.00">merge_sort</text>
</a>
</g>
</g>
<!-- Node1&#45;&gt;Node1 -->
<g id="edge2_Node000001_Node000001" class="edge">
<title>Node1&#45;&gt;Node1</title>
<g id="a_edge2_Node000001_Node000001"><a xlink:title=" ">
<path fill="none" stroke="#63b8ff" d="M18.3,-37.54C11.89,-46.15 16.58,-55.25 32.38,-55.25 41.01,-55.25 46.33,-52.53 48.33,-48.65"/>
<polygon fill="#63b8ff" stroke="#63b8ff" points="51.82,-48.31 46.7,-39.03 44.92,-49.47 51.82,-48.31"/>
</a>
</g>
</g>
<!-- Node2 -->
<g id="Node000002" class="node">
<title>Node2</title>
<g id="a_Node000002"><a xlink:href="../../d5/d4c/group__sorting.html#ga8dc3ec66cb3350313fdb34bfd1674729" target="_top" xlink:title="Perform merge of segments.">
<polygon fill="white" stroke="#666666" points="143.75,-56.25 100.75,-56.25 100.75,-37 143.75,-37 143.75,-56.25"/>
<text xml:space="preserve" text-anchor="middle" x="122.25" y="-42.75" font-family="Helvetica,sans-Serif" font-size="10.00">merge</text>
</a>
</g>
</g>
<!-- Node1&#45;&gt;Node2 -->
<g id="edge1_Node000001_Node000002" class="edge">
<title>Node1&#45;&gt;Node2</title>
<g id="a_edge1_Node000001_Node000002"><a xlink:title=" ">
<path fill="none" stroke="#63b8ff" d="M65.1,-34.48C72.96,-36.18 81.39,-38.01 89.26,-39.71"/>
<polygon fill="#63b8ff" stroke="#63b8ff" points="88.28,-43.08 98.79,-41.77 89.76,-36.23 88.28,-43.08"/>
</a>
</g>
</g>
<!-- Node3 -->
<g id="Node000003" class="node">
<title>Node3</title>
<g id="a_Node000003"><a xlink:href="../../d5/d4c/group__sorting.html#ga4b9708d87be7a409eff20e5e7e8b43c8" target="_top" xlink:title="Swap two integer variables.">
<polygon fill="white" stroke="#666666" points="141.88,-19.25 102.62,-19.25 102.62,0 141.88,0 141.88,-19.25"/>
<text xml:space="preserve" text-anchor="middle" x="122.25" y="-5.75" font-family="Helvetica,sans-Serif" font-size="10.00">swap</text>
</a>
</g>
</g>
<!-- Node1&#45;&gt;Node3 -->
<g id="edge3_Node000001_Node000003" class="edge">
<title>Node1&#45;&gt;Node3</title>
<g id="a_edge3_Node000001_Node000003"><a xlink:title=" ">
<path fill="none" stroke="#63b8ff" d="M65.1,-21.13C73.59,-19.39 82.73,-17.51 91.13,-15.79"/>
<polygon fill="#63b8ff" stroke="#63b8ff" points="91.78,-19.23 100.88,-13.8 90.38,-12.38 91.78,-19.23"/>
</a>
</g>
</g>
</g>
</svg>
