<?xml version="1.0" encoding="UTF-8" standalone="no"?>
<!DOCTYPE svg PUBLIC "-//W3C//DTD SVG 1.1//EN"
 "http://www.w3.org/Graphics/SVG/1.1/DTD/svg11.dtd">
<!-- Generated by graphviz version 14.1.2 (20260124.0452)
 -->
<!-- Title: T Pages: 1 -->
<svg width="88pt" height="100pt"
 viewBox="0.00 0.00 88.00 100.00" xmlns="http://www.w3.org/2000/svg" xmlns:xlink="http://www.w3.org/1999/xlink">
<g id="graph0" class="graph" transform="scale(1 1) rotate(0) translate(4 95.75)">
<title>T</title>
<!-- Node1 -->
<g id="Node000001" class="node">
<title>Node1</title>
<g id="a_Node000001"><a xlink:title=" ">
<polygon fill="#999999" stroke="#666666" points="32.9,-19.25 4.1,-19.25 4.1,0 32.9,0 32.9,-19.25"/>
<text xml:space="preserve" text-anchor="middle" x="18.5" y="-5.75" font-family="Helvetica,sans-Serif" font-size="10.00">T</text>
</a>
</g>
</g>
<!-- Node2 -->
<g id="Node000002" class="node">
<title>Node2</title>
<g id="a_Node000002"><a xlink:href="../../d0/d6b/structelem.html" target="_top" xlink:title=" ">
<polygon fill="white" stroke="#bfbfbf" points="37,-91.75 0,-91.75 0,-72.5 37,-72.5 37,-91.75"/>
<text xml:space="preserve" text-anchor="middle" x="18.5" y="-78.25" font-family="Helvetica,sans-Serif" font-size="10.00">elem</text>
</a>
</g>
</g>
<!-- Node2&#45;&gt;Node1 -->
<g id="edge1_Node000001_Node000002" class="edge">
<title>Node2&#45;&gt;Node1</title>
<g id="a_edge1_Node000001_Node000002"><a xlink:title=" ">
<path fill="none" stroke="#9a32cd" stroke-dasharray="5,2" d="M18.5,-61.05C18.5,-47.44 18.5,-30.1 18.5,-19.7"/>
<polygon fill="#9a32cd" stroke="#9a32cd" points="15,-60.68 18.5,-70.68 22,-60.68 15,-60.68"/>
</a>
</g>
<text xml:space="preserve" text-anchor="start" x="21.5" y="-42" font-family="Helvetica,sans-Serif" font-size="10.00" fill="grey">head</text>
</g>
<!-- Node2&#45;&gt;Node2 -->
<g id="edge2_Node000002_Node000002" class="edge">
<title>Node2&#45;&gt;Node2</title>
<g id="a_edge2_Node000002_Node000002"><a xlink:title=" ">
<path fill="none" stroke="#9a32cd" stroke-dasharray="5,2" d="M48.71,-88.05C52.5,-87 55,-85.03 55,-82.12 55,-76.81 46.65,-74.62 37.28,-75.53"/>
<polygon fill="#9a32cd" stroke="#9a32cd" points="48.57,-84.55 38.79,-88.63 48.98,-91.54 48.57,-84.55"/>
</a>
</g>
<text xml:space="preserve" text-anchor="start" x="58" y="-78.25" font-family="Helvetica,sans-Serif" font-size="10.00" fill="grey">next</text>
</g>
</g>
</svg>
