<?xml version="1.0" encoding="UTF-8" standalone="no"?>
<!DOCTYPE svg PUBLIC "-//W3C//DTD SVG 1.1//EN"
 "http://www.w3.org/Graphics/SVG/1.1/DTD/svg11.dtd">
<!-- Generated by graphviz version 14.1.2 (20260124.0452)
 -->
<!-- Title: NFAState Pages: 1 -->
<svg width="73pt" height="100pt"
 viewBox="0.00 0.00 73.00 100.00" xmlns="http://www.w3.org/2000/svg" xmlns:xlink="http://www.w3.org/1999/xlink">

<svg id="main" version="1.1" xmlns="http://www.w3.org/2000/svg" xmlns:xlink="http://www.w3.org/1999/xlink" xml:space="preserve">

<style type="text/css"><![CDATA[
.node, .edge {opacity: 0.7;}
.node.selected, .edge.selected {opacity: 1;}
.edge:hover path { stroke: red; }
.edge:hover polygon { stroke: red; fill: red; }
]]></style>
<script type="application/ecmascript" xlink:href="../../svg.min.js"/>
<svg id="graph" class="graph">
<g id="graph0" class="graph" transform="scale(1 1) rotate(0) translate(4 95.75)">
<title>NFAState</title>
<!-- Node1 -->
<g id="Node000001" class="node">
<title>Node1</title>
<g id="a_Node000001"><a xlink:title="Definition for a NFA state.">
<polygon fill="#999999" stroke="#666666" points="61.85,-91.75 2.35,-91.75 2.35,-72.5 61.85,-72.5 61.85,-91.75"/>
<text xml:space="preserve" text-anchor="middle" x="32.1" y="-78.25" font-family="Helvetica,sans-Serif" font-size="10.00">NFAState</text>
</a>
</g>
</g>
<!-- Node2 -->
<g id="Node000002" class="node">
<title>Node2</title>
<g id="a_Node000002"><a xlink:href="../../d9/dd9/structtrans_rule.html" target="_top" xlink:title="Definition for a NFA state transition rule.">
<polygon fill="white" stroke="#666666" points="61.1,-19.25 3.1,-19.25 3.1,0 61.1,0 61.1,-19.25"/>
<text xml:space="preserve" text-anchor="middle" x="32.1" y="-5.75" font-family="Helvetica,sans-Serif" font-size="10.00">transRule</text>
</a>
</g>
</g>
<!-- Node1&#45;&gt;Node2 -->
<g id="edge2_Node000002_Node000001" class="edge">
<title>Node1&#45;&gt;Node2</title>
<g id="a_edge2_Node000002_Node000001"><a xlink:title=" ">
<path fill="none" stroke="#9a32cd" stroke-dasharray="5,2" d="M9.14,-64.53C6.39,-61.51 3.98,-58.15 2.35,-54.5 -0.78,-47.5 -0.78,-44.25 2.35,-37.25 5.51,-30.16 11.61,-24.18 17.45,-19.69"/>
<polygon fill="#9a32cd" stroke="#9a32cd" points="6.57,-66.92 16.33,-71.04 11.27,-61.73 6.57,-66.92"/>
</a>
</g>
<text xml:space="preserve" text-anchor="start" x="5.35" y="-42" font-family="Helvetica,sans-Serif" font-size="10.00" fill="grey">target</text>
</g>
<!-- Node2&#45;&gt;Node1 -->
<g id="edge1_Node000001_Node000002" class="edge">
<title>Node2&#45;&gt;Node1</title>
<g id="a_edge1_Node000001_Node000002"><a xlink:title=" ">
<path fill="none" stroke="#9a32cd" stroke-dasharray="5,2" d="M36.27,-30.63C36.61,-32.86 36.9,-35.1 37.1,-37.25 37.81,-44.88 37.81,-46.87 37.1,-54.5 36.54,-60.49 35.29,-67.15 34.18,-72.31"/>
<polygon fill="#9a32cd" stroke="#9a32cd" points="39.73,-30.12 34.46,-20.93 32.85,-31.4 39.73,-30.12"/>
</a>
</g>
<text xml:space="preserve" text-anchor="start" x="40.63" y="-42" font-family="Helvetica,sans-Serif" font-size="10.00" fill="grey">rules</text>
</g>
</g>
</svg>
</svg>

<style type='text/css'>
<![CDATA[
[data-mouse-over-selected='false'] { opacity: 0.7; }
[data-mouse-over-selected='true']  { opacity: 1.0; }
]]>
</style>
<script type="application/ecmascript"><![CDATA[
document.addEventListener('DOMContentLoaded', (event) => {
  highlightEdges();
  highlightAdjacentNodes();
});
]]></script>
</svg>
