<?xml version="1.0" encoding="UTF-8" standalone="no"?>
<!DOCTYPE svg PUBLIC "-//W3C//DTD SVG 1.1//EN"
 "http://www.w3.org/Graphics/SVG/1.1/DTD/svg11.dtd">
<!-- Generated by graphviz version 14.1.2 (20260124.0452)
 -->
<!-- Title: main Pages: 1 -->
<svg width="389pt" height="103pt"
 viewBox="0.00 0.00 389.00 103.00" xmlns="http://www.w3.org/2000/svg" xmlns:xlink="http://www.w3.org/1999/xlink">

<svg id="main" version="1.1" xmlns="http://www.w3.org/2000/svg" xmlns:xlink="http://www.w3.org/1999/xlink" xml:space="preserve">

<style type="text/css"><![CDATA[
.node, .edge {opacity: 0.7;}
.node.selected, .edge.selected {opacity: 1;}
.edge:hover path { stroke: red; }
.edge:hover polygon { stroke: red; fill: red; }
]]></style>
<script type="application/ecmascript" xlink:href="../../svg.min.js"/>
<svg id="graph" class="graph">
<g id="graph0" class="graph" transform="scale(1 1) rotate(0) translate(4 99.25)">
<title>main</title>
<!-- Node1 -->
<g id="Node000001" class="node">
<title>Node1</title>
<g id="a_Node000001"><a xlink:title="Main function.">
<polygon fill="#999999" stroke="#666666" points="37,-57.25 0,-57.25 0,-38 37,-38 37,-57.25"/>
<text xml:space="preserve" text-anchor="middle" x="18.5" y="-43.75" font-family="Helvetica,sans-Serif" font-size="10.00">main</text>
</a>
</g>
</g>
<!-- Node2 -->
<g id="Node000002" class="node">
<title>Node2</title>
<g id="a_Node000002"><a xlink:href="../../de/dff/heap__sort__2_8c.html#aa8dca7b867074164d5f45b0f3851269d" target="_top" xlink:title="Self&#45;test implementations.">
<polygon fill="white" stroke="#666666" points="105.5,-57.25 73,-57.25 73,-38 105.5,-38 105.5,-57.25"/>
<text xml:space="preserve" text-anchor="middle" x="89.25" y="-43.75" font-family="Helvetica,sans-Serif" font-size="10.00">test</text>
</a>
</g>
</g>
<!-- Node1&#45;&gt;Node2 -->
<g id="edge1_Node000001_Node000002" class="edge">
<title>Node1&#45;&gt;Node2</title>
<g id="a_edge1_Node000001_Node000002"><a xlink:title=" ">
<path fill="none" stroke="#63b8ff" d="M37.2,-47.62C44.58,-47.62 53.31,-47.62 61.45,-47.62"/>
<polygon fill="#63b8ff" stroke="#63b8ff" points="61.2,-51.13 71.2,-47.63 61.2,-44.13 61.2,-51.13"/>
</a>
</g>
</g>
<!-- Node3 -->
<g id="Node000003" class="node">
<title>Node3</title>
<g id="a_Node000003"><a xlink:href="../../de/dff/heap__sort__2_8c.html#a672a47d865e7fa18f1ff23001ef4a485" target="_top" xlink:title="Heap Sort algorithm.">
<polygon fill="white" stroke="#666666" points="196.5,-57.25 141.5,-57.25 141.5,-38 196.5,-38 196.5,-57.25"/>
<text xml:space="preserve" text-anchor="middle" x="169" y="-43.75" font-family="Helvetica,sans-Serif" font-size="10.00">heapSort</text>
</a>
</g>
</g>
<!-- Node2&#45;&gt;Node3 -->
<g id="edge2_Node000002_Node000003" class="edge">
<title>Node2&#45;&gt;Node3</title>
<g id="a_edge2_Node000002_Node000003"><a xlink:title=" ">
<path fill="none" stroke="#63b8ff" d="M105.98,-47.62C112.94,-47.62 121.45,-47.62 129.91,-47.62"/>
<polygon fill="#63b8ff" stroke="#63b8ff" points="129.75,-51.13 139.75,-47.63 129.75,-44.13 129.75,-51.13"/>
</a>
</g>
</g>
<!-- Node4 -->
<g id="Node000004" class="node">
<title>Node4</title>
<g id="a_Node000004"><a xlink:href="../../de/dff/heap__sort__2_8c.html#a00cd944b33a5fe5972111ded9b49793c" target="_top" xlink:title="heapifyDown Adjusts new root to the correct position in the heap This heapify procedure can be though...">
<polygon fill="white" stroke="#666666" points="305.5,-95.25 232.5,-95.25 232.5,-76 305.5,-76 305.5,-95.25"/>
<text xml:space="preserve" text-anchor="middle" x="269" y="-81.75" font-family="Helvetica,sans-Serif" font-size="10.00">heapifyDown</text>
</a>
</g>
</g>
<!-- Node3&#45;&gt;Node4 -->
<g id="edge3_Node000003_Node000004" class="edge">
<title>Node3&#45;&gt;Node4</title>
<g id="a_edge3_Node000003_Node000004"><a xlink:title=" ">
<path fill="none" stroke="#63b8ff" d="M196,-57.71C206.95,-61.95 219.86,-66.96 231.72,-71.56"/>
<polygon fill="#63b8ff" stroke="#63b8ff" points="230.21,-74.73 240.8,-75.08 232.74,-68.2 230.21,-74.73"/>
</a>
</g>
</g>
<!-- Node5 -->
<g id="Node000005" class="node">
<title>Node5</title>
<g id="a_Node000005"><a xlink:href="../../de/dff/heap__sort__2_8c.html#aaf68497ab808b560dbf109da6435905a" target="_top" xlink:title="for assert for IO operations for dynamic memory allocation">
<polygon fill="white" stroke="#666666" points="380.75,-57.25 341.5,-57.25 341.5,-38 380.75,-38 380.75,-57.25"/>
<text xml:space="preserve" text-anchor="middle" x="361.12" y="-43.75" font-family="Helvetica,sans-Serif" font-size="10.00">swap</text>
</a>
</g>
</g>
<!-- Node3&#45;&gt;Node5 -->
<g id="edge7_Node000003_Node000005" class="edge">
<title>Node3&#45;&gt;Node5</title>
<g id="a_edge7_Node000003_Node000005"><a xlink:title=" ">
<path fill="none" stroke="#63b8ff" d="M196.84,-47.62C231.88,-47.62 293.05,-47.62 329.75,-47.62"/>
<polygon fill="#63b8ff" stroke="#63b8ff" points="329.67,-51.13 339.67,-47.63 329.67,-44.13 329.67,-51.13"/>
</a>
</g>
</g>
<!-- Node6 -->
<g id="Node000006" class="node">
<title>Node6</title>
<g id="a_Node000006"><a xlink:href="../../de/dff/heap__sort__2_8c.html#a619753b978f962aa2337e1fdb4e59e33" target="_top" xlink:title="heapifyUp Adjusts arr[i] to the correct position in the heap This heapify procedure can be thought of...">
<polygon fill="white" stroke="#666666" points="299.12,-19.25 238.88,-19.25 238.88,0 299.12,0 299.12,-19.25"/>
<text xml:space="preserve" text-anchor="middle" x="269" y="-5.75" font-family="Helvetica,sans-Serif" font-size="10.00">heapifyUp</text>
</a>
</g>
</g>
<!-- Node3&#45;&gt;Node6 -->
<g id="edge5_Node000003_Node000006" class="edge">
<title>Node3&#45;&gt;Node6</title>
<g id="a_edge5_Node000003_Node000006"><a xlink:title=" ">
<path fill="none" stroke="#63b8ff" d="M196,-37.54C206.95,-33.3 219.86,-28.29 231.72,-23.69"/>
<polygon fill="#63b8ff" stroke="#63b8ff" points="232.74,-27.05 240.8,-20.17 230.21,-20.52 232.74,-27.05"/>
</a>
</g>
</g>
<!-- Node4&#45;&gt;Node5 -->
<g id="edge4_Node000004_Node000005" class="edge">
<title>Node4&#45;&gt;Node5</title>
<g id="a_edge4_Node000004_Node000005"><a xlink:title=" ">
<path fill="none" stroke="#63b8ff" d="M293.68,-75.64C305.02,-70.86 318.71,-65.09 330.71,-60.03"/>
<polygon fill="#63b8ff" stroke="#63b8ff" points="331.89,-63.33 339.75,-56.22 329.17,-56.88 331.89,-63.33"/>
</a>
</g>
</g>
<!-- Node6&#45;&gt;Node5 -->
<g id="edge6_Node000006_Node000005" class="edge">
<title>Node6&#45;&gt;Node5</title>
<g id="a_edge6_Node000006_Node000005"><a xlink:title=" ">
<path fill="none" stroke="#63b8ff" d="M293.68,-19.61C305.02,-24.39 318.71,-30.16 330.71,-35.22"/>
<polygon fill="#63b8ff" stroke="#63b8ff" points="329.17,-38.37 339.75,-39.03 331.89,-31.92 329.17,-38.37"/>
</a>
</g>
</g>
</g>
</svg>
</svg>

<style type='text/css'>
<![CDATA[
[data-mouse-over-selected='false'] { opacity: 0.7; }
[data-mouse-over-selected='true']  { opacity: 1.0; }
]]>
</style>
<script type="application/ecmascript"><![CDATA[
document.addEventListener('DOMContentLoaded', (event) => {
  highlightEdges();
  highlightAdjacentNodes();
});
]]></script>
</svg>
