<?xml version="1.0" encoding="UTF-8" standalone="no"?>
<!DOCTYPE svg PUBLIC "-//W3C//DTD SVG 1.1//EN"
 "http://www.w3.org/Graphics/SVG/1.1/DTD/svg11.dtd">
<!-- Generated by graphviz version 14.1.2 (20260124.0452)
 -->
<!-- Title: heapSort Pages: 1 -->
<svg width="247pt" height="103pt"
 viewBox="0.00 0.00 247.00 103.00" xmlns="http://www.w3.org/2000/svg" xmlns:xlink="http://www.w3.org/1999/xlink">
<g id="graph0" class="graph" transform="scale(1 1) rotate(0) translate(4 99.25)">
<title>heapSort</title>
<!-- Node1 -->
<g id="Node000001" class="node">
<title>Node1</title>
<g id="a_Node000001"><a xlink:title="Heap Sort algorithm.">
<polygon fill="#999999" stroke="#666666" points="55,-57.25 0,-57.25 0,-38 55,-38 55,-57.25"/>
<text xml:space="preserve" text-anchor="middle" x="27.5" y="-43.75" font-family="Helvetica,sans-Serif" font-size="10.00">heapSort</text>
</a>
</g>
</g>
<!-- Node2 -->
<g id="Node000002" class="node">
<title>Node2</title>
<g id="a_Node000002"><a xlink:href="../../de/dff/heap__sort__2_8c.html#a00cd944b33a5fe5972111ded9b49793c" target="_top" xlink:title="heapifyDown Adjusts new root to the correct position in the heap This heapify procedure can be though...">
<polygon fill="white" stroke="#666666" points="164,-95.25 91,-95.25 91,-76 164,-76 164,-95.25"/>
<text xml:space="preserve" text-anchor="middle" x="127.5" y="-81.75" font-family="Helvetica,sans-Serif" font-size="10.00">heapifyDown</text>
</a>
</g>
</g>
<!-- Node1&#45;&gt;Node2 -->
<g id="edge1_Node000001_Node000002" class="edge">
<title>Node1&#45;&gt;Node2</title>
<g id="a_edge1_Node000001_Node000002"><a xlink:title=" ">
<path fill="none" stroke="#63b8ff" d="M54.5,-57.71C65.45,-61.95 78.36,-66.96 90.22,-71.56"/>
<polygon fill="#63b8ff" stroke="#63b8ff" points="88.71,-74.73 99.3,-75.08 91.24,-68.2 88.71,-74.73"/>
</a>
</g>
</g>
<!-- Node3 -->
<g id="Node000003" class="node">
<title>Node3</title>
<g id="a_Node000003"><a xlink:href="../../de/dff/heap__sort__2_8c.html#aaf68497ab808b560dbf109da6435905a" target="_top" xlink:title="for assert for IO operations for dynamic memory allocation">
<polygon fill="white" stroke="#666666" points="239.25,-57.25 200,-57.25 200,-38 239.25,-38 239.25,-57.25"/>
<text xml:space="preserve" text-anchor="middle" x="219.62" y="-43.75" font-family="Helvetica,sans-Serif" font-size="10.00">swap</text>
</a>
</g>
</g>
<!-- Node1&#45;&gt;Node3 -->
<g id="edge5_Node000001_Node000003" class="edge">
<title>Node1&#45;&gt;Node3</title>
<g id="a_edge5_Node000001_Node000003"><a xlink:title=" ">
<path fill="none" stroke="#63b8ff" d="M55.34,-47.62C90.38,-47.62 151.55,-47.62 188.25,-47.62"/>
<polygon fill="#63b8ff" stroke="#63b8ff" points="188.17,-51.13 198.17,-47.63 188.17,-44.13 188.17,-51.13"/>
</a>
</g>
</g>
<!-- Node4 -->
<g id="Node000004" class="node">
<title>Node4</title>
<g id="a_Node000004"><a xlink:href="../../de/dff/heap__sort__2_8c.html#a619753b978f962aa2337e1fdb4e59e33" target="_top" xlink:title="heapifyUp Adjusts arr[i] to the correct position in the heap This heapify procedure can be thought of...">
<polygon fill="white" stroke="#666666" points="157.62,-19.25 97.38,-19.25 97.38,0 157.62,0 157.62,-19.25"/>
<text xml:space="preserve" text-anchor="middle" x="127.5" y="-5.75" font-family="Helvetica,sans-Serif" font-size="10.00">heapifyUp</text>
</a>
</g>
</g>
<!-- Node1&#45;&gt;Node4 -->
<g id="edge3_Node000001_Node000004" class="edge">
<title>Node1&#45;&gt;Node4</title>
<g id="a_edge3_Node000001_Node000004"><a xlink:title=" ">
<path fill="none" stroke="#63b8ff" d="M54.5,-37.54C65.45,-33.3 78.36,-28.29 90.22,-23.69"/>
<polygon fill="#63b8ff" stroke="#63b8ff" points="91.24,-27.05 99.3,-20.17 88.71,-20.52 91.24,-27.05"/>
</a>
</g>
</g>
<!-- Node2&#45;&gt;Node3 -->
<g id="edge2_Node000002_Node000003" class="edge">
<title>Node2&#45;&gt;Node3</title>
<g id="a_edge2_Node000002_Node000003"><a xlink:title=" ">
<path fill="none" stroke="#63b8ff" d="M152.18,-75.64C163.52,-70.86 177.21,-65.09 189.21,-60.03"/>
<polygon fill="#63b8ff" stroke="#63b8ff" points="190.39,-63.33 198.25,-56.22 187.67,-56.88 190.39,-63.33"/>
</a>
</g>
</g>
<!-- Node4&#45;&gt;Node3 -->
<g id="edge4_Node000004_Node000003" class="edge">
<title>Node4&#45;&gt;Node3</title>
<g id="a_edge4_Node000004_Node000003"><a xlink:title=" ">
<path fill="none" stroke="#63b8ff" d="M152.18,-19.61C163.52,-24.39 177.21,-30.16 189.21,-35.22"/>
<polygon fill="#63b8ff" stroke="#63b8ff" points="187.67,-38.37 198.25,-39.03 190.39,-31.92 187.67,-38.37"/>
</a>
</g>
</g>
</g>
</svg>
