<?xml version="1.0" encoding="UTF-8" standalone="no"?>
<!DOCTYPE svg PUBLIC "-//W3C//DTD SVG 1.1//EN"
 "http://www.w3.org/Graphics/SVG/1.1/DTD/svg11.dtd">
<!-- Generated by graphviz version 14.1.2 (20260124.0452)
 -->
<!-- Title: test Pages: 1 -->
<svg width="316pt" height="103pt"
 viewBox="0.00 0.00 316.00 103.00" xmlns="http://www.w3.org/2000/svg" xmlns:xlink="http://www.w3.org/1999/xlink">
<g id="graph0" class="graph" transform="scale(1 1) rotate(0) translate(4 99.25)">
<title>test</title>
<!-- Node1 -->
<g id="Node000001" class="node">
<title>Node1</title>
<g id="a_Node000001"><a xlink:title="Self&#45;test implementations.">
<polygon fill="#999999" stroke="#666666" points="32.5,-57.25 0,-57.25 0,-38 32.5,-38 32.5,-57.25"/>
<text xml:space="preserve" text-anchor="middle" x="16.25" y="-43.75" font-family="Helvetica,sans-Serif" font-size="10.00">test</text>
</a>
</g>
</g>
<!-- Node2 -->
<g id="Node000002" class="node">
<title>Node2</title>
<g id="a_Node000002"><a xlink:href="../../de/dff/heap__sort__2_8c.html#a672a47d865e7fa18f1ff23001ef4a485" target="_top" xlink:title="Heap Sort algorithm.">
<polygon fill="white" stroke="#666666" points="123.5,-57.25 68.5,-57.25 68.5,-38 123.5,-38 123.5,-57.25"/>
<text xml:space="preserve" text-anchor="middle" x="96" y="-43.75" font-family="Helvetica,sans-Serif" font-size="10.00">heapSort</text>
</a>
</g>
</g>
<!-- Node1&#45;&gt;Node2 -->
<g id="edge1_Node000001_Node000002" class="edge">
<title>Node1&#45;&gt;Node2</title>
<g id="a_edge1_Node000001_Node000002"><a xlink:title=" ">
<path fill="none" stroke="#63b8ff" d="M32.98,-47.62C39.94,-47.62 48.45,-47.62 56.91,-47.62"/>
<polygon fill="#63b8ff" stroke="#63b8ff" points="56.75,-51.13 66.75,-47.63 56.75,-44.13 56.75,-51.13"/>
</a>
</g>
</g>
<!-- Node3 -->
<g id="Node000003" class="node">
<title>Node3</title>
<g id="a_Node000003"><a xlink:href="../../de/dff/heap__sort__2_8c.html#a00cd944b33a5fe5972111ded9b49793c" target="_top" xlink:title="heapifyDown Adjusts new root to the correct position in the heap This heapify procedure can be though...">
<polygon fill="white" stroke="#666666" points="232.5,-95.25 159.5,-95.25 159.5,-76 232.5,-76 232.5,-95.25"/>
<text xml:space="preserve" text-anchor="middle" x="196" y="-81.75" font-family="Helvetica,sans-Serif" font-size="10.00">heapifyDown</text>
</a>
</g>
</g>
<!-- Node2&#45;&gt;Node3 -->
<g id="edge2_Node000002_Node000003" class="edge">
<title>Node2&#45;&gt;Node3</title>
<g id="a_edge2_Node000002_Node000003"><a xlink:title=" ">
<path fill="none" stroke="#63b8ff" d="M123,-57.71C133.95,-61.95 146.86,-66.96 158.72,-71.56"/>
<polygon fill="#63b8ff" stroke="#63b8ff" points="157.21,-74.73 167.8,-75.08 159.74,-68.2 157.21,-74.73"/>
</a>
</g>
</g>
<!-- Node4 -->
<g id="Node000004" class="node">
<title>Node4</title>
<g id="a_Node000004"><a xlink:href="../../de/dff/heap__sort__2_8c.html#aaf68497ab808b560dbf109da6435905a" target="_top" xlink:title="for assert for IO operations for dynamic memory allocation">
<polygon fill="white" stroke="#666666" points="307.75,-57.25 268.5,-57.25 268.5,-38 307.75,-38 307.75,-57.25"/>
<text xml:space="preserve" text-anchor="middle" x="288.12" y="-43.75" font-family="Helvetica,sans-Serif" font-size="10.00">swap</text>
</a>
</g>
</g>
<!-- Node2&#45;&gt;Node4 -->
<g id="edge6_Node000002_Node000004" class="edge">
<title>Node2&#45;&gt;Node4</title>
<g id="a_edge6_Node000002_Node000004"><a xlink:title=" ">
<path fill="none" stroke="#63b8ff" d="M123.84,-47.62C158.88,-47.62 220.05,-47.62 256.75,-47.62"/>
<polygon fill="#63b8ff" stroke="#63b8ff" points="256.67,-51.13 266.67,-47.63 256.67,-44.13 256.67,-51.13"/>
</a>
</g>
</g>
<!-- Node5 -->
<g id="Node000005" class="node">
<title>Node5</title>
<g id="a_Node000005"><a xlink:href="../../de/dff/heap__sort__2_8c.html#a619753b978f962aa2337e1fdb4e59e33" target="_top" xlink:title="heapifyUp Adjusts arr[i] to the correct position in the heap This heapify procedure can be thought of...">
<polygon fill="white" stroke="#666666" points="226.12,-19.25 165.88,-19.25 165.88,0 226.12,0 226.12,-19.25"/>
<text xml:space="preserve" text-anchor="middle" x="196" y="-5.75" font-family="Helvetica,sans-Serif" font-size="10.00">heapifyUp</text>
</a>
</g>
</g>
<!-- Node2&#45;&gt;Node5 -->
<g id="edge4_Node000002_Node000005" class="edge">
<title>Node2&#45;&gt;Node5</title>
<g id="a_edge4_Node000002_Node000005"><a xlink:title=" ">
<path fill="none" stroke="#63b8ff" d="M123,-37.54C133.95,-33.3 146.86,-28.29 158.72,-23.69"/>
<polygon fill="#63b8ff" stroke="#63b8ff" points="159.74,-27.05 167.8,-20.17 157.21,-20.52 159.74,-27.05"/>
</a>
</g>
</g>
<!-- Node3&#45;&gt;Node4 -->
<g id="edge3_Node000003_Node000004" class="edge">
<title>Node3&#45;&gt;Node4</title>
<g id="a_edge3_Node000003_Node000004"><a xlink:title=" ">
<path fill="none" stroke="#63b8ff" d="M220.68,-75.64C232.02,-70.86 245.71,-65.09 257.71,-60.03"/>
<polygon fill="#63b8ff" stroke="#63b8ff" points="258.89,-63.33 266.75,-56.22 256.17,-56.88 258.89,-63.33"/>
</a>
</g>
</g>
<!-- Node5&#45;&gt;Node4 -->
<g id="edge5_Node000005_Node000004" class="edge">
<title>Node5&#45;&gt;Node4</title>
<g id="a_edge5_Node000005_Node000004"><a xlink:title=" ">
<path fill="none" stroke="#63b8ff" d="M220.68,-19.61C232.02,-24.39 245.71,-30.16 257.71,-35.22"/>
<polygon fill="#63b8ff" stroke="#63b8ff" points="256.17,-38.37 266.75,-39.03 258.89,-31.92 256.17,-38.37"/>
</a>
</g>
</g>
</g>
</svg>
