<?xml version="1.0" encoding="UTF-8" standalone="no"?>
<!DOCTYPE svg PUBLIC "-//W3C//DTD SVG 1.1//EN"
 "http://www.w3.org/Graphics/SVG/1.1/DTD/svg11.dtd">
<!-- Generated by graphviz version 14.1.2 (20260124.0452)
 -->
<!-- Title: test Pages: 1 -->
<svg width="114pt" height="212pt"
 viewBox="0.00 0.00 114.00 212.00" xmlns="http://www.w3.org/2000/svg" xmlns:xlink="http://www.w3.org/1999/xlink">

<svg id="main" version="1.1" xmlns="http://www.w3.org/2000/svg" xmlns:xlink="http://www.w3.org/1999/xlink" xml:space="preserve">

<style type="text/css"><![CDATA[
.node, .edge {opacity: 0.7;}
.node.selected, .edge.selected {opacity: 1;}
.edge:hover path { stroke: red; }
.edge:hover polygon { stroke: red; fill: red; }
]]></style>
<script type="application/ecmascript" xlink:href="../../svg.min.js"/>
<svg id="graph" class="graph">
<g id="graph0" class="graph" transform="scale(1 1) rotate(0) translate(4 208.25)">
<title>test</title>
<!-- Node1 -->
<g id="Node000001" class="node">
<title>Node1</title>
<g id="a_Node000001"><a xlink:title="This function tests the functions used to work with Vectors.">
<polygon fill="#999999" stroke="#666666" points="32.5,-111.25 0,-111.25 0,-92 32.5,-92 32.5,-111.25"/>
<text xml:space="preserve" text-anchor="middle" x="16.25" y="-97.75" font-family="Helvetica,sans-Serif" font-size="10.00">test</text>
</a>
</g>
</g>
<!-- Node2 -->
<g id="Node000002" class="node">
<title>Node2</title>
<g id="a_Node000002"><a xlink:href="../../df/dfa/vector_8c.html#a15f534ebe962fda31cc191852befc250" target="_top" xlink:title="This function get the item at the specified index of the Vector.">
<polygon fill="white" stroke="#666666" points="101.75,-204.25 72.25,-204.25 72.25,-185 101.75,-185 101.75,-204.25"/>
<text xml:space="preserve" text-anchor="middle" x="87" y="-190.75" font-family="Helvetica,sans-Serif" font-size="10.00">get</text>
</a>
</g>
</g>
<!-- Node1&#45;&gt;Node2 -->
<g id="edge1_Node000001_Node000002" class="edge">
<title>Node1&#45;&gt;Node2</title>
<g id="a_edge1_Node000001_Node000002"><a xlink:title=" ">
<path fill="none" stroke="#63b8ff" d="M23.37,-111.72C31.6,-125.05 47.09,-149.28 68.52,-175.91"/>
<polygon fill="#63b8ff" stroke="#63b8ff" points="65.67,-177.95 74.73,-183.46 71.08,-173.51 65.67,-177.95"/>
</a>
</g>
</g>
<!-- Node3 -->
<g id="Node000003" class="node">
<title>Node3</title>
<g id="a_Node000003"><a xlink:href="../../df/dfa/vector_8c.html#a27a32c68950e464846b6730512968e4b" target="_top" xlink:title="This function initilaizes the vector and gives it a size of 1 and initializes the first index to 0.">
<polygon fill="white" stroke="#666666" points="101.4,-167.25 72.6,-167.25 72.6,-148 101.4,-148 101.4,-167.25"/>
<text xml:space="preserve" text-anchor="middle" x="87" y="-153.75" font-family="Helvetica,sans-Serif" font-size="10.00">init</text>
</a>
</g>
</g>
<!-- Node1&#45;&gt;Node3 -->
<g id="edge2_Node000001_Node000003" class="edge">
<title>Node1&#45;&gt;Node3</title>
<g id="a_edge2_Node000001_Node000003"><a xlink:title=" ">
<path fill="none" stroke="#63b8ff" d="M29.54,-111.64C39.42,-119.68 53.51,-131.16 65.14,-140.63"/>
<polygon fill="#63b8ff" stroke="#63b8ff" points="62.68,-143.14 72.64,-146.74 67.1,-137.71 62.68,-143.14"/>
</a>
</g>
</g>
<!-- Node4 -->
<g id="Node000004" class="node">
<title>Node4</title>
<g id="a_Node000004"><a xlink:href="../../df/dfa/vector_8c.html#a6f8a49f17bf315bdc30749a57bc7bc93" target="_top" xlink:title="This function returns the length the Vector.">
<polygon fill="white" stroke="#666666" points="101.4,-130.25 72.6,-130.25 72.6,-111 101.4,-111 101.4,-130.25"/>
<text xml:space="preserve" text-anchor="middle" x="87" y="-116.75" font-family="Helvetica,sans-Serif" font-size="10.00">len</text>
</a>
</g>
</g>
<!-- Node1&#45;&gt;Node4 -->
<g id="edge3_Node000001_Node000004" class="edge">
<title>Node1&#45;&gt;Node4</title>
<g id="a_edge3_Node000001_Node000004"><a xlink:title=" ">
<path fill="none" stroke="#63b8ff" d="M32.85,-105.94C41.3,-108.27 51.93,-111.21 61.46,-113.84"/>
<polygon fill="#63b8ff" stroke="#63b8ff" points="60.29,-117.15 70.86,-116.44 62.16,-110.4 60.29,-117.15"/>
</a>
</g>
</g>
<!-- Node5 -->
<g id="Node000005" class="node">
<title>Node5</title>
<g id="a_Node000005"><a xlink:href="../../df/dfa/vector_8c.html#af2f92e8cc55e764980bc0573ab5cd06f" target="_top" xlink:title="This function gets the next item from the Vector each time it&#39;s called.">
<polygon fill="white" stroke="#666666" points="104.38,-93.25 69.62,-93.25 69.62,-74 104.38,-74 104.38,-93.25"/>
<text xml:space="preserve" text-anchor="middle" x="87" y="-79.75" font-family="Helvetica,sans-Serif" font-size="10.00">next</text>
</a>
</g>
</g>
<!-- Node1&#45;&gt;Node5 -->
<g id="edge4_Node000001_Node000005" class="edge">
<title>Node1&#45;&gt;Node5</title>
<g id="a_edge4_Node000001_Node000005"><a xlink:title=" ">
<path fill="none" stroke="#63b8ff" d="M32.85,-97.54C40.45,-95.55 49.82,-93.1 58.57,-90.81"/>
<polygon fill="#63b8ff" stroke="#63b8ff" points="59.25,-94.25 68.04,-88.33 57.48,-87.47 59.25,-94.25"/>
</a>
</g>
</g>
<!-- Node6 -->
<g id="Node000006" class="node">
<title>Node6</title>
<g id="a_Node000006"><a xlink:href="../../df/dfa/vector_8c.html#a878dddf838dbd6d5a9a1da77a362ce56" target="_top" xlink:title="This function pushes a value to the end of the Vector.">
<polygon fill="white" stroke="#666666" points="105.5,-56.25 68.5,-56.25 68.5,-37 105.5,-37 105.5,-56.25"/>
<text xml:space="preserve" text-anchor="middle" x="87" y="-42.75" font-family="Helvetica,sans-Serif" font-size="10.00">push</text>
</a>
</g>
</g>
<!-- Node1&#45;&gt;Node6 -->
<g id="edge5_Node000001_Node000006" class="edge">
<title>Node1&#45;&gt;Node6</title>
<g id="a_edge5_Node000001_Node000006"><a xlink:title=" ">
<path fill="none" stroke="#63b8ff" d="M29.86,-91.54C39.55,-83.78 53.16,-72.89 64.56,-63.78"/>
<polygon fill="#63b8ff" stroke="#63b8ff" points="66.67,-66.57 72.29,-57.59 62.29,-61.11 66.67,-66.57"/>
</a>
</g>
</g>
<!-- Node7 -->
<g id="Node000007" class="node">
<title>Node7</title>
<g id="a_Node000007"><a xlink:href="../../df/dfa/vector_8c.html#a6facac5424445995bd2f8bb03ffcb548" target="_top" xlink:title="This function sets an item at the specified index of the Vector.">
<polygon fill="white" stroke="#666666" points="101.75,-19.25 72.25,-19.25 72.25,0 101.75,0 101.75,-19.25"/>
<text xml:space="preserve" text-anchor="middle" x="87" y="-5.75" font-family="Helvetica,sans-Serif" font-size="10.00">set</text>
</a>
</g>
</g>
<!-- Node1&#45;&gt;Node7 -->
<g id="edge6_Node000001_Node000007" class="edge">
<title>Node1&#45;&gt;Node7</title>
<g id="a_edge6_Node000001_Node000007"><a xlink:title=" ">
<path fill="none" stroke="#63b8ff" d="M23.39,-91.67C31.66,-78.53 47.18,-54.64 68.56,-28.27"/>
<polygon fill="#63b8ff" stroke="#63b8ff" points="71.06,-30.74 74.74,-20.8 65.67,-26.27 71.06,-30.74"/>
</a>
</g>
</g>
</g>
</svg>
</svg>

<style type='text/css'>
<![CDATA[
[data-mouse-over-selected='false'] { opacity: 0.7; }
[data-mouse-over-selected='true']  { opacity: 1.0; }
]]>
</style>
<script type="application/ecmascript"><![CDATA[
document.addEventListener('DOMContentLoaded', (event) => {
  highlightEdges();
  highlightAdjacentNodes();
});
]]></script>
</svg>
