<?xml version="1.0" encoding="UTF-8" standalone="no"?>
<!DOCTYPE svg PUBLIC "-//W3C//DTD SVG 1.1//EN"
 "http://www.w3.org/Graphics/SVG/1.1/DTD/svg11.dtd">
<!-- Generated by graphviz version 14.1.2 (20260124.0452)
 -->
<!-- Title: main Pages: 1 -->
<svg width="189pt" height="245pt"
 viewBox="0.00 0.00 189.00 245.00" xmlns="http://www.w3.org/2000/svg" xmlns:xlink="http://www.w3.org/1999/xlink">

<svg id="main" version="1.1" xmlns="http://www.w3.org/2000/svg" xmlns:xlink="http://www.w3.org/1999/xlink" xml:space="preserve">

<style type="text/css"><![CDATA[
.node, .edge {opacity: 0.7;}
.node.selected, .edge.selected {opacity: 1;}
.edge:hover path { stroke: red; }
.edge:hover polygon { stroke: red; fill: red; }
]]></style>
<script type="application/ecmascript" xlink:href="../../svg.min.js"/>
<svg id="graph" class="graph">
<g id="graph0" class="graph" transform="scale(1 1) rotate(0) translate(4 241.25)">
<title>main</title>
<!-- Node1 -->
<g id="Node000001" class="node">
<title>Node1</title>
<g id="a_Node000001"><a xlink:title="Main function.">
<polygon fill="#999999" stroke="#666666" points="37,-114.25 0,-114.25 0,-95 37,-95 37,-114.25"/>
<text xml:space="preserve" text-anchor="middle" x="18.5" y="-100.75" font-family="Helvetica,sans-Serif" font-size="10.00">main</text>
</a>
</g>
</g>
<!-- Node2 -->
<g id="Node000002" class="node">
<title>Node2</title>
<g id="a_Node000002"><a xlink:href="../../df/dfa/vector_8c.html#a27a32c68950e464846b6730512968e4b" target="_top" xlink:title="This function initilaizes the vector and gives it a size of 1 and initializes the first index to 0.">
<polygon fill="white" stroke="#666666" points="176.65,-237.25 147.85,-237.25 147.85,-218 176.65,-218 176.65,-237.25"/>
<text xml:space="preserve" text-anchor="middle" x="162.25" y="-223.75" font-family="Helvetica,sans-Serif" font-size="10.00">init</text>
</a>
</g>
</g>
<!-- Node1&#45;&gt;Node2 -->
<g id="edge1_Node000001_Node000002" class="edge">
<title>Node1&#45;&gt;Node2</title>
<g id="a_edge1_Node000001_Node000002"><a xlink:title=" ">
<path fill="none" stroke="#63b8ff" d="M26.79,-114.55C36.49,-127.39 54.6,-150.09 73,-166.62 93.36,-184.92 119.43,-202.31 137.95,-213.81"/>
<polygon fill="#63b8ff" stroke="#63b8ff" points="135.97,-216.7 146.33,-218.92 139.61,-210.73 135.97,-216.7"/>
</a>
</g>
</g>
<!-- Node3 -->
<g id="Node000003" class="node">
<title>Node3</title>
<g id="a_Node000003"><a xlink:href="../../df/dfa/vector_8c.html#a6f8a49f17bf315bdc30749a57bc7bc93" target="_top" xlink:title="This function returns the length the Vector.">
<polygon fill="white" stroke="#666666" points="176.65,-200.25 147.85,-200.25 147.85,-181 176.65,-181 176.65,-200.25"/>
<text xml:space="preserve" text-anchor="middle" x="162.25" y="-186.75" font-family="Helvetica,sans-Serif" font-size="10.00">len</text>
</a>
</g>
</g>
<!-- Node1&#45;&gt;Node3 -->
<g id="edge2_Node000001_Node000003" class="edge">
<title>Node1&#45;&gt;Node3</title>
<g id="a_edge2_Node000001_Node000003"><a xlink:title=" ">
<path fill="none" stroke="#63b8ff" d="M32.39,-114.44C43.05,-122.39 58.7,-133.7 73,-142.62 94.2,-155.85 119.31,-169.31 137.31,-178.59"/>
<polygon fill="#63b8ff" stroke="#63b8ff" points="135.66,-181.68 146.16,-183.11 138.84,-175.45 135.66,-181.68"/>
</a>
</g>
</g>
<!-- Node4 -->
<g id="Node000004" class="node">
<title>Node4</title>
<g id="a_Node000004"><a xlink:href="../../df/dfa/vector_8c.html#abdb067a98f90bcd9b0aa4ceb364d607f" target="_top" xlink:title="This function prints the entire Vector as a list.">
<polygon fill="white" stroke="#666666" points="107.75,-19.25 73,-19.25 73,0 107.75,0 107.75,-19.25"/>
<text xml:space="preserve" text-anchor="middle" x="90.38" y="-5.75" font-family="Helvetica,sans-Serif" font-size="10.00">print</text>
</a>
</g>
</g>
<!-- Node1&#45;&gt;Node4 -->
<g id="edge3_Node000001_Node000004" class="edge">
<title>Node1&#45;&gt;Node4</title>
<g id="a_edge3_Node000001_Node000004"><a xlink:title=" ">
<path fill="none" stroke="#63b8ff" d="M26.71,-94.82C38.17,-79.24 60.72,-48.58 75.41,-28.61"/>
<polygon fill="#63b8ff" stroke="#63b8ff" points="78.09,-30.87 81.2,-20.74 72.45,-26.72 78.09,-30.87"/>
</a>
</g>
</g>
<!-- Node5 -->
<g id="Node000005" class="node">
<title>Node5</title>
<g id="a_Node000005"><a xlink:href="../../df/dfa/vector_8c.html#a878dddf838dbd6d5a9a1da77a362ce56" target="_top" xlink:title="This function pushes a value to the end of the Vector.">
<polygon fill="white" stroke="#666666" points="180.75,-89.25 143.75,-89.25 143.75,-70 180.75,-70 180.75,-89.25"/>
<text xml:space="preserve" text-anchor="middle" x="162.25" y="-75.75" font-family="Helvetica,sans-Serif" font-size="10.00">push</text>
</a>
</g>
</g>
<!-- Node1&#45;&gt;Node5 -->
<g id="edge4_Node000001_Node000005" class="edge">
<title>Node1&#45;&gt;Node5</title>
<g id="a_edge4_Node000001_Node000005"><a xlink:title=" ">
<path fill="none" stroke="#63b8ff" d="M37.45,-101.46C61.31,-97.25 103.76,-89.76 132.2,-84.75"/>
<polygon fill="#63b8ff" stroke="#63b8ff" points="132.71,-88.21 141.95,-83.03 131.5,-81.32 132.71,-88.21"/>
</a>
</g>
</g>
<!-- Node6 -->
<g id="Node000006" class="node">
<title>Node6</title>
<g id="a_Node000006"><a xlink:href="../../df/dfa/vector_8c.html#a6facac5424445995bd2f8bb03ffcb548" target="_top" xlink:title="This function sets an item at the specified index of the Vector.">
<polygon fill="white" stroke="#666666" points="177,-52.25 147.5,-52.25 147.5,-33 177,-33 177,-52.25"/>
<text xml:space="preserve" text-anchor="middle" x="162.25" y="-38.75" font-family="Helvetica,sans-Serif" font-size="10.00">set</text>
</a>
</g>
</g>
<!-- Node1&#45;&gt;Node6 -->
<g id="edge5_Node000001_Node000006" class="edge">
<title>Node1&#45;&gt;Node6</title>
<g id="a_edge5_Node000001_Node000006"><a xlink:title=" ">
<path fill="none" stroke="#63b8ff" d="M37.45,-96.77C62.71,-85.73 108.79,-65.57 137.05,-53.21"/>
<polygon fill="#63b8ff" stroke="#63b8ff" points="138.12,-56.56 145.88,-49.35 135.32,-50.15 138.12,-56.56"/>
</a>
</g>
</g>
<!-- Node7 -->
<g id="Node000007" class="node">
<title>Node7</title>
<g id="a_Node000007"><a xlink:href="../../df/dfa/vector_8c.html#aa8dca7b867074164d5f45b0f3851269d" target="_top" xlink:title="This function tests the functions used to work with Vectors.">
<polygon fill="white" stroke="#666666" points="106.62,-133.25 74.12,-133.25 74.12,-114 106.62,-114 106.62,-133.25"/>
<text xml:space="preserve" text-anchor="middle" x="90.38" y="-119.75" font-family="Helvetica,sans-Serif" font-size="10.00">test</text>
</a>
</g>
</g>
<!-- Node1&#45;&gt;Node7 -->
<g id="edge6_Node000001_Node000007" class="edge">
<title>Node1&#45;&gt;Node7</title>
<g id="a_edge6_Node000001_Node000007"><a xlink:title=" ">
<path fill="none" stroke="#63b8ff" d="M37.49,-109.52C45.28,-111.63 54.54,-114.15 63.07,-116.47"/>
<polygon fill="#63b8ff" stroke="#63b8ff" points="62.02,-119.81 72.59,-119.06 63.85,-113.06 62.02,-119.81"/>
</a>
</g>
</g>
<!-- Node7&#45;&gt;Node2 -->
<g id="edge8_Node000007_Node000002" class="edge">
<title>Node7&#45;&gt;Node2</title>
<g id="a_edge8_Node000007_Node000002"><a xlink:title=" ">
<path fill="none" stroke="#63b8ff" d="M96.51,-133.63C104.46,-148.75 120.71,-178.25 144.06,-209.01"/>
<polygon fill="#63b8ff" stroke="#63b8ff" points="141,-210.77 149.91,-216.51 146.52,-206.47 141,-210.77"/>
</a>
</g>
</g>
<!-- Node7&#45;&gt;Node3 -->
<g id="edge9_Node000007_Node000003" class="edge">
<title>Node7&#45;&gt;Node3</title>
<g id="a_edge9_Node000007_Node000003"><a xlink:title=" ">
<path fill="none" stroke="#63b8ff" d="M101.69,-133.51C112.52,-143.9 129.79,-160.46 142.95,-173.08"/>
<polygon fill="#63b8ff" stroke="#63b8ff" points="140.16,-175.26 149.8,-179.65 145.01,-170.2 140.16,-175.26"/>
</a>
</g>
</g>
<!-- Node7&#45;&gt;Node5 -->
<g id="edge11_Node000007_Node000005" class="edge">
<title>Node7&#45;&gt;Node5</title>
<g id="a_edge11_Node000007_Node000005"><a xlink:title=" ">
<path fill="none" stroke="#63b8ff" d="M106.88,-113.86C115.36,-108.52 126.07,-101.78 135.74,-95.69"/>
<polygon fill="#63b8ff" stroke="#63b8ff" points="137.42,-98.76 144.02,-90.47 133.69,-92.84 137.42,-98.76"/>
</a>
</g>
</g>
<!-- Node7&#45;&gt;Node6 -->
<g id="edge12_Node000007_Node000006" class="edge">
<title>Node7&#45;&gt;Node6</title>
<g id="a_edge12_Node000007_Node000006"><a xlink:title=" ">
<path fill="none" stroke="#63b8ff" d="M99.31,-113.6C108.27,-102.38 123.54,-83.55 143.8,-60.91"/>
<polygon fill="#63b8ff" stroke="#63b8ff" points="146.36,-63.29 150.47,-53.52 141.17,-58.6 146.36,-63.29"/>
</a>
</g>
</g>
<!-- Node8 -->
<g id="Node000008" class="node">
<title>Node8</title>
<g id="a_Node000008"><a xlink:href="../../df/dfa/vector_8c.html#a15f534ebe962fda31cc191852befc250" target="_top" xlink:title="This function get the item at the specified index of the Vector.">
<polygon fill="white" stroke="#666666" points="177,-163.25 147.5,-163.25 147.5,-144 177,-144 177,-163.25"/>
<text xml:space="preserve" text-anchor="middle" x="162.25" y="-149.75" font-family="Helvetica,sans-Serif" font-size="10.00">get</text>
</a>
</g>
</g>
<!-- Node7&#45;&gt;Node8 -->
<g id="edge7_Node000007_Node000008" class="edge">
<title>Node7&#45;&gt;Node8</title>
<g id="a_edge7_Node000007_Node000008"><a xlink:title=" ">
<path fill="none" stroke="#63b8ff" d="M106.88,-130.28C115.65,-134.05 126.8,-138.84 136.72,-143.1"/>
<polygon fill="#63b8ff" stroke="#63b8ff" points="135.25,-146.27 145.82,-147 138.01,-139.84 135.25,-146.27"/>
</a>
</g>
</g>
<!-- Node9 -->
<g id="Node000009" class="node">
<title>Node9</title>
<g id="a_Node000009"><a xlink:href="../../df/dfa/vector_8c.html#af2f92e8cc55e764980bc0573ab5cd06f" target="_top" xlink:title="This function gets the next item from the Vector each time it&#39;s called.">
<polygon fill="white" stroke="#666666" points="179.62,-126.25 144.88,-126.25 144.88,-107 179.62,-107 179.62,-126.25"/>
<text xml:space="preserve" text-anchor="middle" x="162.25" y="-112.75" font-family="Helvetica,sans-Serif" font-size="10.00">next</text>
</a>
</g>
</g>
<!-- Node7&#45;&gt;Node9 -->
<g id="edge10_Node000007_Node000009" class="edge">
<title>Node7&#45;&gt;Node9</title>
<g id="a_edge10_Node000007_Node000009"><a xlink:title=" ">
<path fill="none" stroke="#63b8ff" d="M106.88,-122.07C114.71,-121.29 124.45,-120.31 133.51,-119.4"/>
<polygon fill="#63b8ff" stroke="#63b8ff" points="133.7,-122.9 143.31,-118.42 133.01,-115.94 133.7,-122.9"/>
</a>
</g>
</g>
</g>
</svg>
</svg>

<style type='text/css'>
<![CDATA[
[data-mouse-over-selected='false'] { opacity: 0.7; }
[data-mouse-over-selected='true']  { opacity: 1.0; }
]]>
</style>
<script type="application/ecmascript"><![CDATA[
document.addEventListener('DOMContentLoaded', (event) => {
  highlightEdges();
  highlightAdjacentNodes();
});
]]></script>
</svg>
