<?xml version="1.0" encoding="UTF-8" standalone="no"?>
<!DOCTYPE svg PUBLIC "-//W3C//DTD SVG 1.1//EN"
 "http://www.w3.org/Graphics/SVG/1.1/DTD/svg11.dtd">
<!-- Generated by graphviz version 14.1.2 (20260124.0452)
 -->
<!-- Title: test Pages: 1 -->
<svg width="214pt" height="45pt"
 viewBox="0.00 0.00 214.00 45.00" xmlns="http://www.w3.org/2000/svg" xmlns:xlink="http://www.w3.org/1999/xlink">
<g id="graph0" class="graph" transform="scale(1 1) rotate(0) translate(4 41.25)">
<title>test</title>
<!-- Node1 -->
<g id="Node000001" class="node">
<title>Node1</title>
<g id="a_Node000001"><a xlink:title="Test function.">
<polygon fill="#999999" stroke="#666666" points="32.5,-19.25 0,-19.25 0,0 32.5,0 32.5,-19.25"/>
<text xml:space="preserve" text-anchor="middle" x="16.25" y="-5.75" font-family="Helvetica,sans-Serif" font-size="10.00">test</text>
</a>
</g>
</g>
<!-- Node2 -->
<g id="Node000002" class="node">
<title>Node2</title>
<g id="a_Node000002"><a xlink:href="../../d5/d38/bubble__sort__recursion_8c.html#aa8989f6c9bfd1f040854fa18b180114f" target="_top" xlink:title="Bubble sort algorithm implements using recursion.">
<polygon fill="white" stroke="#666666" points="131,-19.25 68.5,-19.25 68.5,0 131,0 131,-19.25"/>
<text xml:space="preserve" text-anchor="middle" x="99.75" y="-5.75" font-family="Helvetica,sans-Serif" font-size="10.00">bubbleSort</text>
</a>
</g>
</g>
<!-- Node1&#45;&gt;Node2 -->
<g id="edge1_Node000001_Node000002" class="edge">
<title>Node1&#45;&gt;Node2</title>
<g id="a_edge1_Node000001_Node000002"><a xlink:title=" ">
<path fill="none" stroke="#63b8ff" d="M32.96,-9.62C39.83,-9.62 48.25,-9.62 56.74,-9.62"/>
<polygon fill="#63b8ff" stroke="#63b8ff" points="56.72,-13.13 66.71,-9.63 56.71,-6.13 56.72,-13.13"/>
</a>
</g>
</g>
<!-- Node2&#45;&gt;Node2 -->
<g id="edge2_Node000002_Node000002" class="edge">
<title>Node2&#45;&gt;Node2</title>
<g id="a_edge2_Node000002_Node000002"><a xlink:title=" ">
<path fill="none" stroke="#63b8ff" d="M86.68,-19.54C80.71,-28.15 85.07,-37.25 99.75,-37.25 107.78,-37.25 112.72,-34.53 114.57,-30.65"/>
<polygon fill="#63b8ff" stroke="#63b8ff" points="118.07,-30.37 113.06,-21.03 111.15,-31.46 118.07,-30.37"/>
</a>
</g>
</g>
<!-- Node3 -->
<g id="Node000003" class="node">
<title>Node3</title>
<g id="a_Node000003"><a xlink:href="../../d5/d38/bubble__sort__recursion_8c.html#ad126fa7239be97373c96861adc70b1d3" target="_top" xlink:title="Swapped two numbers using pointer.">
<polygon fill="white" stroke="#666666" points="206.25,-19.25 167,-19.25 167,0 206.25,0 206.25,-19.25"/>
<text xml:space="preserve" text-anchor="middle" x="186.62" y="-5.75" font-family="Helvetica,sans-Serif" font-size="10.00">swap</text>
</a>
</g>
</g>
<!-- Node2&#45;&gt;Node3 -->
<g id="edge3_Node000002_Node000003" class="edge">
<title>Node2&#45;&gt;Node3</title>
<g id="a_edge3_Node000002_Node000003"><a xlink:title=" ">
<path fill="none" stroke="#63b8ff" d="M131.39,-9.62C139.12,-9.62 147.41,-9.62 155.13,-9.62"/>
<polygon fill="#63b8ff" stroke="#63b8ff" points="155.12,-13.13 165.12,-9.63 155.12,-6.13 155.12,-13.13"/>
</a>
</g>
</g>
</g>
</svg>
