<?xml version="1.0" encoding="UTF-8" standalone="no"?>
<!DOCTYPE svg PUBLIC "-//W3C//DTD SVG 1.1//EN"
 "http://www.w3.org/Graphics/SVG/1.1/DTD/svg11.dtd">
<!-- Generated by graphviz version 14.1.2 (20260124.0452)
 -->
<!-- Title: main Pages: 1 -->
<svg width="140pt" height="64pt"
 viewBox="0.00 0.00 140.00 64.00" xmlns="http://www.w3.org/2000/svg" xmlns:xlink="http://www.w3.org/1999/xlink">
<g id="graph0" class="graph" transform="scale(1 1) rotate(0) translate(4 60.25)">
<title>main</title>
<!-- Node1 -->
<g id="Node000001" class="node">
<title>Node1</title>
<g id="a_Node000001"><a xlink:title="Main function.">
<polygon fill="#999999" stroke="#666666" points="37,-37.25 0,-37.25 0,-18 37,-18 37,-37.25"/>
<text xml:space="preserve" text-anchor="middle" x="18.5" y="-23.75" font-family="Helvetica,sans-Serif" font-size="10.00">main</text>
</a>
</g>
</g>
<!-- Node2 -->
<g id="Node000002" class="node">
<title>Node2</title>
<g id="a_Node000002"><a xlink:href="../../d5/d4c/group__sorting.html#ga2fb01e00dedb437a42010f6309e7eba8" target="_top" xlink:title="This is where the sorting of the array takes place.">
<polygon fill="white" stroke="#666666" points="131.75,-56.25 73,-56.25 73,-37 131.75,-37 131.75,-56.25"/>
<text xml:space="preserve" text-anchor="middle" x="102.38" y="-42.75" font-family="Helvetica,sans-Serif" font-size="10.00">bead_sort</text>
</a>
</g>
</g>
<!-- Node1&#45;&gt;Node2 -->
<g id="edge1_Node000001_Node000002" class="edge">
<title>Node1&#45;&gt;Node2</title>
<g id="a_edge1_Node000001_Node000002"><a xlink:title=" ">
<path fill="none" stroke="#63b8ff" d="M37.27,-31.75C44.46,-33.42 53.08,-35.42 61.63,-37.4"/>
<polygon fill="#63b8ff" stroke="#63b8ff" points="60.69,-40.78 71.23,-39.63 62.28,-33.96 60.69,-40.78"/>
</a>
</g>
</g>
<!-- Node3 -->
<g id="Node000003" class="node">
<title>Node3</title>
<g id="a_Node000003"><a xlink:href="../../d5/d4c/group__sorting.html#gad7ed8cc4603f500d610054680d28b971" target="_top" xlink:title="Displays the array, passed to this method.">
<polygon fill="white" stroke="#666666" points="125.75,-19.25 79,-19.25 79,0 125.75,0 125.75,-19.25"/>
<text xml:space="preserve" text-anchor="middle" x="102.38" y="-5.75" font-family="Helvetica,sans-Serif" font-size="10.00">display</text>
</a>
</g>
</g>
<!-- Node1&#45;&gt;Node3 -->
<g id="edge2_Node000001_Node000003" class="edge">
<title>Node1&#45;&gt;Node3</title>
<g id="a_edge2_Node000001_Node000003"><a xlink:title=" ">
<path fill="none" stroke="#63b8ff" d="M37.27,-23.72C46.18,-21.76 57.27,-19.32 67.71,-17.03"/>
<polygon fill="#63b8ff" stroke="#63b8ff" points="68.16,-20.51 77.18,-14.94 66.66,-13.67 68.16,-20.51"/>
</a>
</g>
</g>
</g>
</svg>
