<?xml version="1.0" encoding="UTF-8" standalone="no"?>
<!DOCTYPE svg PUBLIC "-//W3C//DTD SVG 1.1//EN"
 "http://www.w3.org/Graphics/SVG/1.1/DTD/svg11.dtd">
<!-- Generated by graphviz version 14.1.2 (20260124.0452)
 -->
<!-- Title: convert Pages: 1 -->
<svg width="174pt" height="175pt"
 viewBox="0.00 0.00 174.00 175.00" xmlns="http://www.w3.org/2000/svg" xmlns:xlink="http://www.w3.org/1999/xlink">
<g id="graph0" class="graph" transform="scale(1 1) rotate(0) translate(4 171.25)">
<title>convert</title>
<!-- Node1 -->
<g id="Node000001" class="node">
<title>Node1</title>
<g id="a_Node000001"><a xlink:title="convert function">
<polygon fill="#999999" stroke="#666666" points="48.25,-93.25 0,-93.25 0,-74 48.25,-74 48.25,-93.25"/>
<text xml:space="preserve" text-anchor="middle" x="24.12" y="-79.75" font-family="Helvetica,sans-Serif" font-size="10.00">convert</text>
</a>
</g>
</g>
<!-- Node2 -->
<g id="Node000002" class="node">
<title>Node2</title>
<g id="a_Node000002"><a xlink:href="../../db/d0c/infix__to__postfix_8c.html#ac91f38ad7885fca93e39325361a5c787" target="_top" xlink:title="getPrecedence function returns the precedence after comparing two operators passed as parameter.">
<polygon fill="white" stroke="#666666" points="165.5,-167.25 84.25,-167.25 84.25,-148 165.5,-148 165.5,-167.25"/>
<text xml:space="preserve" text-anchor="middle" x="124.88" y="-153.75" font-family="Helvetica,sans-Serif" font-size="10.00">getPrecedence</text>
</a>
</g>
</g>
<!-- Node1&#45;&gt;Node2 -->
<g id="edge1_Node000001_Node000002" class="edge">
<title>Node1&#45;&gt;Node2</title>
<g id="a_edge1_Node000001_Node000002"><a xlink:title=" ">
<path fill="none" stroke="#63b8ff" d="M33.53,-93.37C44.32,-105.44 64.08,-126.05 84.25,-139.62 85.62,-140.55 87.05,-141.44 88.51,-142.31"/>
<polygon fill="#63b8ff" stroke="#63b8ff" points="86.66,-145.29 97.13,-146.89 89.94,-139.11 86.66,-145.29"/>
</a>
</g>
</g>
<!-- Node3 -->
<g id="Node000003" class="node">
<title>Node3</title>
<g id="a_Node000003"><a xlink:href="../../da/d96/infix__to__postfix2_8c.html#a653c98c68c558505b75b04c44b7c838e" target="_top" xlink:title="Function to check whether the stack is empty or not.">
<polygon fill="white" stroke="#666666" points="150.88,-130.25 98.88,-130.25 98.88,-111 150.88,-111 150.88,-130.25"/>
<text xml:space="preserve" text-anchor="middle" x="124.88" y="-116.75" font-family="Helvetica,sans-Serif" font-size="10.00">isEmpty</text>
</a>
</g>
</g>
<!-- Node1&#45;&gt;Node3 -->
<g id="edge2_Node000001_Node000003" class="edge">
<title>Node1&#45;&gt;Node3</title>
<g id="a_edge2_Node000001_Node000003"><a xlink:title=" ">
<path fill="none" stroke="#63b8ff" d="M48.53,-92.39C60.29,-96.8 74.8,-102.24 87.94,-107.16"/>
<polygon fill="#63b8ff" stroke="#63b8ff" points="86.56,-110.38 97.15,-110.61 89.01,-103.82 86.56,-110.38"/>
</a>
</g>
</g>
<!-- Node4 -->
<g id="Node000004" class="node">
<title>Node4</title>
<g id="a_Node000004"><a xlink:href="../../db/d0c/infix__to__postfix_8c.html#afd8245c04b202240390de23170f72d6b" target="_top" xlink:title="isOprnd function">
<polygon fill="white" stroke="#666666" points="149.75,-93.25 100,-93.25 100,-74 149.75,-74 149.75,-93.25"/>
<text xml:space="preserve" text-anchor="middle" x="124.88" y="-79.75" font-family="Helvetica,sans-Serif" font-size="10.00">isOprnd</text>
</a>
</g>
</g>
<!-- Node1&#45;&gt;Node4 -->
<g id="edge3_Node000001_Node000004" class="edge">
<title>Node1&#45;&gt;Node4</title>
<g id="a_edge3_Node000001_Node000004"><a xlink:title=" ">
<path fill="none" stroke="#63b8ff" d="M48.53,-83.62C60.44,-83.62 75.17,-83.62 88.43,-83.62"/>
<polygon fill="#63b8ff" stroke="#63b8ff" points="88.1,-87.13 98.1,-83.63 88.1,-80.13 88.1,-87.13"/>
</a>
</g>
</g>
<!-- Node5 -->
<g id="Node000005" class="node">
<title>Node5</title>
<g id="a_Node000005"><a xlink:href="../../da/d96/infix__to__postfix2_8c.html#a312e7f6c761a199c1369fbe651e084f0" target="_top" xlink:title="Function to pop from the stack.">
<polygon fill="white" stroke="#666666" points="140.75,-56.25 109,-56.25 109,-37 140.75,-37 140.75,-56.25"/>
<text xml:space="preserve" text-anchor="middle" x="124.88" y="-42.75" font-family="Helvetica,sans-Serif" font-size="10.00">pop</text>
</a>
</g>
</g>
<!-- Node1&#45;&gt;Node5 -->
<g id="edge4_Node000001_Node000005" class="edge">
<title>Node1&#45;&gt;Node5</title>
<g id="a_edge4_Node000001_Node000005"><a xlink:title=" ">
<path fill="none" stroke="#63b8ff" d="M48.53,-74.86C63.49,-69.25 82.9,-61.98 98.27,-56.22"/>
<polygon fill="#63b8ff" stroke="#63b8ff" points="99.08,-59.65 107.21,-52.87 96.62,-53.1 99.08,-59.65"/>
</a>
</g>
</g>
<!-- Node6 -->
<g id="Node000006" class="node">
<title>Node6</title>
<g id="a_Node000006"><a xlink:href="../../db/d0c/infix__to__postfix_8c.html#a613462735d30cae1b85b606ecab30554" target="_top" xlink:title="push function">
<polygon fill="white" stroke="#666666" points="143.38,-19.25 106.38,-19.25 106.38,0 143.38,0 143.38,-19.25"/>
<text xml:space="preserve" text-anchor="middle" x="124.88" y="-5.75" font-family="Helvetica,sans-Serif" font-size="10.00">push</text>
</a>
</g>
</g>
<!-- Node1&#45;&gt;Node6 -->
<g id="edge5_Node000001_Node000006" class="edge">
<title>Node1&#45;&gt;Node6</title>
<g id="a_edge5_Node000001_Node000006"><a xlink:title=" ">
<path fill="none" stroke="#63b8ff" d="M33.53,-73.88C44.32,-61.81 64.08,-41.2 84.25,-27.62 87.85,-25.2 91.82,-22.97 95.82,-20.95"/>
<polygon fill="#63b8ff" stroke="#63b8ff" points="97.25,-24.14 104.87,-16.78 94.32,-17.79 97.25,-24.14"/>
</a>
</g>
</g>
</g>
</svg>
